<svg xmlns="http://www.w3.org/2000/svg" xmlns:xlink="http://www.w3.org/1999/xlink" width="500" zoomAndPan="magnify" viewBox="0 0 375 374.999991" height="500" preserveAspectRatio="xMidYMid meet" version="1.0"><defs><g/><clipPath id="c5ac4c3491"><path d="M 46.121094 41.003906 L 328.855469 41.003906 L 328.855469 333.980469 L 46.121094 333.980469 Z M 46.121094 41.003906 " clip-rule="nonzero"/></clipPath><clipPath id="fa6ff75a89"><rect x="0" width="280" y="0" height="141"/></clipPath></defs><g clip-path="url(#c5ac4c3491)"><path fill="#2c2f4a" d="M 112.515625 71.367188 L 112.636719 71.445312 L 112.667969 71.328125 Z M 160.054688 51.820312 C 160.875 51.71875 161.695312 51.582031 162.519531 51.523438 C 167.183594 51.1875 171.839844 50.734375 176.507812 50.585938 C 181.402344 50.429688 186.308594 50.464844 191.203125 50.617188 C 197.207031 50.808594 203.207031 51.167969 209.203125 51.542969 C 212.089844 51.722656 214.972656 52.007812 217.835938 52.410156 C 221.46875 52.917969 225.085938 53.558594 228.703125 54.195312 C 234.136719 55.144531 239.46875 56.488281 244.664062 58.359375 C 255.957031 62.421875 266.734375 67.550781 276.945312 73.871094 C 277.292969 74.085938 277.605469 74.4375 278.222656 74.390625 C 277.921875 74.042969 277.722656 73.785156 277.496094 73.554688 C 273.335938 69.328125 268.722656 65.675781 263.539062 62.769531 C 258.585938 59.992188 253.503906 57.472656 248.34375 55.101562 C 243.519531 52.886719 238.492188 51.285156 233.300781 50.222656 C 228.449219 49.230469 223.566406 48.414062 218.65625 47.75 C 212.261719 46.882812 205.882812 45.882812 199.449219 45.324219 C 197.179688 45.128906 194.894531 44.917969 192.621094 44.9375 C 188.605469 44.964844 184.636719 45.53125 180.703125 46.339844 C 175.089844 47.496094 169.546875 48.933594 164.003906 50.367188 C 162.664062 50.714844 161.3125 51.023438 160.054688 51.820312 Z M 316.425781 214.46875 C 316.523438 214.484375 316.617188 214.496094 316.710938 214.507812 C 316.847656 214.160156 317.011719 213.824219 317.125 213.46875 C 318.125 210.339844 319.160156 207.222656 320.101562 204.078125 C 321.589844 199.113281 322.53125 194.019531 323.453125 188.925781 C 324.046875 185.636719 324.519531 182.332031 324.695312 178.992188 C 324.96875 173.75 324.535156 168.53125 323.988281 163.324219 C 323.527344 158.953125 322.734375 154.625 321.78125 150.328125 C 320.539062 144.730469 319.105469 139.1875 317.195312 133.769531 C 314.957031 127.410156 312.261719 121.242188 309.542969 115.078125 C 307.125 109.59375 303.996094 104.542969 300.324219 99.820312 C 299.992188 99.394531 299.628906 98.992188 299.207031 98.488281 C 299.054688 99.121094 299.375 99.484375 299.523438 99.875 C 300.300781 101.902344 301.152344 103.902344 301.898438 105.9375 C 305.570312 115.941406 308.460938 126.152344 310.121094 136.695312 C 310.90625 141.699219 311.699219 146.699219 312.488281 151.703125 C 313.445312 157.753906 314.152344 163.835938 314.660156 169.9375 C 315.054688 174.707031 315.398438 179.484375 315.621094 184.265625 C 315.871094 189.65625 315.972656 195.058594 316.101562 200.457031 C 316.203125 204.6875 316.253906 208.914062 316.332031 213.144531 C 316.339844 213.589844 316.394531 214.027344 316.425781 214.46875 Z M 234.84375 319.257812 C 234.871094 319.339844 234.898438 319.425781 234.929688 319.507812 C 236.671875 319.183594 238.421875 318.878906 240.160156 318.53125 C 244.308594 317.707031 248.429688 316.761719 252.425781 315.355469 C 261.792969 312.0625 270.390625 307.339844 278.25 301.273438 C 283.785156 296.996094 288.722656 292.117188 292.820312 286.425781 C 296.632812 281.128906 299.933594 275.527344 302.695312 269.609375 C 305.65625 263.273438 307.671875 256.632812 309.058594 249.792969 C 309.542969 247.394531 309.917969 244.976562 310.335938 242.5625 C 310.382812 242.292969 310.417969 242.011719 310.417969 241.734375 C 310.414062 241.496094 310.585938 241.191406 310.15625 241 C 310.015625 241.226562 309.867188 241.445312 309.742188 241.675781 C 309.082031 242.902344 308.425781 244.128906 307.773438 245.355469 C 302.410156 255.429688 295.960938 264.734375 288.28125 273.183594 C 284.503906 277.34375 280.78125 281.558594 276.96875 285.6875 C 274.589844 288.261719 272.15625 290.792969 269.628906 293.222656 C 259.382812 303.058594 248.03125 311.4375 235.796875 318.632812 C 235.46875 318.824219 235.160156 319.046875 234.84375 319.257812 Z M 311.65625 204.515625 C 311.644531 204.515625 311.628906 204.515625 311.617188 204.519531 C 311.585938 203.40625 311.554688 202.292969 311.523438 201.179688 C 311.414062 197.175781 311.296875 193.167969 311.199219 189.164062 C 311.042969 183.152344 310.671875 177.152344 310.109375 171.164062 C 309.671875 166.566406 309.28125 161.957031 308.628906 157.386719 C 307.5625 149.894531 306.359375 142.421875 305.105469 134.957031 C 303.269531 124.046875 300.152344 113.492188 296.035156 103.234375 C 293.878906 97.855469 291.4375 92.609375 288.367188 87.675781 C 287.921875 86.957031 287.429688 86.3125 286.761719 85.78125 C 282.183594 82.128906 277.449219 78.71875 272.378906 75.769531 C 265.4375 71.730469 258.222656 68.265625 250.816406 65.1875 C 245.625 63.027344 240.371094 61.023438 234.890625 59.71875 C 230.886719 58.761719 226.847656 57.945312 222.800781 57.195312 C 219.574219 56.601562 216.320312 56.140625 213.0625 55.742188 C 210.414062 55.417969 207.746094 55.242188 205.078125 55.0625 C 200.082031 54.730469 195.082031 54.390625 190.078125 54.144531 C 184.796875 53.890625 179.511719 53.703125 174.21875 54.019531 C 171.054688 54.210938 167.878906 54.289062 164.714844 54.527344 C 162.386719 54.699219 160.046875 54.917969 157.75 55.335938 C 149.921875 56.757812 142.164062 58.492188 134.601562 61.042969 C 129.777344 62.667969 125.195312 64.722656 120.933594 67.535156 C 113.984375 72.121094 107.453125 77.199219 101.652344 83.195312 C 97.664062 87.320312 93.78125 91.539062 90.058594 95.902344 C 81.605469 105.800781 74.226562 116.449219 68.019531 127.898438 C 67.597656 128.675781 67.175781 129.476562 66.894531 130.3125 C 63.96875 138.929688 61.984375 147.78125 60.820312 156.792969 C 59.992188 163.199219 59.660156 169.652344 59.953125 176.121094 C 60.117188 179.730469 60.21875 183.351562 60.441406 186.960938 C 60.617188 189.792969 60.863281 192.625 61.210938 195.441406 C 61.753906 199.859375 62.421875 204.261719 63.019531 208.671875 C 63.96875 215.6875 65.34375 222.617188 67.101562 229.46875 C 69.253906 237.890625 71.820312 246.175781 75.398438 254.121094 C 77.34375 258.4375 79.273438 262.753906 81.652344 266.855469 C 84.589844 271.925781 87.9375 276.707031 91.683594 281.222656 C 94.988281 285.210938 98.328125 289.175781 102.070312 292.761719 C 105.804688 296.347656 109.6875 299.78125 113.425781 303.363281 C 115.347656 305.203125 117.539062 306.53125 119.925781 307.65625 C 131.195312 312.96875 142.882812 317.039062 155.042969 319.75 C 160.914062 321.058594 166.847656 322.023438 172.847656 322.492188 C 177.289062 322.839844 181.742188 322.972656 186.199219 322.972656 C 193.492188 322.976562 200.785156 323.035156 208.074219 322.59375 C 212.464844 322.332031 216.839844 321.910156 221.21875 321.472656 C 221.996094 321.394531 222.730469 321.167969 223.449219 320.828125 C 229.289062 318.054688 235.003906 315.0625 240.355469 311.417969 C 243.117188 309.539062 245.855469 307.621094 248.558594 305.65625 C 257.144531 299.421875 265.09375 292.453125 272.285156 284.648438 C 277.527344 278.957031 282.648438 273.148438 287.769531 267.34375 C 290.714844 264.003906 293.484375 260.507812 295.996094 256.820312 C 301.691406 248.472656 306.386719 239.566406 310.617188 230.402344 C 311.308594 228.898438 311.652344 227.363281 311.652344 225.734375 C 311.660156 218.664062 311.65625 211.589844 311.65625 204.515625 Z M 60.484375 145.183594 C 59.890625 145.375 59.929688 145.972656 59.78125 146.398438 C 57.359375 153.230469 55.476562 160.210938 54.070312 167.316406 C 53.054688 172.449219 52.058594 177.585938 51.167969 182.738281 C 50.578125 186.136719 50.09375 189.558594 49.75 192.988281 C 49.410156 196.363281 49.242188 199.757812 49.109375 203.148438 C 48.933594 207.65625 49.019531 212.167969 49.460938 216.664062 C 50.085938 222.988281 51.152344 229.234375 52.71875 235.398438 C 54.433594 242.164062 56.675781 248.730469 60.015625 254.890625 C 66.132812 266.175781 73.847656 276.148438 83.832031 284.296875 C 89.449219 288.882812 95.40625 292.988281 101.464844 296.957031 C 101.671875 297.09375 101.902344 297.199219 102.238281 297.382812 C 102.144531 297.113281 102.140625 296.988281 102.078125 296.925781 C 97.449219 292.484375 93.308594 287.601562 89.273438 282.625 C 84.945312 277.285156 81.132812 271.601562 78.03125 265.472656 C 76.144531 261.753906 74.429688 257.941406 72.777344 254.109375 C 68.574219 244.363281 65.738281 234.183594 63.410156 223.851562 C 61.628906 215.96875 60.582031 207.964844 59.46875 199.972656 C 58.621094 193.851562 58.152344 187.6875 57.855469 181.515625 C 57.558594 175.394531 57.558594 169.277344 57.964844 163.15625 C 58.296875 158.199219 58.992188 153.304688 59.929688 148.4375 C 60.140625 147.34375 60.273438 146.242188 60.441406 145.136719 C 60.492188 145.066406 60.550781 144.992188 60.597656 144.914062 C 60.605469 144.898438 60.558594 144.855469 60.539062 144.828125 C 60.519531 144.945312 60.5 145.066406 60.484375 145.183594 Z M 129.632812 316.820312 C 129.554688 316.769531 129.480469 316.714844 129.402344 316.667969 C 129.410156 316.734375 129.414062 316.804688 129.421875 316.875 C 129.503906 316.839844 129.585938 316.804688 129.664062 316.765625 C 129.71875 316.953125 129.714844 317.214844 129.839844 317.320312 C 130.515625 317.902344 131.21875 318.449219 131.921875 319 C 136.742188 322.777344 142.019531 325.707031 147.917969 327.4375 C 151.179688 328.394531 154.503906 329.0625 157.851562 329.640625 C 161.484375 330.265625 165.136719 330.601562 168.820312 330.539062 C 171.433594 330.496094 174.046875 330.398438 176.664062 330.332031 C 183.351562 330.167969 189.976562 329.285156 196.605469 328.484375 C 197.355469 328.394531 198.097656 328.234375 198.839844 328.105469 C 198.605469 327.9375 198.386719 327.894531 198.171875 327.894531 C 192.269531 327.921875 186.371094 327.863281 180.46875 327.660156 C 174.058594 327.433594 167.683594 326.933594 161.371094 325.808594 C 151.378906 324.027344 141.636719 321.308594 132.152344 317.691406 C 131.320312 317.375 130.476562 317.105469 129.632812 316.820312 Z M 74.746094 111.964844 C 75.175781 112.015625 75.28125 111.640625 75.460938 111.390625 C 77.054688 109.175781 78.605469 106.929688 80.230469 104.738281 C 85.183594 98.0625 90.671875 91.84375 96.433594 85.863281 C 101.035156 81.085938 105.8125 76.5 111.183594 72.570312 C 111.382812 72.425781 111.550781 72.246094 111.769531 72.050781 C 111.21875 71.8125 110.9375 72.183594 110.644531 72.378906 C 108.75 73.648438 106.8125 74.871094 105.007812 76.261719 C 99.972656 80.140625 95.28125 84.40625 90.890625 89.015625 C 84.589844 95.632812 79.324219 102.984375 75.074219 111.066406 C 74.925781 111.347656 74.878906 111.683594 74.78125 111.992188 C 74.695312 112.046875 74.605469 112.097656 74.519531 112.148438 C 74.570312 112.230469 74.617188 112.3125 74.664062 112.398438 C 74.703125 112.355469 74.765625 112.316406 74.769531 112.269531 C 74.777344 112.167969 74.753906 112.066406 74.746094 111.964844 Z M 173.699219 333.972656 C 170.457031 333.972656 168.0625 333.988281 165.667969 333.972656 C 162.257812 333.945312 158.890625 333.492188 155.554688 332.855469 C 152.4375 332.265625 149.335938 331.617188 146.304688 330.652344 C 141.703125 329.191406 137.4375 327.082031 133.5 324.289062 C 129.542969 321.480469 125.78125 318.417969 122.171875 315.1875 C 119.585938 312.871094 116.816406 310.917969 113.726562 309.304688 C 107.203125 305.894531 101.140625 301.722656 95.085938 297.550781 C 90.039062 294.074219 85.09375 290.457031 80.46875 286.425781 C 69.15625 276.5625 60.578125 264.695312 54.613281 250.949219 C 52.082031 245.109375 50.417969 238.980469 49.039062 232.777344 C 47.804688 227.226562 46.933594 221.617188 46.492188 215.949219 C 46.179688 211.898438 45.96875 207.839844 46.261719 203.769531 C 46.433594 201.328125 46.480469 198.878906 46.621094 196.433594 C 46.894531 191.703125 47.570312 187.015625 48.453125 182.367188 C 49.597656 176.351562 50.75 170.339844 52.054688 164.359375 C 54.316406 153.996094 57.550781 143.945312 62.097656 134.339844 C 62.785156 132.882812 63.492188 131.425781 64.257812 130.007812 C 65 128.628906 65.589844 127.199219 66.117188 125.726562 C 69.386719 116.621094 73.679688 108.027344 79.023438 99.957031 C 82.632812 94.503906 86.839844 89.539062 91.367188 84.832031 C 94.574219 81.5 98 78.394531 101.539062 75.421875 C 104.832031 72.65625 108.296875 70.140625 112.074219 68.074219 C 115.539062 66.171875 118.996094 64.257812 122.519531 62.46875 C 124.949219 61.238281 127.484375 60.21875 129.96875 59.097656 C 139.304688 54.867188 148.898438 51.304688 158.621094 48.082031 C 163.375 46.503906 168.269531 45.414062 173.113281 44.148438 C 176.9375 43.148438 180.789062 42.285156 184.699219 41.671875 C 188.398438 41.09375 192.117188 40.910156 195.855469 41.046875 C 201.367188 41.246094 206.835938 41.9375 212.296875 42.695312 C 215.933594 43.199219 219.582031 43.636719 223.21875 44.167969 C 228.617188 44.953125 233.996094 45.847656 239.285156 47.203125 C 242.957031 48.140625 246.519531 49.425781 249.976562 50.976562 C 254.75 53.121094 259.449219 55.417969 264.050781 57.910156 C 272.386719 62.425781 279.496094 68.421875 285.445312 75.792969 C 287.546875 78.394531 289.511719 81.097656 291.308594 83.917969 C 291.945312 84.914062 292.710938 85.765625 293.554688 86.585938 C 300.125 92.996094 305.875 100.054688 310.335938 108.113281 C 310.765625 108.890625 311.171875 109.6875 311.554688 110.492188 C 315.894531 119.652344 319.96875 128.925781 322.910156 138.648438 C 325.007812 145.585938 326.65625 152.632812 327.6875 159.804688 C 328.621094 166.316406 329.089844 172.867188 328.796875 179.453125 C 328.667969 182.351562 328.269531 185.21875 327.773438 188.074219 C 326.808594 193.667969 325.769531 199.246094 324.226562 204.722656 C 322.261719 211.691406 319.910156 218.53125 317.1875 225.238281 C 316.441406 227.074219 316.117188 228.917969 316.023438 230.894531 C 315.472656 242.0625 313.738281 253.03125 310.109375 263.648438 C 308.558594 268.191406 306.601562 272.554688 304.339844 276.785156 C 301.316406 282.441406 297.9375 287.875 293.988281 292.941406 C 289.613281 298.566406 284.445312 303.371094 278.722656 307.582031 C 271.867188 312.625 264.445312 316.640625 256.488281 319.664062 C 251.84375 321.429688 247.035156 322.582031 242.167969 323.542969 C 236.542969 324.652344 230.859375 325.421875 225.171875 326.148438 C 224.070312 326.289062 222.960938 326.46875 221.855469 326.503906 C 219.878906 326.566406 218.023438 327.0625 216.167969 327.703125 C 210.679688 329.585938 205.03125 330.8125 199.285156 331.621094 C 193.9375 332.378906 188.574219 333.03125 183.195312 333.464844 C 179.753906 333.742188 176.300781 333.839844 173.699219 333.972656 " fill-opacity="1" fill-rule="nonzero"/></g><g transform="matrix(1, 0, 0, 1, 91, 117)"><g clip-path="url(#fa6ff75a89)"><g fill="#801700" fill-opacity="1"><g transform="translate(19.409291, 97.907552)"><g><path d="M 122.589844 -0.742188 C 122.894531 -0.59375 123.164062 -0.371094 123.40625 -0.0742188 C 123.757812 0.355469 123.933594 0.851562 123.933594 1.40625 C 123.933594 2.097656 123.699219 2.679688 123.234375 3.148438 C 122.765625 3.613281 122.199219 3.847656 121.539062 3.847656 L 121.449219 3.847656 L 120.871094 3.792969 L 121.054688 1.9375 L 121.886719 3.605469 C 121.5625 3.769531 121.234375 3.847656 120.910156 3.847656 L 120.804688 3.847656 C 111.863281 3.347656 103.050781 3.042969 94.367188 2.941406 C 85.667969 2.835938 76.894531 2.800781 68.050781 2.832031 L 63.726562 2.832031 C 63.191406 2.832031 62.796875 2.910156 62.546875 3.0625 C 62.320312 3.203125 62.089844 3.527344 61.859375 4.039062 C 59.582031 9.226562 57.253906 14.398438 54.875 19.566406 L 51.023438 27.996094 C 50.109375 30.027344 49.210938 32.089844 48.328125 34.175781 L 48.320312 34.199219 L 48.308594 34.21875 C 47.851562 35.230469 47.417969 36.242188 47.003906 37.253906 L 45.28125 36.554688 L 47.046875 37.144531 C 46.957031 37.417969 46.816406 37.6875 46.625 37.953125 L 45.109375 36.871094 L 46.929688 37.273438 C 46.808594 37.820312 46.582031 38.316406 46.25 38.769531 L 46.113281 38.953125 L 45.9375 39.097656 C 45.347656 39.589844 44.628906 39.875 43.78125 39.949219 C 42.898438 40.027344 42.109375 39.839844 41.414062 39.394531 C 40.835938 39.019531 40.460938 38.503906 40.289062 37.847656 C 40.160156 37.339844 40.175781 36.792969 40.332031 36.210938 L 40.378906 36.0625 C 40.722656 35.125 41.097656 34.214844 41.503906 33.324219 L 51.792969 9.988281 L 54.246094 4.480469 L 55.945312 5.234375 L 54.226562 4.527344 C 54.335938 4.257812 54.453125 3.964844 54.582031 3.648438 L 54.597656 3.609375 L 54.613281 3.574219 C 54.90625 2.921875 55.199219 2.28125 55.492188 1.644531 L 57.183594 2.425781 L 55.445312 1.753906 C 55.453125 1.734375 55.457031 1.71875 55.460938 1.710938 C 55.457031 1.730469 55.453125 1.753906 55.449219 1.789062 C 55.433594 1.972656 55.46875 2.160156 55.558594 2.355469 C 55.675781 2.617188 55.851562 2.820312 56.089844 2.960938 C 56.210938 3.03125 56.316406 3.070312 56.414062 3.082031 L 56.648438 1.234375 L 56.695312 3.097656 C 52.195312 3.210938 47.71875 3.410156 43.269531 3.699219 L 36.113281 4.066406 L 36.089844 4.066406 C 35.785156 4.074219 35.550781 4.132812 35.382812 4.246094 C 35.214844 4.363281 35.070312 4.566406 34.945312 4.855469 L 34.921875 4.902344 C 32.570312 9.984375 30.117188 15.019531 27.570312 20.019531 C 26.082031 22.960938 24.570312 25.917969 23.03125 28.878906 L 21.328125 32.09375 L 19.683594 31.222656 L 21.363281 32.023438 C 21.003906 32.773438 20.609375 33.484375 20.179688 34.148438 L 20.152344 34.191406 L 20.121094 34.230469 C 19.441406 35.167969 18.527344 35.738281 17.375 35.949219 C 16.363281 36.132812 15.449219 36.066406 14.625 35.742188 C 14.050781 35.515625 13.601562 35.183594 13.277344 34.75 C 12.878906 34.222656 12.707031 33.621094 12.761719 32.945312 L 12.769531 32.820312 L 12.796875 32.695312 C 13 31.75 13.289062 30.851562 13.660156 29.996094 L 15.367188 30.738281 L 13.632812 30.058594 C 16.203125 23.472656 19.011719 17 22.050781 10.636719 L 25.25 3.902344 L 26.929688 4.703125 L 25.207031 3.996094 C 25.214844 3.980469 25.21875 3.972656 25.21875 3.96875 C 25.210938 3.996094 25.207031 4.027344 25.203125 4.066406 C 25.1875 4.269531 25.226562 4.472656 25.328125 4.679688 C 25.449219 4.933594 25.625 5.121094 25.855469 5.25 C 25.957031 5.308594 26.039062 5.339844 26.105469 5.347656 C 25.578125 5.277344 24.734375 5.308594 23.574219 5.4375 L 23.46875 5.449219 L 23.199219 5.449219 L 23.199219 3.585938 L 23.367188 5.441406 C 21.140625 5.648438 18.855469 5.957031 16.507812 6.378906 C 14.167969 6.796875 12.65625 7.101562 11.972656 7.292969 L 11.933594 7.304688 L 11.898438 7.3125 C 11.011719 7.523438 10.109375 7.628906 9.1875 7.628906 L 9.1875 5.769531 L 10.503906 7.085938 C 10.089844 7.496094 9.597656 7.703125 9.015625 7.703125 C 8.609375 7.703125 8.21875 7.589844 7.839844 7.367188 L 8.800781 5.769531 L 9.121094 7.601562 L 8.550781 7.703125 L 8.386719 7.703125 C 7.816406 7.703125 7.289062 7.515625 6.808594 7.140625 C 6.511719 6.914062 6.285156 6.636719 6.121094 6.3125 C 5.953125 5.976562 5.871094 5.617188 5.871094 5.234375 L 5.871094 4.933594 L 5.964844 4.648438 C 6.042969 4.417969 6.164062 4.167969 6.324219 3.902344 C 6.582031 3.484375 6.902344 3.164062 7.292969 2.941406 L 7.441406 2.855469 L 7.597656 2.800781 C 10.566406 1.757812 13.589844 1.03125 16.675781 0.625 C 20.058594 0.125 23.453125 -0.304688 26.855469 -0.664062 L 26.929688 -0.671875 L 27 -0.671875 C 27.21875 -0.679688 27.382812 -0.71875 27.488281 -0.789062 C 27.589844 -0.851562 27.683594 -0.972656 27.765625 -1.152344 C 28.769531 -3.207031 29.808594 -5.253906 30.882812 -7.292969 C 32.167969 -9.699219 33.476562 -12.097656 34.808594 -14.480469 L 36.433594 -13.574219 L 34.773438 -14.417969 C 35.230469 -15.316406 35.695312 -16.210938 36.167969 -17.109375 L 36.25 -17.265625 L 36.359375 -17.402344 C 36.34375 -17.382812 36.328125 -17.359375 36.320312 -17.339844 L 37.984375 -16.507812 L 36.28125 -17.261719 C 36.464844 -17.675781 36.6875 -18.058594 36.945312 -18.410156 L 36.984375 -18.464844 L 37.03125 -18.519531 C 37.820312 -19.4375 38.484375 -20.433594 39.023438 -21.507812 C 39.601562 -22.671875 40.132812 -23.863281 40.613281 -25.089844 L 40.632812 -25.136719 L 40.652344 -25.179688 C 40.890625 -25.699219 41.117188 -26.21875 41.335938 -26.738281 C 45.640625 -36.445312 49.882812 -46.167969 54.066406 -55.90625 C 55.945312 -60.078125 57.390625 -64.367188 58.398438 -68.773438 L 58.402344 -68.796875 L 58.410156 -68.820312 C 58.769531 -70.222656 58.859375 -71.621094 58.679688 -73.015625 L 60.527344 -73.253906 L 58.710938 -72.851562 C 58.699219 -72.90625 58.6875 -72.941406 58.679688 -72.957031 C 58.691406 -72.933594 58.710938 -72.910156 58.742188 -72.886719 C 58.761719 -72.871094 58.777344 -72.859375 58.785156 -72.859375 C 58.742188 -72.871094 58.675781 -72.882812 58.589844 -72.882812 C 57.8125 -72.914062 56.808594 -72.691406 55.582031 -72.210938 C 54.171875 -71.660156 52.703125 -70.992188 51.175781 -70.207031 C 49.632812 -69.410156 48.242188 -68.632812 47.007812 -67.875 C 45.734375 -67.09375 44.796875 -66.511719 44.191406 -66.128906 L 44.140625 -66.097656 L 44.085938 -66.070312 C 44.019531 -66.03125 43.96875 -66.003906 43.929688 -65.980469 C 43.917969 -65.972656 43.914062 -65.96875 43.910156 -65.964844 C 43.917969 -65.972656 43.933594 -65.984375 43.949219 -65.996094 L 43.882812 -65.945312 L 43.816406 -65.902344 C 27.285156 -55.621094 12.484375 -43.269531 -0.585938 -28.855469 C -2.007812 -27.289062 -3.375 -25.671875 -4.679688 -24.003906 C -5.960938 -22.363281 -7.140625 -20.628906 -8.214844 -18.808594 C -8.984375 -17.503906 -9.597656 -16.144531 -10.058594 -14.722656 L -11.828125 -15.296875 L -10.027344 -14.832031 C -10.492188 -13.023438 -10.425781 -11.726562 -9.828125 -10.945312 C -9.140625 -10.046875 -8.058594 -9.429688 -6.578125 -9.101562 C -4.820312 -8.710938 -2.902344 -8.574219 -0.820312 -8.695312 C 1.367188 -8.820312 3.425781 -9.042969 5.355469 -9.363281 C 7.277344 -9.683594 8.75 -9.992188 9.777344 -10.292969 L 9.855469 -10.316406 C 11.179688 -10.644531 12.511719 -10.953125 13.855469 -11.246094 L 13.882812 -11.253906 L 13.914062 -11.261719 C 14.25 -11.324219 14.535156 -11.363281 14.773438 -11.386719 C 15.152344 -11.421875 15.480469 -11.410156 15.757812 -11.347656 C 16.226562 -11.238281 16.605469 -11 16.890625 -10.632812 C 17.136719 -10.316406 17.269531 -9.957031 17.289062 -9.554688 C 17.304688 -9.253906 17.25 -8.964844 17.128906 -8.683594 C 16.96875 -8.3125 16.683594 -7.980469 16.277344 -7.691406 C 15.644531 -7.242188 14.417969 -6.679688 12.601562 -6 C 10.875 -5.355469 8.808594 -4.726562 6.40625 -4.121094 C 3.984375 -3.507812 1.480469 -3.074219 -1.097656 -2.8125 C -3.75 -2.546875 -6.246094 -2.605469 -8.589844 -2.988281 C -11.140625 -3.402344 -13.238281 -4.371094 -14.886719 -5.890625 C -16.652344 -7.523438 -17.554688 -9.847656 -17.59375 -12.871094 L -17.59375 -13.136719 L -17.589844 -13.183594 C -17.496094 -14.996094 -17.070312 -16.71875 -16.304688 -18.359375 L -14.617188 -17.574219 L -16.324219 -18.316406 C -15.144531 -21.03125 -13.640625 -23.550781 -11.8125 -25.875 C -9.96875 -28.277344 -8.035156 -30.605469 -6.015625 -32.851562 C 6.902344 -47.023438 21.445312 -59.253906 37.617188 -69.539062 C 39.527344 -70.765625 41.75 -72.105469 44.28125 -73.558594 C 46.875 -75.050781 49.546875 -76.300781 52.296875 -77.316406 C 55.179688 -78.378906 57.902344 -78.855469 60.460938 -78.75 C 62.210938 -78.648438 63.601562 -78.109375 64.628906 -77.128906 C 65.664062 -76.140625 66.261719 -74.789062 66.429688 -73.070312 L 64.574219 -72.890625 L 66.425781 -73.113281 C 66.554688 -72.019531 66.550781 -70.945312 66.410156 -69.898438 C 66.277344 -68.941406 66.089844 -67.984375 65.847656 -67.027344 C 65.820312 -66.917969 65.792969 -66.796875 65.761719 -66.667969 C 65.277344 -64.457031 64.648438 -62.296875 63.875 -60.191406 C 63.121094 -58.128906 62.308594 -56.089844 61.4375 -54.070312 C 54.144531 -36.734375 46.507812 -19.5625 38.53125 -2.554688 C 38.300781 -2.082031 38.089844 -1.601562 37.898438 -1.113281 L 37.886719 -1.082031 L 37.875 -1.054688 C 37.832031 -0.953125 37.800781 -0.871094 37.789062 -0.808594 C 37.785156 -0.800781 37.785156 -0.796875 37.785156 -0.789062 L 37.785156 -0.792969 C 37.785156 -0.8125 37.785156 -0.839844 37.785156 -0.867188 C 37.777344 -0.988281 37.742188 -1.109375 37.675781 -1.234375 C 37.601562 -1.378906 37.503906 -1.492188 37.378906 -1.585938 C 37.367188 -1.59375 37.355469 -1.601562 37.347656 -1.605469 C 37.347656 -1.605469 37.351562 -1.601562 37.359375 -1.597656 C 37.402344 -1.582031 37.460938 -1.566406 37.535156 -1.550781 C 37.761719 -1.5 38.0625 -1.472656 38.433594 -1.472656 C 39.398438 -1.472656 40.539062 -1.519531 41.851562 -1.613281 L 41.917969 -1.621094 L 41.984375 -1.621094 C 42.054688 -1.621094 42.125 -1.628906 42.195312 -1.644531 L 42.367188 -1.683594 L 42.546875 -1.691406 C 43.414062 -1.722656 44.296875 -1.769531 45.199219 -1.832031 C 49.308594 -2.15625 53.390625 -2.378906 57.445312 -2.492188 L 57.496094 -2.492188 C 57.515625 -2.492188 57.53125 -2.492188 57.542969 -2.492188 C 57.507812 -2.484375 57.472656 -2.46875 57.433594 -2.445312 C 57.355469 -2.398438 57.304688 -2.351562 57.285156 -2.304688 L 57.296875 -2.332031 L 57.3125 -2.359375 C 57.621094 -2.976562 57.914062 -3.605469 58.191406 -4.238281 C 63.460938 -15.828125 68.9375 -27.304688 74.617188 -38.671875 C 80.296875 -50.023438 86.050781 -61.335938 91.890625 -72.605469 L 93.542969 -71.75 L 91.839844 -72.507812 C 91.929688 -72.703125 92.027344 -72.898438 92.132812 -73.089844 L 93.761719 -72.1875 L 92.027344 -72.871094 C 92.355469 -73.695312 92.84375 -74.382812 93.503906 -74.941406 L 93.644531 -75.0625 L 93.808594 -75.152344 C 94.410156 -75.484375 95.085938 -75.648438 95.832031 -75.648438 C 96.628906 -75.648438 97.332031 -75.453125 97.9375 -75.058594 C 98.226562 -74.871094 98.46875 -74.632812 98.65625 -74.351562 C 98.84375 -74.066406 98.96875 -73.753906 99.027344 -73.410156 C 99.113281 -72.914062 99.058594 -72.390625 98.859375 -71.832031 L 97.105469 -72.453125 L 98.894531 -71.941406 C 98.832031 -71.71875 98.742188 -71.492188 98.625 -71.257812 L 96.960938 -72.089844 L 98.695312 -71.417969 C 98.210938 -70.160156 97.675781 -68.921875 97.089844 -67.699219 L 88.371094 -50.335938 L 85.296875 -44.160156 C 78.511719 -30.625 71.867188 -17.019531 65.359375 -3.34375 L 63.679688 -4.144531 L 65.382812 -3.398438 C 65.253906 -3.097656 65.109375 -2.800781 64.957031 -2.515625 L 63.316406 -3.394531 L 64.980469 -2.5625 C 64.855469 -2.3125 64.746094 -2.070312 64.648438 -1.835938 L 64.636719 -1.804688 L 64.625 -1.777344 C 64.5625 -1.644531 64.519531 -1.53125 64.492188 -1.4375 C 64.484375 -1.410156 64.480469 -1.390625 64.476562 -1.375 C 64.476562 -1.378906 64.476562 -1.390625 64.476562 -1.40625 C 64.484375 -1.53125 64.457031 -1.664062 64.402344 -1.808594 C 64.308594 -2.042969 64.164062 -2.234375 63.960938 -2.382812 C 63.910156 -2.421875 63.859375 -2.449219 63.808594 -2.46875 C 63.800781 -2.472656 63.792969 -2.472656 63.785156 -2.476562 C 63.789062 -2.476562 63.796875 -2.472656 63.804688 -2.472656 C 63.910156 -2.457031 64.070312 -2.457031 64.277344 -2.480469 L 64.328125 -2.488281 L 64.378906 -2.488281 C 72.21875 -2.914062 80.210938 -3.003906 88.347656 -2.769531 C 96.453125 -2.535156 104.492188 -2.207031 112.476562 -1.785156 L 119.765625 -1.421875 L 119.675781 0.4375 L 119.675781 -1.425781 L 119.941406 -1.425781 C 120.375 -1.425781 120.804688 -1.386719 121.226562 -1.3125 C 121.855469 -1.199219 122.425781 -0.9375 122.933594 -0.523438 L 121.757812 0.921875 Z M 120.925781 2.585938 L 120.742188 2.496094 L 120.585938 2.367188 C 120.574219 2.359375 120.566406 2.351562 120.566406 2.351562 C 120.566406 2.351562 120.570312 2.351562 120.570312 2.355469 C 120.363281 2.316406 120.152344 2.296875 119.941406 2.296875 L 119.628906 2.296875 L 112.28125 1.933594 C 104.328125 1.511719 96.3125 1.1875 88.242188 0.953125 C 80.203125 0.71875 72.316406 0.8125 64.578125 1.230469 L 64.480469 -0.628906 L 64.679688 1.21875 C 63.457031 1.355469 62.476562 1.152344 61.75 0.613281 C 61.375 0.339844 61.105469 -0.015625 60.933594 -0.449219 C 60.800781 -0.796875 60.742188 -1.167969 60.757812 -1.570312 C 60.78125 -2.085938 60.9375 -2.667969 61.230469 -3.3125 L 62.925781 -2.546875 L 61.207031 -3.253906 C 61.335938 -3.570312 61.484375 -3.894531 61.648438 -4.226562 L 61.660156 -4.25 L 61.671875 -4.269531 C 61.78125 -4.46875 61.878906 -4.675781 61.972656 -4.890625 L 61.996094 -4.945312 C 68.515625 -18.644531 75.171875 -32.269531 81.960938 -45.820312 L 85.042969 -52.007812 L 93.730469 -69.308594 C 94.273438 -70.445312 94.773438 -71.59375 95.222656 -72.761719 L 95.257812 -72.84375 L 95.296875 -72.921875 C 95.304688 -72.941406 95.3125 -72.957031 95.316406 -72.96875 L 95.316406 -72.964844 L 95.332031 -73.023438 L 95.351562 -73.078125 C 95.355469 -73.085938 95.355469 -73.09375 95.359375 -73.09375 C 95.355469 -73.085938 95.351562 -73.070312 95.351562 -73.054688 C 95.339844 -72.96875 95.34375 -72.875 95.359375 -72.769531 C 95.390625 -72.601562 95.453125 -72.441406 95.554688 -72.292969 C 95.652344 -72.144531 95.769531 -72.027344 95.910156 -71.933594 C 95.925781 -71.925781 95.9375 -71.917969 95.949219 -71.914062 C 95.921875 -71.921875 95.886719 -71.925781 95.832031 -71.925781 C 95.722656 -71.925781 95.648438 -71.914062 95.605469 -71.890625 L 94.707031 -73.519531 L 95.910156 -72.097656 C 95.726562 -71.945312 95.589844 -71.746094 95.492188 -71.503906 L 95.449219 -71.390625 L 95.386719 -71.28125 C 95.335938 -71.1875 95.285156 -71.089844 95.242188 -70.996094 L 95.222656 -70.945312 L 95.195312 -70.894531 C 89.367188 -59.640625 83.617188 -48.34375 77.949219 -37.007812 C 72.285156 -25.683594 66.839844 -14.261719 61.601562 -2.742188 C 61.296875 -2.050781 60.980469 -1.367188 60.640625 -0.695312 L 58.976562 -1.527344 L 60.667969 -0.75 C 60.371094 -0.105469 59.9375 0.390625 59.367188 0.738281 C 58.824219 1.066406 58.199219 1.230469 57.496094 1.230469 L 57.496094 -0.628906 L 57.550781 1.230469 C 53.558594 1.34375 49.527344 1.558594 45.460938 1.882812 C 44.515625 1.949219 43.589844 1.996094 42.683594 2.03125 L 42.613281 0.167969 L 43.03125 1.984375 C 42.683594 2.0625 42.335938 2.105469 41.984375 2.105469 L 41.984375 0.242188 L 42.117188 2.097656 C 40.714844 2.199219 39.488281 2.25 38.433594 2.25 C 37.015625 2.25 35.929688 1.972656 35.171875 1.414062 C 34.835938 1.167969 34.570312 0.859375 34.378906 0.496094 C 34.199219 0.152344 34.09375 -0.222656 34.070312 -0.628906 C 34.03125 -1.210938 34.160156 -1.84375 34.457031 -2.53125 L 36.167969 -1.792969 L 34.433594 -2.476562 C 34.660156 -3.054688 34.902344 -3.605469 35.160156 -4.136719 C 43.117188 -21.097656 50.734375 -38.234375 58.019531 -55.542969 C 58.859375 -57.5 59.648438 -59.476562 60.378906 -61.472656 C 61.09375 -63.421875 61.675781 -65.421875 62.128906 -67.476562 C 62.164062 -67.636719 62.199219 -67.792969 62.238281 -67.945312 C 62.449219 -68.765625 62.609375 -69.582031 62.71875 -70.402344 C 62.820312 -71.132812 62.820312 -71.886719 62.726562 -72.667969 L 62.726562 -72.691406 L 62.722656 -72.710938 C 62.644531 -73.511719 62.425781 -74.085938 62.0625 -74.433594 C 61.691406 -74.785156 61.105469 -74.984375 60.304688 -75.03125 C 58.242188 -75.117188 56.003906 -74.714844 53.585938 -73.820312 C 51.03125 -72.878906 48.550781 -71.714844 46.136719 -70.332031 C 43.65625 -68.90625 41.484375 -67.597656 39.613281 -66.398438 C 23.722656 -56.289062 9.4375 -44.28125 -3.246094 -30.367188 C -5.199219 -28.1875 -7.082031 -25.921875 -8.886719 -23.574219 C -10.515625 -21.503906 -11.859375 -19.253906 -12.910156 -16.832031 L -12.917969 -16.808594 L -12.929688 -16.789062 C -13.488281 -15.585938 -13.804688 -14.320312 -13.871094 -12.992188 L -15.730469 -13.089844 L -13.871094 -13.089844 L -13.871094 -12.921875 C -13.84375 -10.964844 -13.339844 -9.535156 -12.359375 -8.628906 C -11.261719 -7.613281 -9.804688 -6.957031 -7.992188 -6.660156 C -5.96875 -6.332031 -3.796875 -6.285156 -1.472656 -6.519531 C 0.925781 -6.761719 3.25 -7.164062 5.496094 -7.730469 C 7.765625 -8.304688 9.699219 -8.890625 11.296875 -9.488281 C 12.8125 -10.054688 13.753906 -10.46875 14.121094 -10.730469 C 14.109375 -10.722656 14.089844 -10.703125 14.058594 -10.675781 C 13.917969 -10.539062 13.800781 -10.367188 13.714844 -10.164062 C 13.605469 -9.914062 13.554688 -9.644531 13.570312 -9.367188 C 13.589844 -8.988281 13.714844 -8.652344 13.945312 -8.351562 C 14.203125 -8.019531 14.527344 -7.808594 14.917969 -7.71875 C 15.015625 -7.695312 15.101562 -7.683594 15.175781 -7.683594 C 15.160156 -7.683594 15.144531 -7.683594 15.125 -7.679688 C 15 -7.667969 14.820312 -7.640625 14.59375 -7.597656 L 14.253906 -9.429688 L 14.652344 -7.609375 C 13.34375 -7.324219 12.042969 -7.019531 10.75 -6.699219 L 10.300781 -8.507812 L 10.828125 -6.722656 C 9.65625 -6.378906 8.035156 -6.035156 5.964844 -5.691406 C 3.902344 -5.347656 1.710938 -5.109375 -0.609375 -4.976562 C -3.035156 -4.839844 -5.292969 -5 -7.386719 -5.46875 C -9.75 -5.992188 -11.550781 -7.066406 -12.789062 -8.6875 C -14.113281 -10.425781 -14.394531 -12.785156 -13.632812 -15.757812 L -13.601562 -15.867188 C -13.058594 -17.550781 -12.332031 -19.160156 -11.421875 -20.703125 C -10.265625 -22.664062 -8.996094 -24.527344 -7.613281 -26.296875 C -6.25 -28.039062 -4.828125 -29.722656 -3.34375 -31.355469 C 9.960938 -46.03125 25.023438 -58.597656 41.847656 -69.066406 L 42.832031 -67.484375 L 41.714844 -68.972656 C 41.851562 -69.078125 42.046875 -69.199219 42.304688 -69.335938 L 43.195312 -67.703125 L 42.203125 -69.277344 C 42.824219 -69.667969 43.773438 -70.257812 45.058594 -71.046875 C 46.375 -71.855469 47.84375 -72.675781 49.46875 -73.515625 C 51.109375 -74.359375 52.695312 -75.082031 54.226562 -75.679688 C 55.9375 -76.347656 57.441406 -76.65625 58.734375 -76.605469 C 59.660156 -76.570312 60.4375 -76.300781 61.066406 -75.796875 C 61.71875 -75.273438 62.144531 -74.558594 62.347656 -73.65625 L 62.363281 -73.574219 L 62.375 -73.492188 C 62.613281 -71.621094 62.496094 -69.757812 62.015625 -67.894531 L 60.210938 -68.355469 L 62.027344 -67.941406 C 60.964844 -63.296875 59.453125 -58.792969 57.488281 -54.4375 C 53.300781 -44.683594 49.058594 -34.96875 44.765625 -25.28125 C 44.53125 -24.734375 44.292969 -24.1875 44.042969 -23.640625 L 42.347656 -24.410156 L 44.082031 -23.730469 C 43.558594 -22.402344 42.984375 -21.105469 42.351562 -19.84375 C 41.675781 -18.496094 40.847656 -17.246094 39.855469 -16.09375 L 38.445312 -17.308594 L 39.945312 -16.207031 C 39.847656 -16.070312 39.761719 -15.921875 39.6875 -15.75 L 39.667969 -15.710938 L 39.648438 -15.675781 C 39.542969 -15.460938 39.414062 -15.261719 39.269531 -15.078125 L 37.816406 -16.242188 L 39.460938 -15.371094 C 38.996094 -14.492188 38.539062 -13.609375 38.09375 -12.730469 L 38.074219 -12.699219 L 38.058594 -12.667969 C 36.738281 -10.300781 35.445312 -7.929688 34.175781 -5.554688 C 33.121094 -3.550781 32.105469 -1.558594 31.136719 0.425781 C 30.753906 1.25 30.210938 1.886719 29.511719 2.339844 C 28.820312 2.785156 28.019531 3.023438 27.105469 3.046875 L 27.050781 1.1875 L 27.246094 3.039062 C 23.894531 3.390625 20.535156 3.816406 17.160156 4.316406 C 14.332031 4.6875 11.558594 5.355469 8.835938 6.3125 L 8.21875 4.558594 L 9.140625 6.171875 C 9.304688 6.078125 9.425781 5.96875 9.503906 5.84375 C 9.484375 5.871094 9.472656 5.890625 9.46875 5.90625 C 9.476562 5.886719 9.488281 5.859375 9.5 5.824219 L 7.734375 5.234375 L 9.59375 5.234375 C 9.59375 5.03125 9.546875 4.835938 9.453125 4.644531 C 9.363281 4.464844 9.242188 4.320312 9.09375 4.203125 C 8.902344 4.054688 8.667969 3.980469 8.386719 3.980469 L 8.386719 5.84375 L 8.0625 4.007812 L 9.160156 3.816406 L 9.757812 4.171875 C 9.542969 4.042969 9.296875 3.980469 9.015625 3.980469 C 8.796875 3.980469 8.582031 4.023438 8.375 4.113281 C 8.183594 4.195312 8.015625 4.308594 7.871094 4.453125 L 8.414062 3.90625 L 9.1875 3.90625 C 9.816406 3.90625 10.429688 3.835938 11.03125 3.691406 L 11.464844 5.503906 L 10.960938 3.710938 C 11.761719 3.484375 13.394531 3.152344 15.851562 2.710938 C 18.304688 2.273438 20.695312 1.949219 23.027344 1.734375 L 23.113281 1.726562 L 23.367188 1.726562 L 23.367188 3.585938 L 23.160156 1.738281 C 24.621094 1.574219 25.761719 1.546875 26.589844 1.65625 C 26.996094 1.710938 27.359375 1.824219 27.675781 2.003906 C 28.125 2.253906 28.460938 2.605469 28.679688 3.058594 C 29.015625 3.753906 29.007812 4.539062 28.652344 5.40625 L 28.632812 5.453125 L 25.410156 12.246094 C 22.410156 18.523438 19.640625 24.910156 17.101562 31.414062 L 17.089844 31.445312 L 17.074219 31.480469 C 16.800781 32.109375 16.589844 32.777344 16.4375 33.480469 L 14.617188 33.085938 L 16.472656 33.230469 C 16.492188 32.976562 16.417969 32.738281 16.253906 32.515625 C 16.191406 32.433594 16.121094 32.363281 16.046875 32.3125 C 16.019531 32.292969 16 32.28125 15.988281 32.277344 C 16.152344 32.339844 16.390625 32.34375 16.707031 32.285156 C 16.878906 32.253906 17.015625 32.171875 17.109375 32.042969 L 18.617188 33.136719 L 17.054688 32.125 C 17.398438 31.59375 17.714844 31.027344 18.003906 30.421875 L 18.019531 30.382812 L 19.726562 27.164062 C 21.257812 24.210938 22.769531 21.265625 24.253906 18.328125 C 26.78125 13.371094 29.210938 8.375 31.542969 3.339844 L 33.234375 4.121094 L 31.523438 3.386719 C 31.929688 2.433594 32.519531 1.691406 33.289062 1.171875 C 34.058594 0.644531 34.964844 0.371094 36 0.34375 L 36.046875 2.207031 L 35.949219 0.347656 L 43.027344 -0.015625 C 47.527344 -0.308594 52.054688 -0.511719 56.601562 -0.625 L 56.746094 -0.628906 L 56.886719 -0.609375 C 57.296875 -0.558594 57.664062 -0.4375 57.984375 -0.246094 C 58.425781 0.0117188 58.746094 0.371094 58.953125 0.832031 C 59.253906 1.5 59.242188 2.257812 58.917969 3.09375 L 58.898438 3.148438 L 58.871094 3.203125 C 58.585938 3.828125 58.296875 4.460938 58.007812 5.101562 L 56.308594 4.339844 L 58.039062 5.03125 C 57.90625 5.359375 57.785156 5.664062 57.667969 5.945312 L 57.65625 5.96875 L 55.203125 11.488281 L 44.886719 34.886719 C 44.519531 35.679688 44.183594 36.496094 43.878906 37.335938 L 42.128906 36.699219 L 43.925781 37.191406 C 43.921875 37.199219 43.921875 37.203125 43.921875 37.207031 C 43.921875 37.199219 43.925781 37.183594 43.925781 37.167969 C 43.929688 37.09375 43.917969 37.007812 43.894531 36.917969 C 43.824219 36.632812 43.667969 36.414062 43.425781 36.261719 C 43.410156 36.25 43.394531 36.242188 43.378906 36.238281 C 43.390625 36.242188 43.417969 36.242188 43.457031 36.238281 C 43.519531 36.234375 43.5625 36.226562 43.589844 36.214844 C 43.582031 36.21875 43.570312 36.226562 43.554688 36.238281 L 44.746094 37.667969 L 43.246094 36.566406 C 43.269531 36.535156 43.285156 36.5 43.292969 36.464844 L 43.375 36.09375 L 43.597656 35.789062 C 43.570312 35.824219 43.542969 35.886719 43.515625 35.964844 L 43.554688 35.855469 C 43.984375 34.796875 44.4375 33.738281 44.917969 32.683594 L 46.613281 33.453125 L 44.898438 32.726562 C 45.792969 30.613281 46.707031 28.519531 47.636719 26.449219 L 51.492188 18.007812 C 53.863281 12.863281 56.1875 7.695312 58.46875 2.503906 C 59.011719 1.304688 59.71875 0.433594 60.59375 -0.105469 C 61.441406 -0.628906 62.484375 -0.890625 63.726562 -0.890625 L 68.035156 -0.890625 C 76.902344 -0.925781 85.695312 -0.886719 94.414062 -0.78125 C 103.152344 -0.675781 112.019531 -0.375 121.015625 0.128906 L 120.910156 1.988281 L 120.910156 0.125 C 120.648438 0.125 120.421875 0.175781 120.222656 0.273438 L 120.703125 0.0351562 L 121.726562 0.136719 L 121.539062 1.988281 L 121.539062 0.125 C 121.171875 0.125 120.859375 0.253906 120.601562 0.515625 C 120.460938 0.652344 120.355469 0.8125 120.289062 0.996094 C 120.238281 1.136719 120.210938 1.273438 120.210938 1.40625 C 120.210938 1.734375 120.316406 2.027344 120.523438 2.28125 C 120.617188 2.398438 120.753906 2.5 120.925781 2.585938 Z M 120.925781 2.585938 "/></g></g></g><g fill="#801700" fill-opacity="1"><g transform="translate(96.202225, 97.907552)"><g><path d="M 68.699219 4.597656 C 69.035156 4.898438 69.292969 5.234375 69.464844 5.605469 C 69.675781 6.058594 69.753906 6.53125 69.699219 7.023438 C 69.636719 7.59375 69.464844 8.117188 69.179688 8.59375 L 67.582031 7.636719 L 69.441406 7.636719 L 69.441406 8.085938 L 69.296875 8.433594 C 68.105469 11.246094 66.296875 13.378906 63.871094 14.832031 C 61.460938 16.277344 58.59375 16.882812 55.28125 16.644531 L 55.257812 16.640625 L 55.230469 16.640625 C 51.957031 16.320312 49.363281 15.148438 47.445312 13.121094 C 45.546875 11.117188 44.457031 8.476562 44.175781 5.199219 C 44.050781 3.65625 44.109375 2.125 44.351562 0.605469 C 44.578125 -0.8125 44.855469 -2.230469 45.191406 -3.648438 L 45.828125 -6.261719 L 45.835938 -6.285156 C 46.210938 -7.664062 46.542969 -9.0625 46.824219 -10.472656 C 46.992188 -11.386719 47.03125 -12.136719 46.941406 -12.722656 C 46.882812 -13.105469 46.777344 -13.375 46.617188 -13.53125 C 46.058594 -14.082031 45.191406 -14.375 44.015625 -14.417969 C 42.464844 -14.46875 40.890625 -14.390625 39.296875 -14.175781 L 39.265625 -14.171875 L 39.234375 -14.171875 C 38.230469 -14.070312 37.304688 -14.003906 36.457031 -13.96875 L 36.382812 -13.96875 C 36.4375 -13.96875 36.5 -13.980469 36.578125 -14.007812 C 36.714844 -14.058594 36.839844 -14.136719 36.949219 -14.246094 C 36.867188 -14.164062 36.789062 -14.0625 36.714844 -13.949219 L 35.148438 -14.957031 L 36.769531 -14.042969 C 35.925781 -12.542969 35.105469 -11.019531 34.304688 -9.472656 C 26.726562 4.8125 18.515625 18.714844 9.679688 32.238281 C 8.304688 34.320312 6.878906 36.375 5.410156 38.398438 L 3.902344 37.304688 L 5.453125 38.339844 C 5.050781 38.941406 4.59375 39.480469 4.085938 39.957031 C 3.472656 40.535156 2.734375 40.957031 1.878906 41.21875 C 0.214844 41.699219 -1.171875 41.539062 -2.28125 40.746094 C -2.90625 40.300781 -3.355469 39.699219 -3.632812 38.945312 C -3.859375 38.320312 -3.957031 37.601562 -3.921875 36.789062 C -3.847656 35.355469 -3.636719 33.917969 -3.289062 32.476562 C -1.328125 24.296875 1.207031 17.277344 4.320312 11.417969 C 7.433594 5.550781 11.195312 0.25 15.605469 -4.492188 C 19.957031 -9.171875 24.972656 -13.886719 30.65625 -18.640625 C 31.359375 -19.203125 31.917969 -19.882812 32.332031 -20.683594 L 34.566406 -24.957031 C 37.308594 -30.230469 40.007812 -35.523438 42.671875 -40.832031 C 45.324219 -46.117188 47.828125 -51.46875 50.191406 -56.882812 C 52.4375 -62.089844 53.59375 -65.917969 53.660156 -68.371094 C 53.683594 -69.230469 53.542969 -69.835938 53.242188 -70.179688 C 52.960938 -70.5 52.441406 -70.683594 51.679688 -70.730469 C 50.589844 -70.792969 49.128906 -70.59375 47.296875 -70.132812 C 45.359375 -69.640625 43.050781 -68.859375 40.371094 -67.792969 C 35.03125 -65.648438 29.800781 -63.257812 24.679688 -60.617188 C 19.546875 -57.96875 14.484375 -55.144531 9.492188 -52.144531 C 7.632812 -51.054688 5.339844 -49.609375 2.613281 -47.8125 C -0.101562 -46.019531 -2.78125 -44.09375 -5.425781 -42.03125 C -8.011719 -40.011719 -10.140625 -38.046875 -11.808594 -36.132812 C -12.269531 -35.582031 -12.542969 -35.167969 -12.628906 -34.890625 C -12.632812 -34.882812 -12.632812 -34.878906 -12.632812 -34.878906 C -12.628906 -34.886719 -12.628906 -34.898438 -12.628906 -34.910156 C -12.621094 -34.976562 -12.628906 -35.046875 -12.644531 -35.121094 C -12.6875 -35.339844 -12.789062 -35.523438 -12.953125 -35.664062 C -12.929688 -35.640625 -12.878906 -35.613281 -12.804688 -35.582031 C -12.667969 -35.519531 -12.496094 -35.460938 -12.285156 -35.410156 C -11.765625 -35.28125 -11.085938 -35.203125 -10.25 -35.167969 C -9.363281 -35.136719 -7.820312 -35.128906 -5.625 -35.144531 C -3.445312 -35.160156 -1.011719 -35.269531 1.675781 -35.476562 L 6.160156 -35.816406 C 8.367188 -36.027344 10.265625 -36.171875 11.863281 -36.246094 C 12.738281 -36.285156 13.453125 -36.277344 14.007812 -36.222656 C 14.351562 -36.1875 14.65625 -36.132812 14.914062 -36.058594 C 15.339844 -35.9375 15.691406 -35.75 15.976562 -35.496094 L 16.332031 -35.179688 L 16.492188 -34.726562 C 16.609375 -34.398438 16.636719 -34.0625 16.574219 -33.71875 C 16.519531 -33.433594 16.410156 -33.171875 16.242188 -32.929688 C 16.0625 -32.675781 15.824219 -32.460938 15.53125 -32.289062 C 15.269531 -32.136719 14.925781 -32 14.5 -31.878906 C 13.882812 -31.703125 12.964844 -31.523438 11.753906 -31.34375 C 9.445312 -31 6.605469 -30.683594 3.234375 -30.398438 C -0.132812 -30.109375 -3.402344 -29.9375 -6.570312 -29.882812 C -9.820312 -29.824219 -12.308594 -29.949219 -14.027344 -30.261719 L -14.054688 -30.265625 L -14.082031 -30.273438 C -15.796875 -30.636719 -17.09375 -31.195312 -17.972656 -31.941406 C -18.53125 -32.421875 -18.933594 -32.972656 -19.175781 -33.601562 C -19.425781 -34.246094 -19.492188 -34.933594 -19.375 -35.65625 C -19.207031 -36.734375 -18.699219 -37.871094 -17.855469 -39.0625 C -17.101562 -40.128906 -16.058594 -41.265625 -14.730469 -42.476562 C -12.203125 -44.777344 -9.003906 -47.214844 -5.125 -49.789062 C -1.296875 -52.332031 2.8125 -54.867188 7.203125 -57.402344 C 11.578125 -59.925781 15.8125 -62.269531 19.90625 -64.429688 C 23.996094 -66.589844 27.527344 -68.382812 30.496094 -69.816406 C 33.480469 -71.253906 35.511719 -72.191406 36.582031 -72.628906 C 40.929688 -74.386719 44.773438 -75.582031 48.113281 -76.210938 C 51.746094 -76.894531 54.660156 -76.675781 56.855469 -75.554688 C 58.132812 -74.898438 59.09375 -73.914062 59.734375 -72.597656 C 60.3125 -71.402344 60.609375 -69.949219 60.621094 -68.246094 C 60.636719 -65.148438 59.515625 -60.890625 57.253906 -55.472656 C 55.492188 -51.3125 53.617188 -47.199219 51.632812 -43.132812 C 49.65625 -39.082031 47.648438 -35.050781 45.605469 -31.03125 L 43.210938 -26.285156 C 42.75 -25.382812 42.25 -24.425781 41.710938 -23.414062 L 40.070312 -24.289062 L 39.628906 -26.097656 C 40.03125 -26.195312 40.332031 -26.308594 40.53125 -26.433594 C 40.832031 -26.625 41.097656 -26.8125 41.324219 -27.003906 L 41.347656 -27.023438 L 41.375 -27.042969 C 41.597656 -27.21875 41.84375 -27.378906 42.109375 -27.523438 L 43.003906 -25.886719 L 41.902344 -27.390625 C 49.050781 -32.621094 56.851562 -37.886719 65.308594 -43.1875 C 73.78125 -48.496094 82.6875 -53.449219 92.03125 -58.042969 C 101.402344 -62.648438 110.984375 -66.476562 120.78125 -69.527344 C 130.621094 -72.59375 140.449219 -74.484375 150.261719 -75.207031 C 160.140625 -75.933594 169.78125 -75.066406 179.195312 -72.605469 L 179.253906 -72.589844 L 179.3125 -72.570312 C 179.789062 -72.414062 180.195312 -72.097656 180.535156 -71.628906 C 180.875 -71.15625 181.046875 -70.648438 181.046875 -70.101562 C 181.046875 -69.722656 180.96875 -69.371094 180.816406 -69.039062 C 180.652344 -68.6875 180.417969 -68.390625 180.105469 -68.144531 C 179.613281 -67.757812 179.023438 -67.5625 178.335938 -67.5625 L 178.335938 -69.425781 L 178.824219 -67.628906 C 178.253906 -67.472656 177.675781 -67.507812 177.085938 -67.734375 L 177.753906 -69.472656 L 177.285156 -67.671875 C 169.796875 -69.609375 162.035156 -70.355469 153.992188 -69.90625 C 145.890625 -69.449219 137.671875 -68.085938 129.339844 -65.808594 C 120.964844 -63.523438 112.671875 -60.582031 104.457031 -56.992188 C 96.214844 -53.390625 88.234375 -49.417969 80.515625 -45.074219 C 72.785156 -40.730469 65.519531 -36.273438 58.714844 -31.710938 C 51.90625 -27.144531 45.742188 -22.753906 40.230469 -18.542969 L 39.097656 -20.023438 L 40.414062 -18.707031 L 40.21875 -18.511719 L 40.042969 -18.398438 C 39.703125 -18.183594 39.378906 -17.9375 39.074219 -17.65625 C 39.03125 -17.617188 38.996094 -17.585938 38.976562 -17.558594 L 38.972656 -17.554688 C 38.980469 -17.566406 38.988281 -17.578125 38.996094 -17.59375 C 39.121094 -17.808594 39.164062 -18.0625 39.128906 -18.359375 C 39.097656 -18.597656 39.015625 -18.820312 38.886719 -19.023438 C 38.785156 -19.191406 38.65625 -19.328125 38.503906 -19.445312 C 38.359375 -19.554688 38.21875 -19.625 38.082031 -19.65625 C 38.074219 -19.660156 38.070312 -19.660156 38.066406 -19.660156 C 38.066406 -19.660156 38.070312 -19.660156 38.074219 -19.660156 C 38.097656 -19.65625 38.125 -19.65625 38.160156 -19.652344 C 38.261719 -19.648438 38.390625 -19.648438 38.542969 -19.652344 L 39.367188 -19.652344 L 39.367188 -17.792969 L 39.195312 -19.644531 C 40.839844 -19.796875 42.5625 -19.84375 44.359375 -19.785156 C 46.285156 -19.722656 48.054688 -19.390625 49.667969 -18.785156 L 49.695312 -18.773438 L 49.726562 -18.761719 C 51.105469 -18.191406 52.15625 -17.367188 52.882812 -16.296875 C 53.613281 -15.21875 53.976562 -13.9375 53.976562 -12.460938 L 53.976562 -12.402344 C 53.941406 -11.246094 53.796875 -10.117188 53.542969 -9.011719 C 53.1875 -7.367188 52.816406 -5.722656 52.425781 -4.078125 L 51.269531 1.265625 C 50.867188 3.097656 50.929688 4.925781 51.457031 6.757812 L 49.667969 7.273438 L 51.4375 6.699219 C 51.921875 8.183594 52.65625 9.320312 53.640625 10.105469 C 54.59375 10.867188 55.683594 11.265625 56.910156 11.300781 C 58.160156 11.339844 59.441406 10.929688 60.746094 10.078125 C 61.707031 9.433594 62.488281 8.597656 63.089844 7.570312 L 64.695312 8.507812 L 63.03125 7.675781 L 63.46875 6.804688 L 65.132812 7.636719 L 63.378906 7.015625 C 63.511719 6.640625 63.675781 6.277344 63.875 5.921875 L 63.929688 5.828125 C 64.425781 5.058594 65.03125 4.519531 65.75 4.207031 C 66.214844 4.003906 66.683594 3.921875 67.152344 3.957031 C 67.679688 3.996094 68.160156 4.179688 68.589844 4.507812 L 68.644531 4.550781 Z M 66.222656 7.378906 L 67.460938 5.988281 L 66.328125 7.464844 C 66.484375 7.585938 66.667969 7.652344 66.871094 7.667969 C 67.015625 7.679688 67.136719 7.664062 67.234375 7.621094 C 67.242188 7.617188 67.25 7.613281 67.253906 7.613281 C 67.246094 7.617188 67.238281 7.621094 67.230469 7.632812 C 67.179688 7.679688 67.125 7.75 67.0625 7.84375 L 65.496094 6.835938 L 67.121094 7.75 C 67.027344 7.914062 66.949219 8.082031 66.890625 8.253906 L 66.851562 8.363281 L 66.335938 9.394531 L 66.304688 9.445312 C 65.417969 10.96875 64.242188 12.21875 62.78125 13.195312 C 60.824219 14.472656 58.828125 15.082031 56.800781 15.023438 C 54.746094 14.960938 52.917969 14.292969 51.320312 13.019531 C 49.75 11.765625 48.609375 10.042969 47.898438 7.847656 L 47.886719 7.816406 L 47.878906 7.785156 C 47.179688 5.351562 47.09375 2.914062 47.628906 0.480469 L 48.800781 -4.9375 C 49.1875 -6.558594 49.558594 -8.195312 49.914062 -9.847656 C 50.113281 -10.714844 50.226562 -11.605469 50.253906 -12.519531 L 52.117188 -12.460938 L 50.253906 -12.460938 C 50.253906 -13.175781 50.101562 -13.761719 49.800781 -14.210938 C 49.492188 -14.664062 48.992188 -15.035156 48.300781 -15.320312 L 49.015625 -17.039062 L 48.359375 -15.296875 C 47.128906 -15.757812 45.753906 -16.015625 44.238281 -16.066406 C 42.59375 -16.117188 41.027344 -16.078125 39.539062 -15.9375 L 39.453125 -15.929688 L 38.613281 -15.929688 L 38.613281 -17.792969 L 38.683594 -15.933594 C 38.082031 -15.910156 37.585938 -15.945312 37.195312 -16.042969 C 36.835938 -16.128906 36.523438 -16.273438 36.261719 -16.472656 C 36.050781 -16.632812 35.875 -16.820312 35.738281 -17.039062 C 35.574219 -17.300781 35.472656 -17.578125 35.433594 -17.882812 C 35.320312 -18.769531 35.695312 -19.609375 36.558594 -20.402344 C 37.027344 -20.832031 37.527344 -21.214844 38.058594 -21.550781 L 39.050781 -19.972656 L 37.734375 -21.289062 L 37.871094 -21.425781 L 37.96875 -21.5 C 43.542969 -25.757812 49.765625 -30.191406 56.644531 -34.804688 C 63.527344 -39.421875 70.875 -43.925781 78.691406 -48.320312 C 86.519531 -52.722656 94.609375 -56.75 102.964844 -60.402344 C 111.347656 -64.066406 119.8125 -67.066406 128.359375 -69.402344 C 136.945312 -71.746094 145.421875 -73.152344 153.785156 -73.621094 C 162.210938 -74.09375 170.355469 -73.3125 178.21875 -71.273438 L 178.324219 -71.246094 L 178.421875 -71.210938 C 178.253906 -71.273438 178.058594 -71.277344 177.84375 -71.21875 L 178.085938 -71.285156 L 178.335938 -71.285156 C 178.285156 -71.285156 178.226562 -71.277344 178.160156 -71.253906 C 178.03125 -71.21875 177.910156 -71.15625 177.800781 -71.066406 C 177.644531 -70.945312 177.523438 -70.789062 177.4375 -70.605469 C 177.359375 -70.4375 177.320312 -70.269531 177.320312 -70.101562 C 177.320312 -69.847656 177.386719 -69.628906 177.515625 -69.449219 C 177.546875 -69.410156 177.585938 -69.363281 177.640625 -69.316406 C 177.78125 -69.195312 177.945312 -69.101562 178.132812 -69.039062 L 178.722656 -70.804688 L 178.253906 -69.003906 C 169.238281 -71.359375 160 -72.191406 150.535156 -71.496094 C 141.003906 -70.792969 131.457031 -68.953125 121.886719 -65.972656 C 112.277344 -62.980469 102.871094 -59.222656 93.671875 -54.699219 C 84.445312 -50.164062 75.652344 -45.273438 67.285156 -40.03125 C 58.902344 -34.777344 51.175781 -29.5625 44.101562 -24.386719 L 44 -24.3125 L 43.894531 -24.253906 C 43.804688 -24.207031 43.726562 -24.15625 43.660156 -24.105469 L 42.515625 -25.574219 L 43.710938 -24.144531 C 43.355469 -23.847656 42.957031 -23.5625 42.515625 -23.285156 C 41.972656 -22.941406 41.304688 -22.671875 40.507812 -22.480469 L 36.476562 -21.5 L 38.425781 -25.164062 C 38.953125 -26.15625 39.441406 -27.089844 39.886719 -27.964844 L 42.289062 -32.71875 C 44.320312 -36.71875 46.320312 -40.734375 48.285156 -44.765625 C 50.242188 -48.773438 52.085938 -52.820312 53.816406 -56.90625 C 55.882812 -61.859375 56.910156 -65.632812 56.898438 -68.226562 C 56.890625 -69.367188 56.71875 -70.28125 56.382812 -70.96875 C 56.105469 -71.539062 55.699219 -71.964844 55.160156 -72.238281 C 53.71875 -72.976562 51.601562 -73.078125 48.800781 -72.550781 C 45.707031 -71.96875 42.101562 -70.84375 37.980469 -69.179688 C 36.984375 -68.773438 35.027344 -67.867188 32.113281 -66.460938 C 29.1875 -65.050781 25.695312 -63.273438 21.644531 -61.136719 C 17.589844 -58.996094 13.398438 -56.675781 9.0625 -54.175781 C 4.742188 -51.683594 0.699219 -49.1875 -3.066406 -46.6875 C -6.785156 -44.21875 -9.835938 -41.898438 -12.222656 -39.722656 C -13.351562 -38.695312 -14.214844 -37.757812 -14.816406 -36.910156 C -15.324219 -36.191406 -15.617188 -35.582031 -15.699219 -35.074219 C -15.710938 -35.007812 -15.710938 -34.964844 -15.703125 -34.941406 C -15.6875 -34.898438 -15.636719 -34.847656 -15.558594 -34.777344 C -15.15625 -34.4375 -14.40625 -34.148438 -13.308594 -33.914062 L -13.695312 -32.09375 L -13.363281 -33.925781 C -11.882812 -33.65625 -9.644531 -33.550781 -6.640625 -33.605469 C -3.554688 -33.660156 -0.367188 -33.828125 2.921875 -34.105469 C 6.210938 -34.386719 8.972656 -34.691406 11.203125 -35.027344 C 12.257812 -35.183594 13.023438 -35.328125 13.488281 -35.460938 C 13.574219 -35.484375 13.640625 -35.507812 13.6875 -35.523438 C 13.699219 -35.527344 13.703125 -35.53125 13.707031 -35.53125 C 13.6875 -35.523438 13.667969 -35.511719 13.644531 -35.5 C 13.476562 -35.398438 13.324219 -35.257812 13.195312 -35.074219 C 13.050781 -34.867188 12.957031 -34.640625 12.910156 -34.390625 C 12.855469 -34.082031 12.878906 -33.78125 12.984375 -33.488281 L 14.738281 -34.105469 L 13.5 -32.714844 C 13.640625 -32.59375 13.765625 -32.515625 13.886719 -32.480469 C 13.839844 -32.492188 13.757812 -32.503906 13.636719 -32.515625 C 13.261719 -32.554688 12.730469 -32.558594 12.035156 -32.523438 C 10.5 -32.453125 8.636719 -32.3125 6.441406 -32.105469 L 1.960938 -31.765625 C -0.8125 -31.550781 -3.332031 -31.4375 -5.597656 -31.421875 C -7.847656 -31.402344 -9.449219 -31.414062 -10.40625 -31.445312 C -11.488281 -31.492188 -12.414062 -31.609375 -13.175781 -31.796875 C -14.101562 -32.023438 -14.839844 -32.371094 -15.382812 -32.839844 C -15.867188 -33.253906 -16.167969 -33.769531 -16.292969 -34.386719 C -16.394531 -34.894531 -16.359375 -35.429688 -16.1875 -35.988281 C -15.953125 -36.746094 -15.429688 -37.609375 -14.613281 -38.578125 C -12.792969 -40.671875 -10.492188 -42.800781 -7.714844 -44.96875 C -4.992188 -47.089844 -2.234375 -49.074219 0.5625 -50.917969 C 3.34375 -52.753906 5.683594 -54.226562 7.574219 -55.335938 C 12.632812 -58.378906 17.769531 -61.242188 22.976562 -63.925781 C 28.199219 -66.621094 33.539062 -69.0625 38.992188 -71.25 C 41.824219 -72.378906 44.285156 -73.210938 46.382812 -73.742188 C 48.589844 -74.296875 50.425781 -74.535156 51.902344 -74.445312 C 53.699219 -74.335938 55.082031 -73.734375 56.042969 -72.632812 C 56.988281 -71.554688 57.433594 -70.101562 57.382812 -68.269531 C 57.304688 -65.339844 56.042969 -61.050781 53.605469 -55.394531 C 51.214844 -49.917969 48.679688 -44.507812 46 -39.160156 C 43.328125 -33.835938 40.617188 -28.527344 37.863281 -23.230469 L 35.640625 -18.976562 C 34.984375 -17.707031 34.121094 -16.640625 33.046875 -15.78125 C 27.480469 -11.128906 22.578125 -6.519531 18.332031 -1.957031 C 14.144531 2.546875 10.570312 7.585938 7.605469 13.164062 C 4.644531 18.742188 2.21875 25.476562 0.328125 33.359375 C 0.0351562 34.570312 -0.140625 35.765625 -0.199219 36.949219 C -0.214844 37.269531 -0.191406 37.507812 -0.132812 37.671875 C -0.121094 37.699219 -0.113281 37.71875 -0.105469 37.730469 C -0.109375 37.726562 -0.113281 37.722656 -0.117188 37.71875 C -0.0859375 37.742188 -0.03125 37.753906 0.0507812 37.761719 C 0.246094 37.777344 0.492188 37.742188 0.789062 37.660156 C 1.09375 37.566406 1.34375 37.425781 1.535156 37.246094 C 1.835938 36.964844 2.109375 36.640625 2.355469 36.273438 L 2.394531 36.210938 C 3.835938 34.230469 5.222656 32.226562 6.5625 30.203125 C 15.339844 16.773438 23.484375 2.980469 30.996094 -11.179688 C 31.816406 -12.765625 32.660156 -14.332031 33.527344 -15.871094 L 33.582031 -15.964844 C 33.800781 -16.300781 34.042969 -16.605469 34.316406 -16.878906 C 34.859375 -17.417969 35.546875 -17.691406 36.382812 -17.691406 L 36.382812 -15.828125 L 36.308594 -17.6875 C 37.082031 -17.71875 37.933594 -17.78125 38.867188 -17.875 L 39.050781 -16.023438 L 38.804688 -17.867188 C 40.605469 -18.109375 42.382812 -18.199219 44.144531 -18.136719 C 46.285156 -18.066406 47.976562 -17.414062 49.226562 -16.1875 C 50.601562 -14.835938 51.019531 -12.6875 50.476562 -9.742188 C 50.175781 -8.246094 49.828125 -6.765625 49.429688 -5.304688 L 47.632812 -5.792969 L 49.441406 -5.351562 L 48.8125 -2.796875 C 48.5 -1.46875 48.238281 -0.140625 48.027344 1.1875 C 47.832031 2.414062 47.785156 3.648438 47.886719 4.882812 C 48.09375 7.296875 48.847656 9.1875 50.148438 10.5625 C 51.429688 11.914062 53.242188 12.703125 55.59375 12.933594 L 55.414062 14.785156 L 55.546875 12.929688 C 58.082031 13.113281 60.21875 12.679688 61.957031 11.636719 C 63.6875 10.601562 64.992188 9.050781 65.867188 6.980469 L 67.582031 7.707031 L 65.71875 7.707031 L 65.71875 7.121094 L 65.984375 6.679688 C 65.992188 6.667969 65.996094 6.652344 65.996094 6.625 C 65.976562 6.816406 66.007812 7 66.085938 7.171875 C 66.128906 7.269531 66.175781 7.335938 66.222656 7.378906 Z M 26.503906 -9.777344 C 26.578125 -9.929688 26.683594 -10.101562 26.820312 -10.292969 L 28.335938 -9.210938 L 26.695312 -10.085938 C 26.832031 -10.34375 27.003906 -10.65625 27.214844 -11.027344 C 27.355469 -11.273438 27.457031 -11.5 27.523438 -11.703125 C 27.53125 -11.722656 27.535156 -11.734375 27.535156 -11.738281 C 27.527344 -11.699219 27.519531 -11.652344 27.519531 -11.59375 C 27.511719 -11.433594 27.535156 -11.273438 27.582031 -11.109375 C 27.683594 -10.777344 27.867188 -10.503906 28.140625 -10.28125 C 28.394531 -10.070312 28.683594 -9.941406 29.011719 -9.894531 C 29.203125 -9.867188 29.390625 -9.871094 29.578125 -9.90625 C 29.71875 -9.933594 29.835938 -9.976562 29.9375 -10.03125 C 29.910156 -10.015625 29.832031 -9.957031 29.707031 -9.851562 C 22.636719 -4.296875 17.085938 1.925781 13.0625 8.816406 C 9.011719 15.746094 5.976562 23.707031 3.949219 32.695312 C 3.886719 32.984375 3.851562 33.183594 3.847656 33.296875 C 3.851562 33.238281 3.839844 33.160156 3.816406 33.0625 C 3.78125 32.917969 3.722656 32.777344 3.644531 32.640625 C 3.5 32.394531 3.300781 32.195312 3.054688 32.042969 C 2.746094 31.855469 2.410156 31.773438 2.050781 31.804688 C 1.855469 31.824219 1.675781 31.871094 1.515625 31.957031 C 1.460938 31.984375 1.417969 32.007812 1.390625 32.035156 C 1.402344 32.023438 1.425781 32 1.457031 31.96875 C 1.699219 31.71875 1.941406 31.417969 2.175781 31.066406 C 2.507812 30.574219 2.765625 30.214844 2.945312 29.992188 L 4.386719 31.171875 L 2.824219 30.160156 C 7.046875 23.636719 11.140625 17.050781 15.101562 10.402344 C 19.0625 3.761719 22.871094 -2.980469 26.523438 -9.820312 L 28.167969 -8.945312 Z M 29.832031 -8.113281 L 29.808594 -8.066406 C 26.128906 -1.171875 22.289062 5.617188 18.300781 12.308594 C 14.3125 18.996094 10.195312 25.621094 5.949219 32.183594 L 5.894531 32.269531 L 5.828125 32.351562 C 5.71875 32.484375 5.53125 32.75 5.265625 33.144531 C 4.902344 33.683594 4.523438 34.15625 4.121094 34.570312 C 3.820312 34.878906 3.519531 35.109375 3.226562 35.261719 C 2.945312 35.40625 2.660156 35.492188 2.367188 35.515625 C 1.914062 35.554688 1.496094 35.457031 1.113281 35.222656 C 0.636719 34.929688 0.332031 34.503906 0.195312 33.933594 C 0.140625 33.703125 0.117188 33.445312 0.128906 33.164062 C 0.140625 32.828125 0.203125 32.398438 0.316406 31.878906 C 2.429688 22.511719 5.605469 14.199219 9.847656 6.9375 C 14.109375 -0.359375 19.945312 -6.917969 27.355469 -12.738281 C 27.664062 -12.992188 27.9375 -13.179688 28.171875 -13.308594 C 28.402344 -13.433594 28.632812 -13.515625 28.863281 -13.5625 C 29.089844 -13.605469 29.320312 -13.613281 29.542969 -13.578125 C 29.902344 -13.527344 30.21875 -13.386719 30.496094 -13.160156 C 31.242188 -12.550781 31.433594 -11.679688 31.066406 -10.550781 C 30.921875 -10.109375 30.714844 -9.652344 30.453125 -9.1875 C 30.257812 -8.847656 30.101562 -8.5625 29.980469 -8.335938 L 29.921875 -8.226562 L 29.851562 -8.128906 C 29.832031 -8.101562 29.816406 -8.078125 29.804688 -8.058594 C 29.808594 -8.070312 29.820312 -8.085938 29.832031 -8.113281 Z M 29.832031 -8.113281 "/></g></g></g><g fill="#ff6d4d" fill-opacity="1"><g transform="translate(19.409291, 97.907552)"><g><path d="M 121.75 0.921875 C 121.8125 0.953125 121.878906 1.007812 121.953125 1.09375 C 122.023438 1.1875 122.0625 1.289062 122.0625 1.40625 C 122.0625 1.582031 122.007812 1.722656 121.90625 1.828125 C 121.800781 1.929688 121.675781 1.984375 121.53125 1.984375 L 121.046875 1.9375 C 120.984375 1.96875 120.9375 1.984375 120.90625 1.984375 C 111.9375 1.484375 103.097656 1.179688 94.390625 1.078125 C 85.679688 0.972656 76.894531 0.9375 68.03125 0.96875 C 66.582031 0.96875 65.144531 0.96875 63.71875 0.96875 C 62.832031 0.96875 62.113281 1.132812 61.5625 1.46875 C 61.007812 1.8125 60.539062 2.410156 60.15625 3.265625 C 57.882812 8.453125 55.554688 13.625 53.171875 18.78125 C 51.878906 21.59375 50.597656 24.40625 49.328125 27.21875 C 48.398438 29.269531 47.492188 31.347656 46.609375 33.453125 C 46.140625 34.484375 45.695312 35.515625 45.28125 36.546875 C 45.25 36.648438 45.191406 36.753906 45.109375 36.859375 C 45.046875 37.148438 44.925781 37.421875 44.75 37.671875 C 44.457031 37.910156 44.078125 38.050781 43.609375 38.09375 C 43.148438 38.132812 42.75 38.046875 42.40625 37.828125 C 42.070312 37.609375 41.976562 37.234375 42.125 36.703125 C 42.445312 35.804688 42.800781 34.941406 43.1875 34.109375 C 46.601562 26.316406 50.039062 18.523438 53.5 10.734375 C 54.300781 8.921875 55.113281 7.085938 55.9375 5.234375 C 56.050781 4.960938 56.175781 4.664062 56.3125 4.34375 C 56.601562 3.695312 56.890625 3.054688 57.171875 2.421875 C 57.453125 1.710938 57.273438 1.316406 56.640625 1.234375 C 52.117188 1.347656 47.617188 1.550781 43.140625 1.84375 C 40.796875 1.96875 38.429688 2.085938 36.046875 2.203125 C 34.703125 2.234375 33.765625 2.875 33.234375 4.125 C 30.890625 9.175781 28.445312 14.191406 25.90625 19.171875 C 24.425781 22.109375 22.914062 25.054688 21.375 28.015625 C 20.8125 29.085938 20.25 30.15625 19.6875 31.21875 C 19.363281 31.894531 19.003906 32.535156 18.609375 33.140625 C 18.222656 33.671875 17.695312 33.992188 17.03125 34.109375 C 16.375 34.234375 15.796875 34.195312 15.296875 34 C 14.804688 33.8125 14.578125 33.503906 14.609375 33.078125 C 14.785156 32.253906 15.039062 31.472656 15.375 30.734375 C 17.925781 24.191406 20.710938 17.757812 23.734375 11.4375 C 24.796875 9.195312 25.859375 6.953125 26.921875 4.703125 C 27.210938 3.992188 27.019531 3.59375 26.34375 3.5 C 25.664062 3.414062 24.671875 3.445312 23.359375 3.59375 C 23.328125 3.59375 23.273438 3.59375 23.203125 3.59375 C 20.921875 3.800781 18.578125 4.117188 16.171875 4.546875 C 13.773438 4.972656 12.207031 5.289062 11.46875 5.5 C 10.71875 5.675781 9.957031 5.765625 9.1875 5.765625 C 9.132812 5.816406 9.078125 5.84375 9.015625 5.84375 C 8.953125 5.84375 8.878906 5.816406 8.796875 5.765625 L 8.390625 5.84375 C 8.242188 5.84375 8.097656 5.785156 7.953125 5.671875 C 7.804688 5.554688 7.734375 5.410156 7.734375 5.234375 C 7.765625 5.140625 7.820312 5.019531 7.90625 4.875 C 8 4.726562 8.101562 4.625 8.21875 4.5625 C 11.0625 3.550781 13.960938 2.851562 16.921875 2.46875 C 20.296875 1.96875 23.671875 1.539062 27.046875 1.1875 C 28.179688 1.15625 28.984375 0.640625 29.453125 -0.359375 C 30.429688 -2.378906 31.457031 -4.398438 32.53125 -6.421875 C 33.800781 -8.816406 35.101562 -11.203125 36.4375 -13.578125 C 36.882812 -14.460938 37.34375 -15.347656 37.8125 -16.234375 C 37.875 -16.316406 37.929688 -16.40625 37.984375 -16.5 C 38.109375 -16.789062 38.257812 -17.0625 38.4375 -17.3125 C 39.332031 -18.34375 40.082031 -19.460938 40.6875 -20.671875 C 41.289062 -21.890625 41.84375 -23.132812 42.34375 -24.40625 C 42.582031 -24.9375 42.816406 -25.472656 43.046875 -26.015625 C 47.347656 -35.703125 51.585938 -45.421875 55.765625 -55.171875 C 57.691406 -59.429688 59.171875 -63.828125 60.203125 -68.359375 C 60.628906 -69.984375 60.738281 -71.613281 60.53125 -73.25 C 60.3125 -74.195312 59.6875 -74.691406 58.65625 -74.734375 C 57.625 -74.773438 56.367188 -74.507812 54.890625 -73.9375 C 53.421875 -73.363281 51.894531 -72.664062 50.3125 -71.84375 C 48.726562 -71.03125 47.296875 -70.234375 46.015625 -69.453125 C 44.742188 -68.671875 43.800781 -68.085938 43.1875 -67.703125 C 43.007812 -67.597656 42.890625 -67.523438 42.828125 -67.484375 C 26.148438 -57.109375 11.21875 -44.648438 -1.96875 -30.109375 C -3.414062 -28.503906 -4.804688 -26.847656 -6.140625 -25.140625 C -7.472656 -23.441406 -8.695312 -21.644531 -9.8125 -19.75 C -10.65625 -18.332031 -11.328125 -16.847656 -11.828125 -15.296875 C -12.441406 -12.898438 -12.265625 -11.070312 -11.296875 -9.8125 C -10.335938 -8.550781 -8.894531 -7.707031 -6.96875 -7.28125 C -5.050781 -6.851562 -2.960938 -6.703125 -0.703125 -6.828125 C 1.546875 -6.960938 3.664062 -7.191406 5.65625 -7.515625 C 7.65625 -7.847656 9.203125 -8.175781 10.296875 -8.5 C 11.609375 -8.832031 12.925781 -9.140625 14.25 -9.421875 C 15.382812 -9.640625 15.703125 -9.566406 15.203125 -9.203125 C 14.703125 -8.847656 13.617188 -8.359375 11.953125 -7.734375 C 10.285156 -7.117188 8.285156 -6.515625 5.953125 -5.921875 C 3.617188 -5.335938 1.207031 -4.921875 -1.28125 -4.671875 C -3.769531 -4.421875 -6.101562 -4.472656 -8.28125 -4.828125 C -10.46875 -5.179688 -12.25 -5.988281 -13.625 -7.25 C -15 -8.519531 -15.703125 -10.398438 -15.734375 -12.890625 C -15.734375 -12.953125 -15.734375 -13.019531 -15.734375 -13.09375 C -15.648438 -14.65625 -15.273438 -16.148438 -14.609375 -17.578125 C -13.492188 -20.140625 -12.070312 -22.519531 -10.34375 -24.71875 C -8.519531 -27.09375 -6.613281 -29.390625 -4.625 -31.609375 C 8.164062 -45.648438 22.578125 -57.769531 38.609375 -67.96875 C 40.503906 -69.175781 42.703125 -70.5 45.203125 -71.9375 C 47.710938 -73.375 50.289062 -74.582031 52.9375 -75.5625 C 55.582031 -76.539062 58.0625 -76.984375 60.375 -76.890625 C 62.925781 -76.742188 64.328125 -75.410156 64.578125 -72.890625 C 64.679688 -71.953125 64.671875 -71.035156 64.546875 -70.140625 C 64.429688 -69.253906 64.257812 -68.367188 64.03125 -67.484375 C 64 -67.347656 63.96875 -67.207031 63.9375 -67.0625 C 63.46875 -64.9375 62.863281 -62.859375 62.125 -60.828125 C 61.382812 -58.796875 60.582031 -56.785156 59.71875 -54.796875 C 52.4375 -37.472656 44.8125 -20.320312 36.84375 -3.34375 C 36.601562 -2.84375 36.375 -2.328125 36.15625 -1.796875 C 35.800781 -0.972656 35.835938 -0.398438 36.265625 -0.078125 C 36.703125 0.234375 37.421875 0.390625 38.421875 0.390625 C 39.429688 0.390625 40.617188 0.34375 41.984375 0.25 C 42.191406 0.25 42.398438 0.222656 42.609375 0.171875 C 43.492188 0.140625 44.398438 0.09375 45.328125 0.03125 C 49.410156 -0.289062 53.46875 -0.507812 57.5 -0.625 C 58.207031 -0.625 58.695312 -0.925781 58.96875 -1.53125 C 59.289062 -2.175781 59.597656 -2.828125 59.890625 -3.484375 C 65.140625 -15.046875 70.597656 -26.5 76.265625 -37.84375 C 81.941406 -49.1875 87.695312 -60.488281 93.53125 -71.75 C 93.601562 -71.894531 93.675781 -72.039062 93.75 -72.1875 C 93.957031 -72.71875 94.273438 -73.160156 94.703125 -73.515625 C 95.023438 -73.691406 95.398438 -73.78125 95.828125 -73.78125 C 96.253906 -73.78125 96.613281 -73.679688 96.90625 -73.484375 C 97.207031 -73.296875 97.269531 -72.953125 97.09375 -72.453125 C 97.0625 -72.335938 97.015625 -72.210938 96.953125 -72.078125 C 96.484375 -70.867188 95.96875 -69.675781 95.40625 -68.5 C 92.53125 -62.71875 89.628906 -56.941406 86.703125 -51.171875 C 85.679688 -49.117188 84.65625 -47.054688 83.625 -44.984375 C 76.832031 -31.441406 70.179688 -17.828125 63.671875 -4.140625 C 63.554688 -3.878906 63.4375 -3.628906 63.3125 -3.390625 C 63.164062 -3.097656 63.035156 -2.816406 62.921875 -2.546875 C 62.535156 -1.691406 62.507812 -1.140625 62.84375 -0.890625 C 63.1875 -0.640625 63.726562 -0.550781 64.46875 -0.625 C 72.257812 -1.050781 80.195312 -1.144531 88.28125 -0.90625 C 96.375 -0.675781 104.40625 -0.347656 112.375 0.078125 C 114.8125 0.191406 117.242188 0.3125 119.671875 0.4375 C 119.773438 0.4375 119.863281 0.4375 119.9375 0.4375 C 120.257812 0.4375 120.578125 0.460938 120.890625 0.515625 C 121.203125 0.578125 121.488281 0.710938 121.75 0.921875 Z M 121.75 0.921875 "/></g></g><g transform="translate(96.202225, 97.907552)"><g><path d="M 67.453125 5.984375 C 67.742188 6.242188 67.875 6.519531 67.84375 6.8125 C 67.8125 7.113281 67.722656 7.390625 67.578125 7.640625 C 67.578125 7.679688 67.578125 7.703125 67.578125 7.703125 C 66.546875 10.148438 64.988281 11.992188 62.90625 13.234375 C 60.832031 14.472656 58.332031 14.988281 55.40625 14.78125 C 52.59375 14.507812 50.382812 13.53125 48.78125 11.84375 C 47.1875 10.15625 46.269531 7.890625 46.03125 5.046875 C 45.914062 3.648438 45.96875 2.265625 46.1875 0.890625 C 46.40625 -0.472656 46.675781 -1.84375 47 -3.21875 C 47.207031 -4.082031 47.414062 -4.941406 47.625 -5.796875 C 48.007812 -7.210938 48.347656 -8.648438 48.640625 -10.109375 C 49.066406 -12.390625 48.828125 -13.972656 47.921875 -14.859375 C 47.015625 -15.742188 45.734375 -16.210938 44.078125 -16.265625 C 42.421875 -16.328125 40.742188 -16.242188 39.046875 -16.015625 C 38.078125 -15.921875 37.1875 -15.859375 36.375 -15.828125 C 36.050781 -15.828125 35.800781 -15.738281 35.625 -15.5625 C 35.445312 -15.382812 35.285156 -15.179688 35.140625 -14.953125 C 34.285156 -13.429688 33.457031 -11.890625 32.65625 -10.328125 C 25.101562 3.890625 16.925781 17.738281 8.125 31.21875 C 6.757812 33.269531 5.351562 35.296875 3.90625 37.296875 C 3.582031 37.785156 3.21875 38.21875 2.8125 38.59375 C 2.40625 38.976562 1.910156 39.257812 1.328125 39.4375 C 0.265625 39.738281 -0.578125 39.664062 -1.203125 39.21875 C -1.828125 38.78125 -2.113281 37.992188 -2.0625 36.859375 C -2 35.554688 -1.804688 34.242188 -1.484375 32.921875 C 0.441406 24.890625 2.921875 18.007812 5.953125 12.28125 C 8.992188 6.5625 12.664062 1.394531 16.96875 -3.21875 C 21.269531 -7.84375 26.226562 -12.503906 31.84375 -17.203125 C 32.738281 -17.921875 33.453125 -18.796875 33.984375 -19.828125 C 34.722656 -21.242188 35.46875 -22.664062 36.21875 -24.09375 C 38.957031 -29.375 41.660156 -34.671875 44.328125 -39.984375 C 46.992188 -45.304688 49.515625 -50.691406 51.890625 -56.140625 C 54.234375 -61.566406 55.441406 -65.625 55.515625 -68.3125 C 55.585938 -71.007812 54.34375 -72.429688 51.78125 -72.578125 C 49.21875 -72.734375 45.179688 -71.710938 39.671875 -69.515625 C 34.273438 -67.347656 28.988281 -64.929688 23.8125 -62.265625 C 18.644531 -59.597656 13.550781 -56.753906 8.53125 -53.734375 C 6.65625 -52.640625 4.335938 -51.179688 1.578125 -49.359375 C -1.171875 -47.546875 -3.882812 -45.59375 -6.5625 -43.5 C -9.25 -41.40625 -11.460938 -39.359375 -13.203125 -37.359375 C -14.484375 -35.835938 -14.800781 -34.800781 -14.15625 -34.25 C -13.519531 -33.695312 -12.242188 -33.378906 -10.328125 -33.296875 C -9.398438 -33.265625 -7.828125 -33.253906 -5.609375 -33.265625 C -3.390625 -33.285156 -0.914062 -33.40625 1.8125 -33.625 C 3.351562 -33.726562 4.847656 -33.835938 6.296875 -33.953125 C 8.492188 -34.160156 10.375 -34.300781 11.9375 -34.375 C 13.507812 -34.445312 14.441406 -34.359375 14.734375 -34.109375 C 14.828125 -33.828125 13.738281 -33.515625 11.46875 -33.171875 C 9.207031 -32.835938 6.410156 -32.53125 3.078125 -32.25 C -0.253906 -31.96875 -3.484375 -31.796875 -6.609375 -31.734375 C -9.734375 -31.679688 -12.09375 -31.800781 -13.6875 -32.09375 C -16.5 -32.6875 -17.78125 -33.773438 -17.53125 -35.359375 C -17.28125 -36.941406 -15.925781 -38.851562 -13.46875 -41.09375 C -11.019531 -43.332031 -7.894531 -45.710938 -4.09375 -48.234375 C -0.300781 -50.753906 3.769531 -53.269531 8.125 -55.78125 C 12.488281 -58.289062 16.703125 -60.617188 20.765625 -62.765625 C 24.835938 -64.921875 28.347656 -66.707031 31.296875 -68.125 C 34.253906 -69.550781 36.25 -70.472656 37.28125 -70.890625 C 41.507812 -72.609375 45.234375 -73.769531 48.453125 -74.375 C 51.671875 -74.976562 54.1875 -74.816406 56 -73.890625 C 57.820312 -72.960938 58.738281 -71.078125 58.75 -68.234375 C 58.769531 -65.390625 57.695312 -61.375 55.53125 -56.1875 C 53.78125 -52.0625 51.921875 -47.976562 49.953125 -43.9375 C 47.984375 -39.90625 45.976562 -35.882812 43.9375 -31.875 C 43.164062 -30.34375 42.367188 -28.757812 41.546875 -27.125 C 41.085938 -26.238281 40.59375 -25.289062 40.0625 -24.28125 C 40.664062 -24.425781 41.148438 -24.613281 41.515625 -24.84375 C 41.890625 -25.082031 42.222656 -25.328125 42.515625 -25.578125 C 42.660156 -25.679688 42.820312 -25.785156 43 -25.890625 C 50.113281 -31.085938 57.878906 -36.320312 66.296875 -41.59375 C 74.710938 -46.875 83.5625 -51.796875 92.84375 -56.359375 C 102.125 -60.929688 111.613281 -64.726562 121.3125 -67.75 C 131.019531 -70.769531 140.707031 -72.632812 150.375 -73.34375 C 160.050781 -74.050781 169.5 -73.203125 178.71875 -70.796875 C 178.8125 -70.765625 178.910156 -70.675781 179.015625 -70.53125 C 179.117188 -70.382812 179.171875 -70.238281 179.171875 -70.09375 C 179.171875 -69.882812 179.09375 -69.71875 178.9375 -69.59375 C 178.789062 -69.476562 178.585938 -69.421875 178.328125 -69.421875 C 178.148438 -69.367188 177.953125 -69.382812 177.734375 -69.46875 C 170.066406 -71.457031 162.113281 -72.21875 153.875 -71.75 C 145.644531 -71.289062 137.300781 -69.90625 128.84375 -67.59375 C 120.382812 -65.289062 112.003906 -62.320312 103.703125 -58.6875 C 95.410156 -55.0625 87.375 -51.0625 79.59375 -46.6875 C 71.820312 -42.320312 64.515625 -37.84375 57.671875 -33.25 C 50.828125 -28.664062 44.632812 -24.253906 39.09375 -20.015625 C 39.0625 -19.984375 39.046875 -19.96875 39.046875 -19.96875 C 38.609375 -19.695312 38.195312 -19.382812 37.8125 -19.03125 C 37.425781 -18.675781 37.25 -18.375 37.28125 -18.125 C 37.3125 -17.875 37.753906 -17.765625 38.609375 -17.796875 C 38.867188 -17.796875 39.117188 -17.796875 39.359375 -17.796875 C 40.929688 -17.941406 42.578125 -17.984375 44.296875 -17.921875 C 46.015625 -17.867188 47.585938 -17.578125 49.015625 -17.046875 C 51.078125 -16.179688 52.109375 -14.648438 52.109375 -12.453125 C 52.078125 -11.421875 51.945312 -10.410156 51.71875 -9.421875 C 51.363281 -7.773438 50.992188 -6.140625 50.609375 -4.515625 C 50.222656 -2.734375 49.835938 -0.9375 49.453125 0.875 C 48.984375 3.007812 49.054688 5.140625 49.671875 7.265625 C 50.265625 9.109375 51.195312 10.539062 52.46875 11.5625 C 53.75 12.582031 55.207031 13.113281 56.84375 13.15625 C 58.488281 13.207031 60.128906 12.703125 61.765625 11.640625 C 62.972656 10.828125 63.945312 9.78125 64.6875 8.5 C 64.832031 8.21875 64.976562 7.929688 65.125 7.640625 C 65.226562 7.359375 65.351562 7.085938 65.5 6.828125 C 65.78125 6.378906 66.109375 6.070312 66.484375 5.90625 C 66.859375 5.75 67.179688 5.773438 67.453125 5.984375 Z M 28.171875 -8.9375 C 28.203125 -9.007812 28.253906 -9.097656 28.328125 -9.203125 C 28.460938 -9.453125 28.628906 -9.753906 28.828125 -10.109375 C 29.035156 -10.460938 29.191406 -10.800781 29.296875 -11.125 C 29.398438 -11.445312 29.40625 -11.644531 29.3125 -11.71875 C 29.226562 -11.789062 28.96875 -11.648438 28.53125 -11.296875 C 21.289062 -5.609375 15.597656 0.78125 11.453125 7.875 C 7.304688 14.96875 4.203125 23.101562 2.140625 32.28125 C 1.953125 33.09375 1.929688 33.539062 2.078125 33.625 C 2.222656 33.71875 2.457031 33.597656 2.78125 33.265625 C 3.101562 32.929688 3.414062 32.539062 3.71875 32.09375 C 4.019531 31.65625 4.242188 31.347656 4.390625 31.171875 C 8.617188 24.628906 12.71875 18.023438 16.6875 11.359375 C 20.664062 4.691406 24.492188 -2.070312 28.171875 -8.9375 Z M 28.171875 -8.9375 "/></g></g></g></g></g></svg>