<svg xmlns="http://www.w3.org/2000/svg" xmlns:xlink="http://www.w3.org/1999/xlink" width="384" zoomAndPan="magnify" viewBox="0 0 288 293.25" height="391" preserveAspectRatio="xMidYMid meet" version="1.0"><defs><filter x="0%" y="0%" width="100%" height="100%" id="567b2ddc3d"><feColorMatrix values="0 0 0 0 1 0 0 0 0 1 0 0 0 0 1 0 0 0 1 0" color-interpolation-filters="sRGB"/></filter><g/><clipPath id="dd14f60ce5"><path d="M 0.367188 3.386719 L 287.632812 3.386719 L 287.632812 288.855469 L 0.367188 288.855469 Z M 0.367188 3.386719 " clip-rule="nonzero"/></clipPath><clipPath id="a5199b60cc"><path d="M 143.945312 3.386719 C 64.648438 3.386719 0.367188 67.292969 0.367188 146.121094 C 0.367188 224.953125 64.648438 288.855469 143.945312 288.855469 C 223.242188 288.855469 287.523438 224.953125 287.523438 146.121094 C 287.523438 67.292969 223.242188 3.386719 143.945312 3.386719 Z M 143.945312 3.386719 " clip-rule="nonzero"/></clipPath><clipPath id="12f91a09b9"><path d="M 0.367188 0.386719 L 287.632812 0.386719 L 287.632812 285.855469 L 0.367188 285.855469 Z M 0.367188 0.386719 " clip-rule="nonzero"/></clipPath><clipPath id="ccdca11205"><path d="M 143.945312 0.386719 C 64.648438 0.386719 0.367188 64.292969 0.367188 143.121094 C 0.367188 221.953125 64.648438 285.855469 143.945312 285.855469 C 223.242188 285.855469 287.523438 221.953125 287.523438 143.121094 C 287.523438 64.292969 223.242188 0.386719 143.945312 0.386719 Z M 143.945312 0.386719 " clip-rule="nonzero"/></clipPath><clipPath id="3a63e85aea"><rect x="0" width="288" y="0" height="286"/></clipPath><clipPath id="4c30132b2a"><path d="M 0.382812 0 L 282.394531 0 L 282.394531 292.226562 L 0.382812 292.226562 Z M 0.382812 0 " clip-rule="nonzero"/></clipPath><clipPath id="4d9bd80de7"><path d="M 0.367188 12 L 287.632812 12 L 287.632812 280 L 0.367188 280 Z M 0.367188 12 " clip-rule="nonzero"/></clipPath><clipPath id="6c771ddf3d"><path d="M 121 84 L 287.632812 84 L 287.632812 204 L 121 204 Z M 121 84 " clip-rule="nonzero"/></clipPath><clipPath id="5191f89074"><path d="M 0.367188 0.527344 L 287.632812 0.527344 L 287.632812 267.714844 L 0.367188 267.714844 Z M 0.367188 0.527344 " clip-rule="nonzero"/></clipPath><clipPath id="3b65120154"><path d="M 0.367188 0.527344 L 287.632812 0.527344 L 287.632812 267.714844 L 0.367188 267.714844 Z M 0.367188 0.527344 " clip-rule="nonzero"/></clipPath><clipPath id="6b32584677"><path d="M 0.367188 0.527344 L 287.632812 0.527344 L 287.632812 267.714844 L 0.367188 267.714844 Z M 0.367188 0.527344 " clip-rule="nonzero"/></clipPath><linearGradient x1="-55.055072" gradientTransform="matrix(1.03176, 0, 0, 1.031561, 57.170944, 99.565007)" y1="33.5" x2="223.367635" gradientUnits="userSpaceOnUse" y2="33.5" id="d0f763d13d"><stop stop-opacity="1" stop-color="rgb(54.899597%, 32.159424%, 100%)" offset="0"/><stop stop-opacity="1" stop-color="rgb(54.899597%, 32.159424%, 100%)" offset="0.125"/><stop stop-opacity="1" stop-color="rgb(54.899597%, 32.159424%, 100%)" offset="0.1875"/><stop stop-opacity="1" stop-color="rgb(54.899597%, 32.159424%, 100%)" offset="0.21875"/><stop stop-opacity="1" stop-color="rgb(54.803467%, 32.234192%, 99.891663%)" offset="0.226563"/><stop stop-opacity="1" stop-color="rgb(54.25415%, 32.661438%, 99.279785%)" offset="0.230469"/><stop stop-opacity="1" stop-color="rgb(53.80249%, 33.013916%, 98.776245%)" offset="0.234375"/><stop stop-opacity="1" stop-color="rgb(53.349304%, 33.364868%, 98.271179%)" offset="0.238281"/><stop stop-opacity="1" stop-color="rgb(52.897644%, 33.717346%, 97.767639%)" offset="0.242188"/><stop stop-opacity="1" stop-color="rgb(52.444458%, 34.069824%, 97.262573%)" offset="0.246094"/><stop stop-opacity="1" stop-color="rgb(51.991272%, 34.422302%, 96.759033%)" offset="0.25"/><stop stop-opacity="1" stop-color="rgb(51.538086%, 34.77478%, 96.253967%)" offset="0.253906"/><stop stop-opacity="1" stop-color="rgb(51.086426%, 35.127258%, 95.750427%)" offset="0.257813"/><stop stop-opacity="1" stop-color="rgb(50.63324%, 35.479736%, 95.245361%)" offset="0.261719"/><stop stop-opacity="1" stop-color="rgb(50.18158%, 35.832214%, 94.741821%)" offset="0.265625"/><stop stop-opacity="1" stop-color="rgb(49.728394%, 36.183167%, 94.236755%)" offset="0.269531"/><stop stop-opacity="1" stop-color="rgb(49.276733%, 36.535645%, 93.733215%)" offset="0.273438"/><stop stop-opacity="1" stop-color="rgb(48.823547%, 36.888123%, 93.228149%)" offset="0.277344"/><stop stop-opacity="1" stop-color="rgb(48.371887%, 37.240601%, 92.724609%)" offset="0.28125"/><stop stop-opacity="1" stop-color="rgb(47.918701%, 37.593079%, 92.221069%)" offset="0.285156"/><stop stop-opacity="1" stop-color="rgb(47.467041%, 37.945557%, 91.717529%)" offset="0.289062"/><stop stop-opacity="1" stop-color="rgb(47.013855%, 38.298035%, 91.212463%)" offset="0.292969"/><stop stop-opacity="1" stop-color="rgb(46.562195%, 38.650513%, 90.708923%)" offset="0.296875"/><stop stop-opacity="1" stop-color="rgb(46.109009%, 39.001465%, 90.203857%)" offset="0.300781"/><stop stop-opacity="1" stop-color="rgb(45.657349%, 39.353943%, 89.700317%)" offset="0.304688"/><stop stop-opacity="1" stop-color="rgb(45.204163%, 39.706421%, 89.195251%)" offset="0.308594"/><stop stop-opacity="1" stop-color="rgb(44.752502%, 40.058899%, 88.691711%)" offset="0.3125"/><stop stop-opacity="1" stop-color="rgb(44.299316%, 40.411377%, 88.186646%)" offset="0.316406"/><stop stop-opacity="1" stop-color="rgb(43.847656%, 40.763855%, 87.683105%)" offset="0.320313"/><stop stop-opacity="1" stop-color="rgb(43.39447%, 41.114807%, 87.17804%)" offset="0.324219"/><stop stop-opacity="1" stop-color="rgb(42.941284%, 41.467285%, 86.6745%)" offset="0.328125"/><stop stop-opacity="1" stop-color="rgb(42.488098%, 41.819763%, 86.169434%)" offset="0.332031"/><stop stop-opacity="1" stop-color="rgb(42.036438%, 42.172241%, 85.665894%)" offset="0.335938"/><stop stop-opacity="1" stop-color="rgb(41.583252%, 42.524719%, 85.160828%)" offset="0.339844"/><stop stop-opacity="1" stop-color="rgb(41.131592%, 42.877197%, 84.657288%)" offset="0.34375"/><stop stop-opacity="1" stop-color="rgb(40.678406%, 43.229675%, 84.152222%)" offset="0.347656"/><stop stop-opacity="1" stop-color="rgb(40.226746%, 43.582153%, 83.648682%)" offset="0.351563"/><stop stop-opacity="1" stop-color="rgb(39.77356%, 43.933105%, 83.143616%)" offset="0.355469"/><stop stop-opacity="1" stop-color="rgb(39.321899%, 44.285583%, 82.640076%)" offset="0.359375"/><stop stop-opacity="1" stop-color="rgb(38.868713%, 44.638062%, 82.13501%)" offset="0.363281"/><stop stop-opacity="1" stop-color="rgb(38.417053%, 44.99054%, 81.63147%)" offset="0.367188"/><stop stop-opacity="1" stop-color="rgb(37.963867%, 45.343018%, 81.126404%)" offset="0.371094"/><stop stop-opacity="1" stop-color="rgb(37.512207%, 45.695496%, 80.622864%)" offset="0.375"/><stop stop-opacity="1" stop-color="rgb(37.059021%, 46.047974%, 80.117798%)" offset="0.378906"/><stop stop-opacity="1" stop-color="rgb(36.607361%, 46.400452%, 79.614258%)" offset="0.382813"/><stop stop-opacity="1" stop-color="rgb(36.154175%, 46.751404%, 79.109192%)" offset="0.386719"/><stop stop-opacity="1" stop-color="rgb(35.702515%, 47.103882%, 78.605652%)" offset="0.390625"/><stop stop-opacity="1" stop-color="rgb(35.249329%, 47.45636%, 78.100586%)" offset="0.394531"/><stop stop-opacity="1" stop-color="rgb(34.797668%, 47.808838%, 77.597046%)" offset="0.398438"/><stop stop-opacity="1" stop-color="rgb(34.344482%, 48.161316%, 77.09198%)" offset="0.402344"/><stop stop-opacity="1" stop-color="rgb(33.891296%, 48.513794%, 76.58844%)" offset="0.40625"/><stop stop-opacity="1" stop-color="rgb(33.43811%, 48.866272%, 76.083374%)" offset="0.410156"/><stop stop-opacity="1" stop-color="rgb(32.98645%, 49.21875%, 75.579834%)" offset="0.414063"/><stop stop-opacity="1" stop-color="rgb(32.533264%, 49.569702%, 75.074768%)" offset="0.417969"/><stop stop-opacity="1" stop-color="rgb(32.081604%, 49.92218%, 74.571228%)" offset="0.421875"/><stop stop-opacity="1" stop-color="rgb(31.628418%, 50.274658%, 74.067688%)" offset="0.425781"/><stop stop-opacity="1" stop-color="rgb(31.176758%, 50.627136%, 73.564148%)" offset="0.429688"/><stop stop-opacity="1" stop-color="rgb(30.723572%, 50.979614%, 73.059082%)" offset="0.433594"/><stop stop-opacity="1" stop-color="rgb(30.271912%, 51.332092%, 72.555542%)" offset="0.4375"/><stop stop-opacity="1" stop-color="rgb(29.818726%, 51.683044%, 72.050476%)" offset="0.441406"/><stop stop-opacity="1" stop-color="rgb(29.367065%, 52.035522%, 71.546936%)" offset="0.445313"/><stop stop-opacity="1" stop-color="rgb(28.913879%, 52.388%, 71.04187%)" offset="0.449219"/><stop stop-opacity="1" stop-color="rgb(28.462219%, 52.740479%, 70.53833%)" offset="0.453125"/><stop stop-opacity="1" stop-color="rgb(28.009033%, 53.092957%, 70.033264%)" offset="0.457031"/><stop stop-opacity="1" stop-color="rgb(27.557373%, 53.445435%, 69.529724%)" offset="0.460938"/><stop stop-opacity="1" stop-color="rgb(27.104187%, 53.797913%, 69.024658%)" offset="0.464844"/><stop stop-opacity="1" stop-color="rgb(26.652527%, 54.150391%, 68.521118%)" offset="0.46875"/><stop stop-opacity="1" stop-color="rgb(26.199341%, 54.501343%, 68.016052%)" offset="0.472656"/><stop stop-opacity="1" stop-color="rgb(25.747681%, 54.853821%, 67.512512%)" offset="0.476562"/><stop stop-opacity="1" stop-color="rgb(25.294495%, 55.206299%, 67.007446%)" offset="0.480469"/><stop stop-opacity="1" stop-color="rgb(24.841309%, 55.558777%, 66.503906%)" offset="0.484375"/><stop stop-opacity="1" stop-color="rgb(24.388123%, 55.911255%, 65.99884%)" offset="0.488281"/><stop stop-opacity="1" stop-color="rgb(23.936462%, 56.263733%, 65.4953%)" offset="0.492188"/><stop stop-opacity="1" stop-color="rgb(23.483276%, 56.616211%, 64.990234%)" offset="0.496094"/><stop stop-opacity="1" stop-color="rgb(23.031616%, 56.968689%, 64.486694%)" offset="0.5"/><stop stop-opacity="1" stop-color="rgb(22.57843%, 57.319641%, 63.981628%)" offset="0.503906"/><stop stop-opacity="1" stop-color="rgb(22.12677%, 57.672119%, 63.478088%)" offset="0.507812"/><stop stop-opacity="1" stop-color="rgb(21.673584%, 58.024597%, 62.973022%)" offset="0.511719"/><stop stop-opacity="1" stop-color="rgb(21.221924%, 58.377075%, 62.469482%)" offset="0.515625"/><stop stop-opacity="1" stop-color="rgb(20.768738%, 58.729553%, 61.964417%)" offset="0.519531"/><stop stop-opacity="1" stop-color="rgb(20.317078%, 59.082031%, 61.460876%)" offset="0.523438"/><stop stop-opacity="1" stop-color="rgb(19.863892%, 59.434509%, 60.955811%)" offset="0.527344"/><stop stop-opacity="1" stop-color="rgb(19.412231%, 59.786987%, 60.452271%)" offset="0.53125"/><stop stop-opacity="1" stop-color="rgb(18.959045%, 60.137939%, 59.947205%)" offset="0.535156"/><stop stop-opacity="1" stop-color="rgb(18.507385%, 60.490417%, 59.443665%)" offset="0.539063"/><stop stop-opacity="1" stop-color="rgb(18.054199%, 60.842896%, 58.938599%)" offset="0.542969"/><stop stop-opacity="1" stop-color="rgb(17.602539%, 61.195374%, 58.435059%)" offset="0.546875"/><stop stop-opacity="1" stop-color="rgb(17.149353%, 61.547852%, 57.929993%)" offset="0.550781"/><stop stop-opacity="1" stop-color="rgb(16.697693%, 61.90033%, 57.426453%)" offset="0.554688"/><stop stop-opacity="1" stop-color="rgb(16.244507%, 62.251282%, 56.921387%)" offset="0.558594"/><stop stop-opacity="1" stop-color="rgb(15.791321%, 62.60376%, 56.417847%)" offset="0.5625"/><stop stop-opacity="1" stop-color="rgb(15.338135%, 62.956238%, 55.914307%)" offset="0.566406"/><stop stop-opacity="1" stop-color="rgb(14.886475%, 63.308716%, 55.410767%)" offset="0.570313"/><stop stop-opacity="1" stop-color="rgb(14.433289%, 63.661194%, 54.905701%)" offset="0.574219"/><stop stop-opacity="1" stop-color="rgb(13.981628%, 64.013672%, 54.402161%)" offset="0.578125"/><stop stop-opacity="1" stop-color="rgb(13.528442%, 64.36615%, 53.897095%)" offset="0.582031"/><stop stop-opacity="1" stop-color="rgb(13.076782%, 64.718628%, 53.393555%)" offset="0.585938"/><stop stop-opacity="1" stop-color="rgb(12.623596%, 65.06958%, 52.888489%)" offset="0.589844"/><stop stop-opacity="1" stop-color="rgb(12.171936%, 65.422058%, 52.384949%)" offset="0.59375"/><stop stop-opacity="1" stop-color="rgb(11.71875%, 65.774536%, 51.879883%)" offset="0.597656"/><stop stop-opacity="1" stop-color="rgb(11.26709%, 66.127014%, 51.376343%)" offset="0.601562"/><stop stop-opacity="1" stop-color="rgb(10.813904%, 66.479492%, 50.871277%)" offset="0.605469"/><stop stop-opacity="1" stop-color="rgb(10.362244%, 66.83197%, 50.367737%)" offset="0.609375"/><stop stop-opacity="1" stop-color="rgb(9.909058%, 67.184448%, 49.862671%)" offset="0.613281"/><stop stop-opacity="1" stop-color="rgb(9.457397%, 67.536926%, 49.359131%)" offset="0.617188"/><stop stop-opacity="1" stop-color="rgb(9.004211%, 67.887878%, 48.854065%)" offset="0.621094"/><stop stop-opacity="1" stop-color="rgb(8.552551%, 68.240356%, 48.350525%)" offset="0.625"/><stop stop-opacity="1" stop-color="rgb(8.099365%, 68.592834%, 47.845459%)" offset="0.628906"/><stop stop-opacity="1" stop-color="rgb(7.647705%, 68.945312%, 47.341919%)" offset="0.632812"/><stop stop-opacity="1" stop-color="rgb(7.194519%, 69.297791%, 46.836853%)" offset="0.636719"/><stop stop-opacity="1" stop-color="rgb(6.741333%, 69.650269%, 46.333313%)" offset="0.640625"/><stop stop-opacity="1" stop-color="rgb(6.288147%, 70.001221%, 45.828247%)" offset="0.644531"/><stop stop-opacity="1" stop-color="rgb(5.836487%, 70.353699%, 45.324707%)" offset="0.648438"/><stop stop-opacity="1" stop-color="rgb(5.383301%, 70.706177%, 44.819641%)" offset="0.652344"/><stop stop-opacity="1" stop-color="rgb(4.931641%, 71.058655%, 44.316101%)" offset="0.65625"/><stop stop-opacity="1" stop-color="rgb(4.478455%, 71.411133%, 43.811035%)" offset="0.660156"/><stop stop-opacity="1" stop-color="rgb(4.026794%, 71.763611%, 43.307495%)" offset="0.664063"/><stop stop-opacity="1" stop-color="rgb(3.573608%, 72.116089%, 42.802429%)" offset="0.667969"/><stop stop-opacity="1" stop-color="rgb(3.121948%, 72.468567%, 42.298889%)" offset="0.671875"/><stop stop-opacity="1" stop-color="rgb(2.668762%, 72.819519%, 41.793823%)" offset="0.675781"/><stop stop-opacity="1" stop-color="rgb(2.217102%, 73.171997%, 41.290283%)" offset="0.679688"/><stop stop-opacity="1" stop-color="rgb(1.763916%, 73.524475%, 40.785217%)" offset="0.683594"/><stop stop-opacity="1" stop-color="rgb(1.312256%, 73.876953%, 40.281677%)" offset="0.6875"/><stop stop-opacity="1" stop-color="rgb(0.85907%, 74.229431%, 39.776611%)" offset="0.691406"/><stop stop-opacity="1" stop-color="rgb(0.40741%, 74.581909%, 39.273071%)" offset="0.695313"/><stop stop-opacity="1" stop-color="rgb(0.202942%, 74.740601%, 39.045715%)" offset="0.699219"/><stop stop-opacity="1" stop-color="rgb(0%, 74.899292%, 38.819885%)" offset="0.703125"/><stop stop-opacity="1" stop-color="rgb(0%, 74.899292%, 38.819885%)" offset="0.71875"/><stop stop-opacity="1" stop-color="rgb(0%, 74.899292%, 38.819885%)" offset="0.75"/><stop stop-opacity="1" stop-color="rgb(0%, 74.899292%, 38.819885%)" offset="1"/></linearGradient><clipPath id="97ac224521"><rect x="0" width="288" y="0" height="268"/></clipPath><clipPath id="66a4400c05"><path d="M 0.367188 0.527344 L 287.632812 0.527344 L 287.632812 267.714844 L 0.367188 267.714844 Z M 0.367188 0.527344 " clip-rule="nonzero"/></clipPath><clipPath id="348ce4e7bc"><path d="M 48 84 L 287.632812 84 L 287.632812 202 L 48 202 Z M 48 84 " clip-rule="nonzero"/></clipPath><clipPath id="fe68b8d385"><rect x="0" width="288" y="0" height="268"/></clipPath><clipPath id="6ff8ebe5e0"><rect x="0" width="288" y="0" height="268"/></clipPath><mask id="6264f91c78"><g filter="url(#567b2ddc3d)"><g transform="matrix(1, 0, 0, 1, 0, -0.000000000000021316)"><g clip-path="url(#6ff8ebe5e0)"><g clip-path="url(#66a4400c05)"><g transform="matrix(1, 0, 0, 1, 0, -0.000000000000021316)"><g clip-path="url(#fe68b8d385)"><g clip-path="url(#348ce4e7bc)"><g fill="#000000" fill-opacity="1"><g transform="translate(64.507402, 161.45995)"><g><path d="M 121.4375 0.921875 C 121.507812 0.953125 121.582031 1.007812 121.65625 1.09375 C 121.726562 1.1875 121.765625 1.289062 121.765625 1.40625 C 121.765625 1.582031 121.707031 1.722656 121.59375 1.828125 C 121.488281 1.929688 121.363281 1.984375 121.21875 1.984375 L 120.75 1.9375 C 120.675781 1.96875 120.625 1.984375 120.59375 1.984375 C 111.644531 1.484375 102.828125 1.179688 94.140625 1.078125 C 85.453125 0.972656 76.691406 0.9375 67.859375 0.96875 C 66.410156 0.96875 64.976562 0.96875 63.5625 0.96875 C 62.675781 0.96875 61.957031 1.132812 61.40625 1.46875 C 60.863281 1.8125 60.398438 2.410156 60.015625 3.265625 C 57.734375 8.441406 55.410156 13.597656 53.046875 18.734375 C 51.753906 21.535156 50.472656 24.34375 49.203125 27.15625 C 48.285156 29.195312 47.382812 31.265625 46.5 33.359375 C 46.03125 34.390625 45.582031 35.421875 45.15625 36.453125 C 45.125 36.554688 45.070312 36.664062 45 36.78125 C 44.925781 37.0625 44.800781 37.328125 44.625 37.578125 C 44.34375 37.816406 43.96875 37.957031 43.5 38 C 43.039062 38.039062 42.640625 37.953125 42.296875 37.734375 C 41.960938 37.515625 41.867188 37.140625 42.015625 36.609375 C 42.335938 35.722656 42.691406 34.859375 43.078125 34.015625 C 46.484375 26.242188 49.910156 18.472656 53.359375 10.703125 C 54.160156 8.898438 54.972656 7.070312 55.796875 5.21875 C 55.910156 4.945312 56.035156 4.648438 56.171875 4.328125 C 56.453125 3.679688 56.738281 3.046875 57.03125 2.421875 C 57.3125 1.710938 57.132812 1.316406 56.5 1.234375 C 51.988281 1.347656 47.5 1.550781 43.03125 1.84375 C 40.695312 1.96875 38.335938 2.085938 35.953125 2.203125 C 34.609375 2.234375 33.671875 2.867188 33.140625 4.109375 C 30.804688 9.148438 28.375 14.15625 25.84375 19.125 C 24.363281 22.0625 22.859375 25.003906 21.328125 27.953125 C 20.765625 29.015625 20.195312 30.078125 19.625 31.140625 C 19.3125 31.816406 18.957031 32.453125 18.5625 33.046875 C 18.175781 33.578125 17.648438 33.90625 16.984375 34.03125 C 16.328125 34.15625 15.753906 34.117188 15.265625 33.921875 C 14.773438 33.722656 14.546875 33.414062 14.578125 33 C 14.753906 32.175781 15.003906 31.394531 15.328125 30.65625 C 17.878906 24.125 20.660156 17.707031 23.671875 11.40625 C 24.734375 9.164062 25.796875 6.925781 26.859375 4.6875 C 27.148438 3.976562 26.957031 3.578125 26.28125 3.484375 C 25.601562 3.398438 24.613281 3.429688 23.3125 3.578125 C 23.28125 3.578125 23.222656 3.578125 23.140625 3.578125 C 20.867188 3.785156 18.535156 4.101562 16.140625 4.53125 C 13.742188 4.957031 12.175781 5.273438 11.4375 5.484375 C 10.695312 5.660156 9.9375 5.75 9.15625 5.75 C 9.113281 5.800781 9.0625 5.828125 9 5.828125 C 8.925781 5.828125 8.851562 5.800781 8.78125 5.75 L 8.359375 5.828125 C 8.210938 5.828125 8.066406 5.769531 7.921875 5.65625 C 7.785156 5.539062 7.71875 5.394531 7.71875 5.21875 C 7.75 5.125 7.804688 5.003906 7.890625 4.859375 C 7.984375 4.710938 8.085938 4.609375 8.203125 4.546875 C 11.035156 3.546875 13.925781 2.851562 16.875 2.46875 C 20.238281 1.96875 23.609375 1.539062 26.984375 1.1875 C 28.109375 1.15625 28.90625 0.640625 29.375 -0.359375 C 30.351562 -2.378906 31.378906 -4.394531 32.453125 -6.40625 C 33.722656 -8.789062 35.019531 -11.171875 36.34375 -13.546875 C 36.789062 -14.429688 37.25 -15.316406 37.71875 -16.203125 C 37.78125 -16.273438 37.835938 -16.363281 37.890625 -16.46875 C 38.015625 -16.757812 38.164062 -17.023438 38.34375 -17.265625 C 39.226562 -18.296875 39.972656 -19.414062 40.578125 -20.625 C 41.179688 -21.832031 41.734375 -23.070312 42.234375 -24.34375 C 42.472656 -24.875 42.707031 -25.40625 42.9375 -25.9375 C 47.226562 -35.613281 51.457031 -45.3125 55.625 -55.03125 C 57.550781 -59.28125 59.03125 -63.664062 60.0625 -68.1875 C 60.476562 -69.8125 60.582031 -71.4375 60.375 -73.0625 C 60.164062 -74.007812 59.546875 -74.503906 58.515625 -74.546875 C 57.484375 -74.585938 56.234375 -74.320312 54.765625 -73.75 C 53.296875 -73.175781 51.769531 -72.484375 50.1875 -71.671875 C 48.613281 -70.859375 47.1875 -70.0625 45.90625 -69.28125 C 44.632812 -68.5 43.691406 -67.914062 43.078125 -67.53125 C 42.898438 -67.4375 42.78125 -67.363281 42.71875 -67.3125 C 26.082031 -56.957031 11.191406 -44.53125 -1.953125 -30.03125 C -3.410156 -28.4375 -4.800781 -26.785156 -6.125 -25.078125 C -7.457031 -23.378906 -8.679688 -21.585938 -9.796875 -19.703125 C -10.628906 -18.285156 -11.296875 -16.800781 -11.796875 -15.25 C -12.410156 -12.863281 -12.238281 -11.039062 -11.28125 -9.78125 C -10.320312 -8.53125 -8.882812 -7.691406 -6.96875 -7.265625 C -5.050781 -6.835938 -2.96875 -6.6875 -0.71875 -6.8125 C 1.53125 -6.945312 3.648438 -7.175781 5.640625 -7.5 C 7.628906 -7.832031 9.175781 -8.160156 10.28125 -8.484375 C 11.582031 -8.804688 12.894531 -9.113281 14.21875 -9.40625 C 15.34375 -9.613281 15.65625 -9.539062 15.15625 -9.1875 C 14.65625 -8.832031 13.570312 -8.34375 11.90625 -7.71875 C 10.25 -7.101562 8.253906 -6.5 5.921875 -5.90625 C 3.597656 -5.320312 1.195312 -4.90625 -1.28125 -4.65625 C -3.757812 -4.40625 -6.085938 -4.457031 -8.265625 -4.8125 C -10.441406 -5.164062 -12.210938 -5.972656 -13.578125 -7.234375 C -14.953125 -8.503906 -15.65625 -10.378906 -15.6875 -12.859375 C -15.6875 -12.921875 -15.6875 -12.988281 -15.6875 -13.0625 C -15.613281 -14.625 -15.242188 -16.113281 -14.578125 -17.53125 C -13.460938 -20.09375 -12.046875 -22.46875 -10.328125 -24.65625 C -8.503906 -27.03125 -6.601562 -29.320312 -4.625 -31.53125 C 8.144531 -45.53125 22.523438 -57.617188 38.515625 -67.796875 C 40.398438 -69.003906 42.59375 -70.320312 45.09375 -71.75 C 47.59375 -73.1875 50.160156 -74.394531 52.796875 -75.375 C 55.441406 -76.351562 57.914062 -76.789062 60.21875 -76.6875 C 62.769531 -76.539062 64.164062 -75.210938 64.40625 -72.703125 C 64.519531 -71.765625 64.515625 -70.851562 64.390625 -69.96875 C 64.273438 -69.082031 64.101562 -68.195312 63.875 -67.3125 C 63.84375 -67.175781 63.8125 -67.039062 63.78125 -66.90625 C 63.3125 -64.769531 62.707031 -62.691406 61.96875 -60.671875 C 61.226562 -58.648438 60.429688 -56.648438 59.578125 -54.671875 C 52.304688 -37.390625 44.695312 -20.28125 36.75 -3.34375 C 36.507812 -2.84375 36.285156 -2.328125 36.078125 -1.796875 C 35.722656 -0.972656 35.757812 -0.398438 36.1875 -0.078125 C 36.613281 0.234375 37.328125 0.390625 38.328125 0.390625 C 39.335938 0.390625 40.519531 0.335938 41.875 0.234375 C 42.082031 0.234375 42.289062 0.210938 42.5 0.171875 C 43.382812 0.140625 44.289062 0.09375 45.21875 0.03125 C 49.289062 -0.289062 53.332031 -0.507812 57.34375 -0.625 C 58.050781 -0.625 58.546875 -0.921875 58.828125 -1.515625 C 59.148438 -2.160156 59.457031 -2.816406 59.75 -3.484375 C 64.976562 -15.003906 70.421875 -26.421875 76.078125 -37.734375 C 81.742188 -49.054688 87.484375 -60.332031 93.296875 -71.5625 C 93.359375 -71.707031 93.429688 -71.851562 93.515625 -72 C 93.722656 -72.53125 94.039062 -72.972656 94.46875 -73.328125 C 94.78125 -73.503906 95.148438 -73.59375 95.578125 -73.59375 C 96.015625 -73.59375 96.378906 -73.492188 96.671875 -73.296875 C 96.972656 -73.109375 97.035156 -72.765625 96.859375 -72.265625 C 96.828125 -72.148438 96.773438 -72.03125 96.703125 -71.90625 C 96.242188 -70.695312 95.726562 -69.503906 95.15625 -68.328125 C 92.289062 -62.554688 89.398438 -56.789062 86.484375 -51.03125 C 85.460938 -48.988281 84.4375 -46.9375 83.40625 -44.875 C 76.644531 -31.363281 70.015625 -17.785156 63.515625 -4.140625 C 63.398438 -3.878906 63.28125 -3.628906 63.15625 -3.390625 C 63.007812 -3.097656 62.878906 -2.8125 62.765625 -2.53125 C 62.378906 -1.675781 62.351562 -1.125 62.6875 -0.875 C 63.03125 -0.625 63.570312 -0.539062 64.3125 -0.625 C 72.082031 -1.039062 80 -1.132812 88.0625 -0.90625 C 96.132812 -0.675781 104.144531 -0.347656 112.09375 0.078125 C 114.519531 0.179688 116.941406 0.300781 119.359375 0.4375 C 119.472656 0.4375 119.5625 0.4375 119.625 0.4375 C 119.945312 0.4375 120.265625 0.460938 120.578125 0.515625 C 120.898438 0.578125 121.1875 0.710938 121.4375 0.921875 Z M 121.4375 0.921875 "/></g></g><g transform="translate(141.104438, 161.45995)"><g><path d="M 67.28125 5.96875 C 67.570312 6.226562 67.703125 6.503906 67.671875 6.796875 C 67.640625 7.097656 67.550781 7.367188 67.40625 7.609375 C 67.40625 7.660156 67.40625 7.6875 67.40625 7.6875 C 66.375 10.125 64.820312 11.960938 62.75 13.203125 C 60.675781 14.441406 58.179688 14.957031 55.265625 14.75 C 52.460938 14.476562 50.265625 13.5 48.671875 11.8125 C 47.078125 10.125 46.15625 7.863281 45.90625 5.03125 C 45.800781 3.644531 45.851562 2.265625 46.0625 0.890625 C 46.28125 -0.472656 46.550781 -1.84375 46.875 -3.21875 C 47.082031 -4.070312 47.296875 -4.925781 47.515625 -5.78125 C 47.898438 -7.195312 48.238281 -8.628906 48.53125 -10.078125 C 48.945312 -12.347656 48.703125 -13.925781 47.796875 -14.8125 C 46.890625 -15.707031 45.609375 -16.179688 43.953125 -16.234375 C 42.304688 -16.285156 40.640625 -16.203125 38.953125 -15.984375 C 37.984375 -15.890625 37.097656 -15.820312 36.296875 -15.78125 C 35.972656 -15.78125 35.722656 -15.691406 35.546875 -15.515625 C 35.367188 -15.335938 35.207031 -15.140625 35.0625 -14.921875 C 34.207031 -13.398438 33.375 -11.859375 32.5625 -10.296875 C 25.039062 3.890625 16.882812 17.703125 8.09375 31.140625 C 6.738281 33.191406 5.335938 35.210938 3.890625 37.203125 C 3.566406 37.691406 3.203125 38.125 2.796875 38.5 C 2.398438 38.882812 1.910156 39.164062 1.328125 39.34375 C 0.265625 39.644531 -0.570312 39.570312 -1.1875 39.125 C -1.8125 38.6875 -2.101562 37.90625 -2.0625 36.78125 C -1.988281 35.46875 -1.789062 34.148438 -1.46875 32.828125 C 0.445312 24.816406 2.921875 17.957031 5.953125 12.25 C 8.984375 6.550781 12.640625 1.398438 16.921875 -3.203125 C 21.210938 -7.816406 26.160156 -12.472656 31.765625 -17.171875 C 32.648438 -17.878906 33.359375 -18.75 33.890625 -19.78125 C 34.640625 -21.195312 35.382812 -22.613281 36.125 -24.03125 C 38.863281 -29.300781 41.5625 -34.585938 44.21875 -39.890625 C 46.875 -45.191406 49.390625 -50.5625 51.765625 -56 C 54.097656 -61.414062 55.300781 -65.460938 55.375 -68.140625 C 55.445312 -70.828125 54.207031 -72.242188 51.65625 -72.390625 C 49.101562 -72.546875 45.078125 -71.53125 39.578125 -69.34375 C 34.191406 -67.175781 28.921875 -64.765625 23.765625 -62.109375 C 18.609375 -59.453125 13.523438 -56.617188 8.515625 -53.609375 C 6.640625 -52.503906 4.328125 -51.046875 1.578125 -49.234375 C -1.160156 -47.421875 -3.867188 -45.46875 -6.546875 -43.375 C -9.222656 -41.289062 -11.429688 -39.25 -13.171875 -37.25 C -14.453125 -35.738281 -14.769531 -34.707031 -14.125 -34.15625 C -13.488281 -33.613281 -12.210938 -33.300781 -10.296875 -33.21875 C -9.378906 -33.1875 -7.8125 -33.175781 -5.59375 -33.1875 C -3.375 -33.207031 -0.90625 -33.320312 1.8125 -33.53125 C 3.34375 -33.644531 4.832031 -33.757812 6.28125 -33.875 C 8.476562 -34.082031 10.359375 -34.222656 11.921875 -34.296875 C 13.484375 -34.367188 14.410156 -34.273438 14.703125 -34.015625 C 14.796875 -33.742188 13.707031 -33.4375 11.4375 -33.09375 C 9.175781 -32.757812 6.382812 -32.453125 3.0625 -32.171875 C -0.25 -31.890625 -3.460938 -31.71875 -6.578125 -31.65625 C -9.703125 -31.601562 -12.0625 -31.722656 -13.65625 -32.015625 C -16.46875 -32.609375 -17.75 -33.691406 -17.5 -35.265625 C -17.25 -36.847656 -15.894531 -38.753906 -13.4375 -40.984375 C -10.988281 -43.222656 -7.867188 -45.597656 -4.078125 -48.109375 C -0.296875 -50.628906 3.765625 -53.140625 8.109375 -55.640625 C 12.453125 -58.148438 16.65625 -60.472656 20.71875 -62.609375 C 24.78125 -64.753906 28.28125 -66.535156 31.21875 -67.953125 C 34.164062 -69.378906 36.15625 -70.300781 37.1875 -70.71875 C 41.40625 -72.425781 45.117188 -73.582031 48.328125 -74.1875 C 51.535156 -74.789062 54.046875 -74.628906 55.859375 -73.703125 C 57.671875 -72.773438 58.582031 -70.890625 58.59375 -68.046875 C 58.613281 -65.210938 57.546875 -61.210938 55.390625 -56.046875 C 53.648438 -51.929688 51.796875 -47.859375 49.828125 -43.828125 C 47.859375 -39.804688 45.859375 -35.796875 43.828125 -31.796875 C 43.054688 -30.265625 42.257812 -28.679688 41.4375 -27.046875 C 40.988281 -26.160156 40.5 -25.21875 39.96875 -24.21875 C 40.5625 -24.363281 41.039062 -24.550781 41.40625 -24.78125 C 41.78125 -25.019531 42.113281 -25.257812 42.40625 -25.5 C 42.550781 -25.613281 42.710938 -25.722656 42.890625 -25.828125 C 49.984375 -31.015625 57.726562 -36.238281 66.125 -41.5 C 74.519531 -46.757812 83.347656 -51.664062 92.609375 -56.21875 C 101.867188 -60.78125 111.335938 -64.566406 121.015625 -67.578125 C 130.703125 -70.585938 140.367188 -72.445312 150.015625 -73.15625 C 159.660156 -73.863281 169.078125 -73.019531 178.265625 -70.625 C 178.359375 -70.59375 178.457031 -70.503906 178.5625 -70.359375 C 178.664062 -70.210938 178.71875 -70.066406 178.71875 -69.921875 C 178.71875 -69.710938 178.640625 -69.546875 178.484375 -69.421875 C 178.335938 -69.304688 178.132812 -69.25 177.875 -69.25 C 177.695312 -69.195312 177.503906 -69.210938 177.296875 -69.296875 C 169.640625 -71.273438 161.703125 -72.035156 153.484375 -71.578125 C 145.273438 -71.117188 136.953125 -69.734375 128.515625 -67.421875 C 120.078125 -65.117188 111.71875 -62.160156 103.4375 -58.546875 C 95.164062 -54.929688 87.148438 -50.941406 79.390625 -46.578125 C 71.640625 -42.210938 64.351562 -37.742188 57.53125 -33.171875 C 50.707031 -28.597656 44.53125 -24.195312 39 -19.96875 C 38.96875 -19.9375 38.953125 -19.921875 38.953125 -19.921875 C 38.515625 -19.648438 38.101562 -19.335938 37.71875 -18.984375 C 37.332031 -18.628906 37.15625 -18.328125 37.1875 -18.078125 C 37.21875 -17.828125 37.660156 -17.71875 38.515625 -17.75 C 38.773438 -17.75 39.023438 -17.75 39.265625 -17.75 C 40.828125 -17.894531 42.46875 -17.9375 44.1875 -17.875 C 45.90625 -17.820312 47.472656 -17.53125 48.890625 -17 C 50.953125 -16.144531 51.984375 -14.617188 51.984375 -12.421875 C 51.953125 -11.390625 51.820312 -10.382812 51.59375 -9.40625 C 51.238281 -7.757812 50.867188 -6.125 50.484375 -4.5 C 50.097656 -2.726562 49.710938 -0.9375 49.328125 0.875 C 48.859375 3 48.929688 5.125 49.546875 7.25 C 50.140625 9.09375 51.070312 10.519531 52.34375 11.53125 C 53.613281 12.550781 55.066406 13.082031 56.703125 13.125 C 58.335938 13.175781 59.972656 12.671875 61.609375 11.609375 C 62.816406 10.796875 63.789062 9.753906 64.53125 8.484375 C 64.675781 8.191406 64.820312 7.898438 64.96875 7.609375 C 65.0625 7.335938 65.179688 7.070312 65.328125 6.8125 C 65.617188 6.363281 65.945312 6.054688 66.3125 5.890625 C 66.6875 5.734375 67.007812 5.757812 67.28125 5.96875 Z M 28.09375 -8.921875 C 28.125 -8.984375 28.179688 -9.070312 28.265625 -9.1875 C 28.390625 -9.425781 28.550781 -9.722656 28.75 -10.078125 C 28.957031 -10.429688 29.113281 -10.769531 29.21875 -11.09375 C 29.320312 -11.414062 29.328125 -11.613281 29.234375 -11.6875 C 29.148438 -11.757812 28.890625 -11.617188 28.453125 -11.265625 C 21.234375 -5.585938 15.554688 0.785156 11.421875 7.859375 C 7.285156 14.929688 4.1875 23.046875 2.125 32.203125 C 1.945312 33.003906 1.929688 33.445312 2.078125 33.53125 C 2.222656 33.625 2.457031 33.503906 2.78125 33.171875 C 3.101562 32.847656 3.410156 32.460938 3.703125 32.015625 C 4.003906 31.578125 4.226562 31.269531 4.375 31.09375 C 8.59375 24.5625 12.6875 17.972656 16.65625 11.328125 C 20.625 4.679688 24.4375 -2.066406 28.09375 -8.921875 Z M 28.09375 -8.921875 "/></g></g></g></g></g></g></g></g></g></g></mask><clipPath id="ad32ce3d6c"><path d="M 0.367188 0.527344 L 287.632812 0.527344 L 287.632812 267.714844 L 0.367188 267.714844 Z M 0.367188 0.527344 " clip-rule="nonzero"/></clipPath><clipPath id="51bfcff14b"><rect x="0" width="288" y="0" height="268"/></clipPath><clipPath id="42934e685a"><rect x="0" width="288" y="0" height="268"/></clipPath><clipPath id="1cad425ecb"><rect x="0" width="288" y="0" height="268"/></clipPath></defs><g clip-path="url(#dd14f60ce5)"><g clip-path="url(#a5199b60cc)"><g transform="matrix(1, 0, 0, 1, 0, 3)"><g clip-path="url(#3a63e85aea)"><g clip-path="url(#12f91a09b9)"><g clip-path="url(#ccdca11205)"><path fill="#d9d9d9" d="M 0.367188 0.386719 L 288.066406 0.386719 L 288.066406 285.855469 L 0.367188 285.855469 Z M 0.367188 0.386719 " fill-opacity="1" fill-rule="nonzero"/></g></g></g></g></g></g><g clip-path="url(#4c30132b2a)"><path fill="#2c2f4a" d="M 66.609375 30.285156 L 66.730469 30.363281 L 66.757812 30.25 Z M 114.027344 10.789062 C 114.847656 10.6875 115.664062 10.550781 116.484375 10.492188 C 121.136719 10.15625 125.78125 9.707031 130.4375 9.558594 C 135.316406 9.402344 140.210938 9.433594 145.09375 9.589844 C 151.082031 9.78125 157.066406 10.140625 163.050781 10.511719 C 165.925781 10.691406 168.804688 10.976562 171.660156 11.375 C 175.285156 11.882812 178.890625 12.523438 182.5 13.15625 C 187.917969 14.101562 193.238281 15.445312 198.421875 17.308594 C 209.683594 21.363281 220.433594 26.480469 230.617188 32.78125 C 230.964844 32.996094 231.277344 33.351562 231.894531 33.304688 C 231.59375 32.953125 231.394531 32.695312 231.167969 32.464844 C 227.015625 28.25 222.417969 24.605469 217.246094 21.707031 C 212.304688 18.941406 207.234375 16.425781 202.089844 14.0625 C 197.277344 11.855469 192.265625 10.257812 187.085938 9.195312 C 182.246094 8.203125 177.375 7.390625 172.480469 6.730469 C 166.101562 5.867188 159.738281 4.867188 153.320312 4.308594 C 151.054688 4.113281 148.777344 3.902344 146.507812 3.921875 C 142.503906 3.953125 138.546875 4.515625 134.625 5.324219 C 129.023438 6.476562 123.496094 7.910156 117.964844 9.339844 C 116.628906 9.6875 115.28125 9.996094 114.027344 10.789062 Z M 270 173.023438 C 270.09375 173.035156 270.1875 173.050781 270.28125 173.0625 C 270.421875 172.714844 270.582031 172.378906 270.695312 172.023438 C 271.691406 168.90625 272.726562 165.796875 273.664062 162.660156 C 275.148438 157.707031 276.085938 152.625 277.007812 147.546875 C 277.601562 144.261719 278.070312 140.96875 278.246094 137.636719 C 278.519531 132.40625 278.089844 127.203125 277.542969 122.007812 C 277.082031 117.644531 276.289062 113.332031 275.339844 109.046875 C 274.101562 103.460938 272.667969 97.933594 270.769531 92.527344 C 268.53125 86.183594 265.84375 80.03125 263.132812 73.886719 C 260.722656 68.414062 257.601562 63.378906 253.9375 58.667969 C 253.609375 58.242188 253.246094 57.839844 252.824219 57.339844 C 252.671875 57.96875 252.988281 58.332031 253.136719 58.722656 C 253.914062 60.742188 254.761719 62.738281 255.507812 64.769531 C 259.167969 74.746094 262.054688 84.933594 263.710938 95.445312 C 264.496094 100.4375 265.28125 105.425781 266.070312 110.417969 C 267.027344 116.449219 267.730469 122.519531 268.234375 128.605469 C 268.628906 133.363281 268.976562 138.125 269.195312 142.894531 C 269.445312 148.273438 269.546875 153.660156 269.675781 159.042969 C 269.777344 163.265625 269.828125 167.484375 269.90625 171.703125 C 269.914062 172.144531 269.96875 172.582031 270 173.023438 Z M 188.621094 277.542969 C 188.652344 277.625 188.679688 277.710938 188.707031 277.792969 C 190.449219 277.46875 192.191406 277.167969 193.929688 276.820312 C 198.066406 275.996094 202.175781 275.054688 206.160156 273.652344 C 215.503906 270.367188 224.082031 265.65625 231.917969 259.605469 C 237.441406 255.339844 242.363281 250.472656 246.453125 244.796875 C 250.257812 239.511719 253.550781 233.925781 256.304688 228.023438 C 259.253906 221.703125 261.265625 215.078125 262.648438 208.257812 C 263.132812 205.867188 263.503906 203.453125 263.921875 201.046875 C 263.96875 200.773438 264.007812 200.496094 264.003906 200.21875 C 264 199.980469 264.171875 199.679688 263.742188 199.484375 C 263.605469 199.710938 263.457031 199.929688 263.332031 200.160156 C 262.671875 201.382812 262.019531 202.605469 261.367188 203.828125 C 256.019531 213.875 249.585938 223.160156 241.925781 231.589844 C 238.15625 235.738281 234.445312 239.941406 230.640625 244.058594 C 228.269531 246.628906 225.84375 249.152344 223.324219 251.574219 C 213.101562 261.386719 201.78125 269.742188 189.574219 276.917969 C 189.25 277.109375 188.941406 277.335938 188.621094 277.542969 Z M 265.242188 163.097656 C 265.226562 163.097656 265.214844 163.097656 265.203125 163.097656 C 265.171875 161.988281 265.140625 160.878906 265.109375 159.769531 C 265 155.773438 264.882812 151.777344 264.785156 147.78125 C 264.628906 141.785156 264.261719 135.800781 263.695312 129.828125 C 263.261719 125.242188 262.871094 120.644531 262.222656 116.085938 C 261.160156 108.613281 259.957031 101.15625 258.707031 93.714844 C 256.875 82.832031 253.769531 72.304688 249.660156 62.070312 C 247.507812 56.707031 245.074219 51.472656 242.011719 46.550781 C 241.570312 45.835938 241.074219 45.191406 240.410156 44.660156 C 235.84375 41.019531 231.121094 37.617188 226.0625 34.675781 C 219.140625 30.648438 211.945312 27.191406 204.558594 24.121094 C 199.378906 21.96875 194.136719 19.96875 188.671875 18.667969 C 184.679688 17.714844 180.652344 16.898438 176.613281 16.152344 C 173.394531 15.558594 170.148438 15.097656 166.898438 14.699219 C 164.257812 14.378906 161.59375 14.203125 158.9375 14.023438 C 153.949219 13.691406 148.964844 13.351562 143.972656 13.109375 C 138.703125 12.855469 133.433594 12.664062 128.15625 12.984375 C 124.996094 13.171875 121.828125 13.253906 118.675781 13.488281 C 116.351562 13.660156 114.019531 13.878906 111.730469 14.292969 C 103.917969 15.714844 96.183594 17.441406 88.640625 19.988281 C 83.824219 21.609375 79.257812 23.660156 75.003906 26.464844 C 68.074219 31.035156 61.558594 36.101562 55.773438 42.082031 C 51.792969 46.195312 47.921875 50.40625 44.207031 54.757812 C 35.777344 64.632812 28.414062 75.25 22.226562 86.671875 C 21.804688 87.449219 21.386719 88.246094 21.101562 89.078125 C 18.183594 97.675781 16.203125 106.503906 15.042969 115.496094 C 14.21875 121.882812 13.886719 128.320312 14.179688 134.769531 C 14.34375 138.375 14.445312 141.984375 14.667969 145.582031 C 14.84375 148.410156 15.085938 151.234375 15.433594 154.042969 C 15.976562 158.449219 16.640625 162.84375 17.238281 167.242188 C 18.183594 174.238281 19.558594 181.148438 21.308594 187.984375 C 23.457031 196.386719 26.019531 204.648438 29.585938 212.574219 C 31.527344 216.878906 33.449219 221.183594 35.824219 225.277344 C 38.753906 230.335938 42.09375 235.101562 45.828125 239.605469 C 49.128906 243.582031 52.457031 247.535156 56.191406 251.117188 C 59.914062 254.691406 63.785156 258.117188 67.515625 261.691406 C 69.433594 263.527344 71.621094 264.851562 74 265.972656 C 85.238281 271.269531 96.898438 275.332031 109.027344 278.035156 C 114.886719 279.339844 120.800781 280.300781 126.789062 280.769531 C 131.21875 281.117188 135.660156 281.246094 140.101562 281.25 C 147.378906 281.253906 154.652344 281.3125 161.921875 280.871094 C 166.304688 280.609375 170.667969 280.1875 175.03125 279.753906 C 175.808594 279.675781 176.542969 279.449219 177.257812 279.109375 C 183.082031 276.34375 188.785156 273.359375 194.125 269.726562 C 196.878906 267.851562 199.609375 265.9375 202.304688 263.976562 C 210.867188 257.757812 218.800781 250.808594 225.96875 243.023438 C 231.199219 237.34375 236.304688 231.550781 241.414062 225.765625 C 244.355469 222.429688 247.113281 218.941406 249.621094 215.265625 C 255.304688 206.9375 259.984375 198.054688 264.203125 188.914062 C 264.894531 187.414062 265.234375 185.882812 265.238281 184.261719 C 265.246094 177.203125 265.242188 170.148438 265.242188 163.097656 Z M 14.710938 103.914062 C 14.117188 104.105469 14.15625 104.699219 14.007812 105.125 C 11.59375 111.9375 9.714844 118.902344 8.3125 125.988281 C 7.296875 131.109375 6.304688 136.230469 5.417969 141.371094 C 4.832031 144.761719 4.34375 148.175781 4 151.597656 C 3.664062 154.960938 3.496094 158.347656 3.363281 161.730469 C 3.1875 166.230469 3.273438 170.726562 3.714844 175.210938 C 4.335938 181.519531 5.402344 187.753906 6.960938 193.898438 C 8.675781 200.644531 10.910156 207.195312 14.242188 213.34375 C 20.34375 224.597656 28.039062 234.542969 37.996094 242.671875 C 43.601562 247.246094 49.542969 251.339844 55.585938 255.296875 C 55.792969 255.433594 56.019531 255.539062 56.355469 255.722656 C 56.265625 255.457031 56.261719 255.332031 56.195312 255.269531 C 51.578125 250.839844 47.449219 245.96875 43.425781 241.003906 C 39.109375 235.679688 35.304688 230.007812 32.210938 223.894531 C 30.332031 220.183594 28.621094 216.382812 26.972656 212.5625 C 22.777344 202.839844 19.953125 192.6875 17.628906 182.382812 C 15.851562 174.515625 14.808594 166.535156 13.699219 158.5625 C 12.851562 152.457031 12.386719 146.308594 12.085938 140.152344 C 11.789062 134.050781 11.792969 127.945312 12.199219 121.839844 C 12.527344 116.898438 13.21875 112.015625 14.15625 107.15625 C 14.367188 106.070312 14.5 104.96875 14.667969 103.867188 C 14.71875 103.796875 14.777344 103.722656 14.820312 103.644531 C 14.828125 103.632812 14.785156 103.589844 14.761719 103.558594 C 14.746094 103.675781 14.726562 103.796875 14.710938 103.914062 Z M 83.683594 275.109375 C 83.605469 275.0625 83.527344 275.007812 83.449219 274.960938 C 83.457031 275.027344 83.464844 275.097656 83.472656 275.167969 C 83.550781 275.132812 83.632812 275.097656 83.714844 275.058594 C 83.769531 275.246094 83.765625 275.503906 83.890625 275.613281 C 84.5625 276.191406 85.265625 276.738281 85.964844 277.285156 C 90.773438 281.054688 96.035156 283.976562 101.921875 285.703125 C 105.175781 286.65625 108.492188 287.324219 111.828125 287.898438 C 115.453125 288.523438 119.09375 288.859375 122.769531 288.796875 C 125.375 288.753906 127.984375 288.65625 130.59375 288.589844 C 137.265625 288.425781 143.871094 287.546875 150.484375 286.746094 C 151.234375 286.65625 151.96875 286.496094 152.710938 286.367188 C 152.480469 286.199219 152.261719 286.160156 152.042969 286.160156 C 146.15625 286.1875 140.273438 286.128906 134.386719 285.925781 C 127.996094 285.699219 121.636719 285.203125 115.339844 284.078125 C 105.371094 282.304688 95.65625 279.589844 86.195312 275.980469 C 85.367188 275.664062 84.523438 275.394531 83.683594 275.109375 Z M 28.933594 70.777344 C 29.363281 70.832031 29.46875 70.457031 29.648438 70.207031 C 31.238281 67.996094 32.785156 65.757812 34.40625 63.574219 C 39.347656 56.914062 44.820312 50.710938 50.570312 44.746094 C 55.15625 39.980469 59.921875 35.402344 65.28125 31.484375 C 65.476562 31.34375 65.644531 31.160156 65.863281 30.96875 C 65.3125 30.730469 65.035156 31.101562 64.742188 31.296875 C 62.851562 32.5625 60.917969 33.777344 59.117188 35.167969 C 54.097656 39.035156 49.417969 43.292969 45.039062 47.886719 C 38.753906 54.492188 33.5 61.820312 29.261719 69.886719 C 29.113281 70.164062 29.066406 70.5 28.972656 70.808594 C 28.882812 70.859375 28.796875 70.910156 28.710938 70.960938 C 28.757812 71.046875 28.808594 71.128906 28.855469 71.210938 C 28.890625 71.167969 28.957031 71.128906 28.957031 71.085938 C 28.964844 70.984375 28.945312 70.882812 28.933594 70.777344 Z M 127.636719 292.222656 C 124.402344 292.222656 122.011719 292.238281 119.625 292.21875 C 116.226562 292.195312 112.867188 291.742188 109.535156 291.109375 C 106.429688 290.519531 103.335938 289.871094 100.3125 288.910156 C 95.722656 287.453125 91.464844 285.347656 87.539062 282.5625 C 83.59375 279.761719 79.839844 276.707031 76.242188 273.484375 C 73.660156 271.171875 70.898438 269.226562 67.816406 267.613281 C 61.308594 264.214844 55.261719 260.050781 49.222656 255.890625 C 44.1875 252.425781 39.257812 248.816406 34.644531 244.796875 C 23.359375 234.957031 14.800781 223.121094 8.855469 209.410156 C 6.328125 203.585938 4.671875 197.472656 3.292969 191.285156 C 2.0625 185.746094 1.191406 180.152344 0.753906 174.5 C 0.441406 170.460938 0.230469 166.410156 0.523438 162.351562 C 0.695312 159.917969 0.742188 157.472656 0.882812 155.035156 C 1.152344 150.3125 1.828125 145.640625 2.707031 141.003906 C 3.847656 135.003906 5 129.003906 6.300781 123.042969 C 8.558594 112.707031 11.78125 102.679688 16.316406 93.097656 C 17.007812 91.644531 17.710938 90.191406 18.472656 88.777344 C 19.214844 87.402344 19.804688 85.972656 20.328125 84.507812 C 23.589844 75.425781 27.871094 66.851562 33.199219 58.800781 C 36.800781 53.363281 40.996094 48.410156 45.511719 43.71875 C 48.710938 40.390625 52.128906 37.296875 55.660156 34.328125 C 58.945312 31.570312 62.402344 29.0625 66.167969 27 C 69.621094 25.105469 73.074219 23.195312 76.585938 21.410156 C 79.007812 20.183594 81.539062 19.167969 84.015625 18.046875 C 93.328125 13.828125 102.898438 10.273438 112.59375 7.058594 C 117.339844 5.488281 122.21875 4.398438 127.050781 3.136719 C 130.863281 2.140625 134.707031 1.277344 138.605469 0.667969 C 142.296875 0.0898438 146.007812 -0.0898438 149.734375 0.0429688 C 155.234375 0.242188 160.6875 0.929688 166.132812 1.6875 C 169.761719 2.191406 173.402344 2.628906 177.027344 3.15625 C 182.414062 3.9375 187.78125 4.832031 193.054688 6.179688 C 196.71875 7.121094 200.269531 8.398438 203.71875 9.949219 C 208.476562 12.089844 213.167969 14.378906 217.757812 16.863281 C 226.070312 21.367188 233.160156 27.347656 239.097656 34.699219 C 241.191406 37.292969 243.152344 39.992188 244.945312 42.804688 C 245.578125 43.796875 246.34375 44.644531 247.183594 45.464844 C 253.742188 51.859375 259.472656 58.898438 263.925781 66.9375 C 264.355469 67.714844 264.757812 68.507812 265.140625 69.308594 C 269.46875 78.449219 273.53125 87.699219 276.464844 97.394531 C 278.558594 104.3125 280.203125 111.34375 281.230469 118.496094 C 282.160156 124.992188 282.628906 131.527344 282.335938 138.097656 C 282.207031 140.988281 281.8125 143.847656 281.320312 146.695312 C 280.351562 152.273438 279.316406 157.839844 277.777344 163.300781 C 275.820312 170.253906 273.472656 177.074219 270.757812 183.765625 C 270.011719 185.597656 269.691406 187.4375 269.59375 189.40625 C 269.046875 200.546875 267.316406 211.488281 263.699219 222.078125 C 262.152344 226.605469 260.199219 230.960938 257.945312 235.179688 C 254.925781 240.820312 251.554688 246.238281 247.621094 251.296875 C 243.253906 256.90625 238.101562 261.695312 232.390625 265.898438 C 225.554688 270.929688 218.152344 274.933594 210.214844 277.949219 C 205.582031 279.707031 200.785156 280.863281 195.933594 281.820312 C 190.316406 282.925781 184.652344 283.691406 178.980469 284.414062 C 177.878906 284.554688 176.773438 284.734375 175.667969 284.769531 C 173.699219 284.835938 171.847656 285.328125 169.996094 285.964844 C 164.519531 287.84375 158.886719 289.070312 153.15625 289.875 C 147.820312 290.628906 142.472656 291.28125 137.105469 291.714844 C 133.675781 291.992188 130.230469 292.089844 127.636719 292.222656 " fill-opacity="1" fill-rule="nonzero"/></g><g clip-path="url(#4d9bd80de7)"><g transform="matrix(1, 0, 0, 1, 0, 12)"><g clip-path="url(#1cad425ecb)"><g fill="#2c2f4a" fill-opacity="1"><g transform="translate(64.507402, 161.45995)"><g><path d="M 122.277344 -0.742188 C 122.578125 -0.589844 122.851562 -0.371094 123.089844 -0.0742188 C 123.441406 0.355469 123.617188 0.847656 123.617188 1.402344 C 123.617188 2.09375 123.386719 2.671875 122.917969 3.136719 C 122.449219 3.605469 121.886719 3.839844 121.230469 3.839844 L 121.136719 3.839844 L 120.5625 3.78125 L 120.746094 1.933594 L 121.578125 3.59375 C 121.25 3.757812 120.925781 3.839844 120.601562 3.839844 L 120.550781 3.839844 L 120.5 3.835938 C 111.578125 3.339844 102.789062 3.039062 94.128906 2.933594 C 85.449219 2.828125 76.699219 2.792969 67.875 2.824219 L 63.566406 2.824219 C 63.03125 2.824219 62.636719 2.902344 62.390625 3.054688 C 62.164062 3.195312 61.933594 3.519531 61.703125 4.03125 C 59.429688 9.203125 57.109375 14.363281 54.734375 19.515625 L 50.890625 27.925781 C 49.980469 29.953125 49.085938 32.007812 48.207031 34.089844 L 48.195312 34.109375 L 48.1875 34.132812 C 47.730469 35.140625 47.296875 36.152344 46.886719 37.160156 L 45.164062 36.460938 L 46.925781 37.046875 C 46.835938 37.320312 46.695312 37.589844 46.507812 37.855469 L 44.996094 36.773438 L 46.808594 37.179688 C 46.6875 37.722656 46.460938 38.21875 46.128906 38.671875 L 45.996094 38.855469 L 45.820312 39 C 45.234375 39.488281 44.515625 39.773438 43.671875 39.847656 C 42.789062 39.921875 42.003906 39.738281 41.308594 39.292969 C 40.730469 38.921875 40.355469 38.40625 40.1875 37.75 C 40.058594 37.246094 40.070312 36.699219 40.230469 36.117188 L 40.25 36.042969 L 40.277344 35.972656 C 40.617188 35.035156 40.992188 34.125 41.398438 33.242188 L 51.664062 9.960938 L 54.105469 4.46875 L 55.804688 5.222656 L 54.085938 4.515625 C 54.195312 4.246094 54.316406 3.953125 54.441406 3.636719 L 54.472656 3.566406 C 54.765625 2.914062 55.058594 2.273438 55.351562 1.640625 L 57.035156 2.417969 L 55.304688 1.75 C 55.3125 1.726562 55.316406 1.714844 55.320312 1.707031 C 55.3125 1.726562 55.3125 1.75 55.308594 1.78125 C 55.292969 1.964844 55.328125 2.15625 55.414062 2.351562 C 55.53125 2.609375 55.710938 2.8125 55.949219 2.953125 C 56.066406 3.023438 56.171875 3.0625 56.269531 3.074219 L 56.503906 1.234375 L 56.550781 3.089844 C 52.0625 3.203125 47.597656 3.402344 43.15625 3.691406 L 36.023438 4.054688 L 35.996094 4.054688 C 35.695312 4.0625 35.460938 4.125 35.292969 4.238281 C 35.125 4.351562 34.980469 4.554688 34.855469 4.839844 L 34.84375 4.867188 L 34.832031 4.890625 C 32.488281 9.957031 30.042969 14.984375 27.5 19.96875 C 26.015625 22.902344 24.507812 25.851562 22.972656 28.804688 L 21.273438 32.011719 L 19.632812 31.140625 L 21.308594 31.941406 C 20.953125 32.691406 20.558594 33.398438 20.125 34.0625 L 20.101562 34.105469 L 20.070312 34.144531 C 19.394531 35.078125 18.480469 35.648438 17.332031 35.859375 C 16.324219 36.042969 15.410156 35.972656 14.589844 35.648438 C 14.015625 35.425781 13.566406 35.09375 13.242188 34.660156 C 12.847656 34.136719 12.675781 33.535156 12.726562 32.859375 L 12.738281 32.734375 L 12.765625 32.613281 C 12.96875 31.667969 13.253906 30.773438 13.625 29.917969 L 15.328125 30.65625 L 13.597656 29.984375 C 16.164062 23.414062 18.960938 16.953125 21.996094 10.609375 L 25.183594 3.894531 L 26.863281 4.691406 L 25.144531 3.988281 C 25.148438 3.972656 25.152344 3.960938 25.15625 3.957031 C 25.148438 3.984375 25.144531 4.015625 25.140625 4.054688 C 25.121094 4.257812 25.164062 4.460938 25.265625 4.667969 C 25.386719 4.917969 25.5625 5.109375 25.792969 5.238281 C 25.890625 5.292969 25.972656 5.324219 26.039062 5.335938 C 25.511719 5.265625 24.667969 5.296875 23.511719 5.425781 L 23.410156 5.433594 L 23.140625 5.433594 L 23.140625 3.578125 L 23.308594 5.425781 C 21.089844 5.632812 18.808594 5.945312 16.464844 6.363281 C 14.132812 6.777344 12.625 7.082031 11.941406 7.277344 L 11.90625 7.285156 L 11.867188 7.292969 C 10.984375 7.503906 10.082031 7.613281 9.164062 7.613281 L 9.164062 5.753906 L 10.476562 7.066406 C 10.066406 7.476562 9.570312 7.683594 8.996094 7.683594 C 8.585938 7.683594 8.195312 7.570312 7.820312 7.347656 L 8.777344 5.753906 L 9.097656 7.582031 L 8.527344 7.683594 L 8.367188 7.683594 C 7.796875 7.683594 7.269531 7.496094 6.789062 7.125 C 6.496094 6.894531 6.269531 6.617188 6.105469 6.292969 C 5.941406 5.960938 5.855469 5.601562 5.855469 5.222656 L 5.855469 4.921875 L 5.953125 4.636719 C 6.027344 4.40625 6.148438 4.15625 6.308594 3.890625 C 6.5625 3.476562 6.886719 3.15625 7.273438 2.933594 L 7.421875 2.851562 L 7.578125 2.792969 C 10.539062 1.75 13.558594 1.027344 16.636719 0.625 C 20.007812 0.125 23.394531 -0.304688 26.789062 -0.660156 L 26.859375 -0.667969 L 26.929688 -0.671875 C 27.148438 -0.675781 27.3125 -0.714844 27.417969 -0.785156 C 27.519531 -0.851562 27.613281 -0.972656 27.695312 -1.148438 C 28.695312 -3.199219 29.730469 -5.242188 30.804688 -7.273438 C 32.085938 -9.675781 33.390625 -12.066406 34.71875 -14.445312 L 36.339844 -13.539062 L 34.683594 -14.382812 C 35.140625 -15.277344 35.605469 -16.171875 36.074219 -17.066406 L 36.15625 -17.222656 L 36.269531 -17.359375 C 36.25 -17.335938 36.238281 -17.316406 36.226562 -17.296875 L 37.886719 -16.464844 L 36.191406 -17.21875 C 36.375 -17.632812 36.59375 -18.011719 36.847656 -18.363281 L 36.890625 -18.417969 L 36.9375 -18.472656 C 37.726562 -19.390625 38.386719 -20.382812 38.921875 -21.453125 C 39.503906 -22.613281 40.03125 -23.804688 40.511719 -25.027344 L 40.527344 -25.070312 L 40.550781 -25.117188 C 40.785156 -25.632812 41.011719 -26.152344 41.230469 -26.667969 C 45.523438 -36.351562 49.757812 -46.050781 53.929688 -55.761719 C 55.804688 -59.925781 57.246094 -64.203125 58.25 -68.597656 L 58.253906 -68.621094 L 58.261719 -68.644531 C 58.621094 -70.042969 58.710938 -71.4375 58.53125 -72.828125 L 60.375 -73.066406 L 58.558594 -72.667969 C 58.546875 -72.71875 58.539062 -72.753906 58.527344 -72.769531 C 58.542969 -72.746094 58.5625 -72.722656 58.59375 -72.699219 C 58.613281 -72.683594 58.628906 -72.675781 58.636719 -72.671875 C 58.589844 -72.6875 58.527344 -72.695312 58.4375 -72.699219 C 57.664062 -72.730469 56.664062 -72.503906 55.4375 -72.027344 C 54.03125 -71.476562 52.566406 -70.8125 51.042969 -70.027344 C 49.507812 -69.234375 48.121094 -68.457031 46.886719 -67.699219 C 45.621094 -66.921875 44.683594 -66.34375 44.078125 -65.960938 L 43.976562 -65.898438 C 43.910156 -65.863281 43.855469 -65.835938 43.816406 -65.8125 C 43.808594 -65.804688 43.800781 -65.800781 43.796875 -65.796875 C 43.808594 -65.804688 43.820312 -65.816406 43.835938 -65.828125 L 43.773438 -65.777344 L 43.703125 -65.734375 C 27.214844 -55.480469 12.453125 -43.160156 -0.582031 -28.78125 C -2.003906 -27.21875 -3.363281 -25.605469 -4.667969 -23.941406 C -5.945312 -22.304688 -7.121094 -20.578125 -8.191406 -18.761719 C -8.960938 -17.460938 -9.574219 -16.101562 -10.03125 -14.6875 L -11.800781 -15.257812 L -10 -14.792969 C -10.464844 -12.992188 -10.398438 -11.699219 -9.804688 -10.917969 C -9.117188 -10.019531 -8.035156 -9.40625 -6.558594 -9.078125 C -4.808594 -8.6875 -2.894531 -8.554688 -0.820312 -8.671875 C 1.363281 -8.796875 3.417969 -9.019531 5.339844 -9.339844 C 7.257812 -9.65625 8.726562 -9.96875 9.75 -10.269531 L 9.792969 -10.28125 L 9.832031 -10.289062 C 11.152344 -10.617188 12.480469 -10.925781 13.820312 -11.21875 L 13.847656 -11.226562 L 13.878906 -11.230469 C 14.214844 -11.292969 14.5 -11.335938 14.734375 -11.359375 C 15.113281 -11.394531 15.441406 -11.378906 15.714844 -11.316406 C 16.1875 -11.210938 16.5625 -10.972656 16.847656 -10.605469 C 17.089844 -10.289062 17.222656 -9.929688 17.246094 -9.53125 C 17.257812 -9.230469 17.207031 -8.941406 17.085938 -8.660156 C 16.925781 -8.292969 16.640625 -7.960938 16.234375 -7.671875 C 15.601562 -7.226562 14.382812 -6.664062 12.570312 -5.984375 C 10.847656 -5.339844 8.785156 -4.714844 6.390625 -4.109375 C 3.972656 -3.5 1.476562 -3.066406 -1.09375 -2.808594 C -3.738281 -2.539062 -6.230469 -2.597656 -8.566406 -2.980469 C -11.109375 -3.394531 -13.203125 -4.359375 -14.847656 -5.878906 C -16.609375 -7.503906 -17.507812 -9.824219 -17.546875 -12.839844 L -17.546875 -13.152344 C -17.453125 -14.957031 -17.023438 -16.675781 -16.261719 -18.3125 L -14.578125 -17.53125 L -16.28125 -18.269531 C -15.105469 -20.976562 -13.605469 -23.492188 -11.785156 -25.808594 C -9.941406 -28.207031 -8.015625 -30.527344 -6 -32.769531 C 6.882812 -46.90625 21.390625 -59.101562 37.519531 -69.363281 C 39.425781 -70.585938 41.644531 -71.921875 44.167969 -73.371094 C 46.757812 -74.859375 49.421875 -76.105469 52.164062 -77.117188 C 55.039062 -78.179688 57.753906 -78.65625 60.304688 -78.550781 C 62.050781 -78.449219 63.4375 -77.910156 64.464844 -76.929688 C 65.496094 -75.949219 66.09375 -74.597656 66.257812 -72.882812 L 64.410156 -72.703125 L 66.253906 -72.925781 C 66.386719 -71.832031 66.382812 -70.765625 66.238281 -69.722656 C 66.109375 -68.765625 65.921875 -67.808594 65.679688 -66.855469 C 65.652344 -66.746094 65.625 -66.628906 65.59375 -66.5 C 65.109375 -64.292969 64.484375 -62.136719 63.710938 -60.035156 C 62.960938 -57.980469 62.148438 -55.945312 61.28125 -53.933594 C 54.003906 -36.640625 46.390625 -19.511719 38.433594 -2.546875 C 38.203125 -2.078125 37.996094 -1.597656 37.800781 -1.109375 L 37.777344 -1.054688 C 37.734375 -0.953125 37.707031 -0.871094 37.691406 -0.804688 C 37.691406 -0.796875 37.6875 -0.792969 37.6875 -0.789062 L 37.6875 -0.792969 C 37.691406 -0.8125 37.691406 -0.835938 37.6875 -0.863281 C 37.679688 -0.984375 37.644531 -1.109375 37.578125 -1.230469 C 37.503906 -1.375 37.40625 -1.488281 37.285156 -1.582031 C 37.269531 -1.589844 37.261719 -1.597656 37.253906 -1.601562 C 37.253906 -1.601562 37.257812 -1.597656 37.265625 -1.59375 C 37.308594 -1.578125 37.367188 -1.5625 37.4375 -1.542969 C 37.667969 -1.496094 37.964844 -1.46875 38.335938 -1.46875 C 39.296875 -1.46875 40.433594 -1.515625 41.746094 -1.609375 L 41.8125 -1.613281 L 41.875 -1.613281 C 41.945312 -1.613281 42.015625 -1.625 42.089844 -1.640625 L 42.261719 -1.679688 L 42.4375 -1.6875 C 43.304688 -1.71875 44.1875 -1.765625 45.082031 -1.828125 C 49.183594 -2.152344 53.253906 -2.371094 57.300781 -2.484375 L 57.351562 -2.484375 C 57.371094 -2.484375 57.382812 -2.484375 57.398438 -2.488281 L 57.394531 -2.488281 C 57.363281 -2.480469 57.328125 -2.464844 57.289062 -2.441406 C 57.210938 -2.390625 57.160156 -2.34375 57.136719 -2.296875 L 57.152344 -2.328125 L 57.164062 -2.355469 C 57.472656 -2.972656 57.765625 -3.59375 58.042969 -4.226562 C 63.300781 -15.789062 68.761719 -27.238281 74.429688 -38.574219 C 80.089844 -49.894531 85.832031 -61.179688 91.65625 -72.421875 L 93.304688 -71.566406 L 91.609375 -72.320312 C 91.695312 -72.515625 91.792969 -72.710938 91.898438 -72.90625 L 93.523438 -72.003906 L 91.792969 -72.683594 C 92.117188 -73.503906 92.609375 -74.195312 93.265625 -74.75 L 93.40625 -74.871094 L 93.570312 -74.960938 C 94.171875 -75.289062 94.84375 -75.457031 95.589844 -75.457031 C 96.382812 -75.457031 97.082031 -75.257812 97.6875 -74.867188 C 97.976562 -74.679688 98.214844 -74.445312 98.402344 -74.164062 C 98.589844 -73.878906 98.714844 -73.566406 98.777344 -73.222656 C 98.863281 -72.730469 98.804688 -72.203125 98.609375 -71.648438 L 96.859375 -72.269531 L 98.644531 -71.757812 C 98.582031 -71.535156 98.488281 -71.308594 98.375 -71.074219 L 96.714844 -71.90625 L 98.445312 -71.238281 C 97.960938 -69.984375 97.425781 -68.746094 96.839844 -67.523438 L 88.144531 -50.207031 L 85.078125 -44.046875 C 78.3125 -30.546875 71.683594 -16.976562 65.191406 -3.335938 L 63.515625 -4.132812 L 65.21875 -3.390625 C 65.085938 -3.089844 64.945312 -2.796875 64.792969 -2.511719 L 63.152344 -3.386719 L 64.816406 -2.554688 C 64.691406 -2.304688 64.578125 -2.0625 64.484375 -1.832031 L 64.472656 -1.800781 L 64.457031 -1.773438 C 64.398438 -1.640625 64.355469 -1.527344 64.328125 -1.433594 C 64.320312 -1.40625 64.3125 -1.386719 64.3125 -1.371094 C 64.3125 -1.375 64.3125 -1.386719 64.3125 -1.402344 C 64.320312 -1.527344 64.292969 -1.660156 64.238281 -1.804688 C 64.148438 -2.035156 64 -2.226562 63.796875 -2.375 C 63.746094 -2.414062 63.695312 -2.441406 63.648438 -2.460938 C 63.636719 -2.464844 63.628906 -2.46875 63.621094 -2.46875 C 63.625 -2.46875 63.632812 -2.46875 63.640625 -2.464844 C 63.75 -2.449219 63.90625 -2.453125 64.113281 -2.476562 L 64.214844 -2.484375 C 72.035156 -2.90625 80.003906 -2.996094 88.125 -2.761719 C 96.207031 -2.527344 104.226562 -2.203125 112.1875 -1.78125 L 119.460938 -1.417969 L 119.367188 0.433594 L 119.367188 -1.421875 L 119.632812 -1.421875 C 120.066406 -1.421875 120.496094 -1.382812 120.917969 -1.308594 C 121.546875 -1.195312 122.113281 -0.933594 122.617188 -0.523438 L 121.449219 0.917969 Z M 120.617188 2.578125 L 120.433594 2.488281 L 120.277344 2.359375 C 120.265625 2.351562 120.261719 2.347656 120.257812 2.347656 C 120.257812 2.347656 120.261719 2.347656 120.261719 2.347656 C 120.054688 2.3125 119.847656 2.292969 119.632812 2.292969 L 119.324219 2.292969 L 111.992188 1.925781 C 104.0625 1.507812 96.070312 1.183594 88.015625 0.949219 C 80 0.71875 72.132812 0.808594 64.414062 1.226562 L 64.3125 -0.628906 L 64.515625 1.21875 C 63.292969 1.351562 62.320312 1.148438 61.589844 0.613281 C 61.21875 0.335938 60.949219 -0.015625 60.78125 -0.449219 C 60.644531 -0.792969 60.585938 -1.164062 60.605469 -1.566406 C 60.625 -2.078125 60.785156 -2.660156 61.074219 -3.304688 L 62.765625 -2.539062 L 61.050781 -3.246094 C 61.179688 -3.5625 61.328125 -3.882812 61.492188 -4.214844 L 61.503906 -4.238281 L 61.515625 -4.257812 C 61.621094 -4.457031 61.722656 -4.664062 61.816406 -4.878906 L 61.839844 -4.933594 C 68.339844 -18.597656 74.980469 -32.1875 81.753906 -45.703125 L 84.828125 -51.875 L 93.492188 -69.128906 C 94.035156 -70.265625 94.53125 -71.414062 94.980469 -72.574219 L 95.011719 -72.65625 L 95.050781 -72.738281 C 95.0625 -72.753906 95.070312 -72.769531 95.074219 -72.785156 L 95.074219 -72.777344 L 95.089844 -72.835938 L 95.109375 -72.890625 C 95.113281 -72.898438 95.113281 -72.90625 95.113281 -72.910156 C 95.113281 -72.898438 95.109375 -72.886719 95.109375 -72.871094 C 95.09375 -72.785156 95.097656 -72.6875 95.117188 -72.585938 C 95.144531 -72.414062 95.210938 -72.257812 95.308594 -72.109375 C 95.40625 -71.960938 95.527344 -71.84375 95.667969 -71.75 C 95.683594 -71.742188 95.695312 -71.734375 95.703125 -71.730469 C 95.679688 -71.738281 95.640625 -71.742188 95.589844 -71.742188 C 95.480469 -71.742188 95.402344 -71.730469 95.359375 -71.707031 L 94.464844 -73.332031 L 95.664062 -71.914062 C 95.484375 -71.761719 95.34375 -71.566406 95.25 -71.324219 L 95.203125 -71.207031 L 95.144531 -71.101562 C 95.089844 -71.003906 95.042969 -70.910156 95 -70.8125 L 94.980469 -70.761719 L 94.953125 -70.714844 C 89.136719 -59.488281 83.402344 -48.21875 77.75 -36.910156 C 72.101562 -25.617188 66.667969 -14.226562 61.445312 -2.734375 C 61.140625 -2.046875 60.824219 -1.367188 60.488281 -0.691406 L 58.824219 -1.523438 L 60.511719 -0.746094 C 60.21875 -0.105469 59.785156 0.390625 59.214844 0.734375 C 58.671875 1.0625 58.050781 1.226562 57.351562 1.226562 L 57.351562 -0.628906 L 57.402344 1.226562 C 53.421875 1.339844 49.402344 1.554688 45.34375 1.875 C 44.402344 1.941406 43.480469 1.992188 42.574219 2.023438 L 42.503906 0.167969 L 42.921875 1.980469 C 42.578125 2.058594 42.226562 2.097656 41.875 2.097656 L 41.875 0.242188 L 42.007812 2.09375 C 40.609375 2.195312 39.386719 2.242188 38.335938 2.242188 C 36.921875 2.242188 35.835938 1.964844 35.082031 1.410156 C 34.746094 1.164062 34.480469 0.859375 34.292969 0.496094 C 34.109375 0.152344 34.007812 -0.222656 33.980469 -0.628906 C 33.945312 -1.207031 34.074219 -1.839844 34.367188 -2.523438 L 36.074219 -1.789062 L 34.347656 -2.46875 C 34.574219 -3.046875 34.8125 -3.597656 35.070312 -4.125 C 43.007812 -21.042969 50.605469 -38.136719 57.871094 -55.402344 C 58.710938 -57.351562 59.496094 -59.324219 60.226562 -61.316406 C 60.9375 -63.257812 61.519531 -65.253906 61.96875 -67.304688 C 62.003906 -67.464844 62.042969 -67.621094 62.078125 -67.769531 C 62.289062 -68.589844 62.449219 -69.40625 62.558594 -70.222656 C 62.660156 -70.953125 62.660156 -71.703125 62.566406 -72.480469 L 62.566406 -72.503906 L 62.5625 -72.527344 C 62.484375 -73.324219 62.265625 -73.898438 61.902344 -74.242188 C 61.535156 -74.59375 60.949219 -74.792969 60.152344 -74.839844 C 58.09375 -74.925781 55.859375 -74.523438 53.449219 -73.632812 C 50.902344 -72.695312 48.425781 -71.535156 46.015625 -70.152344 C 43.546875 -68.730469 41.375 -67.425781 39.511719 -66.230469 C 23.660156 -56.148438 9.414062 -44.167969 -3.238281 -30.289062 C -5.1875 -28.113281 -7.0625 -25.855469 -8.863281 -23.515625 C -10.492188 -21.449219 -11.828125 -19.207031 -12.875 -16.789062 L -12.886719 -16.765625 L -12.894531 -16.746094 C -13.457031 -15.546875 -13.769531 -14.285156 -13.835938 -12.960938 L -15.691406 -13.054688 L -13.835938 -13.054688 L -13.835938 -12.886719 C -13.808594 -10.9375 -13.308594 -9.511719 -12.328125 -8.605469 C -11.230469 -7.59375 -9.777344 -6.9375 -7.96875 -6.644531 C -5.957031 -6.316406 -3.789062 -6.269531 -1.46875 -6.5 C 0.925781 -6.742188 3.242188 -7.144531 5.480469 -7.710938 C 7.742188 -8.285156 9.671875 -8.867188 11.269531 -9.464844 C 12.777344 -10.027344 13.71875 -10.441406 14.085938 -10.703125 C 14.074219 -10.695312 14.050781 -10.675781 14.023438 -10.648438 C 13.882812 -10.511719 13.765625 -10.339844 13.679688 -10.140625 C 13.570312 -9.886719 13.519531 -9.621094 13.535156 -9.34375 C 13.554688 -8.964844 13.679688 -8.628906 13.910156 -8.332031 C 14.167969 -8 14.492188 -7.789062 14.882812 -7.699219 C 14.976562 -7.675781 15.0625 -7.664062 15.136719 -7.664062 C 15.121094 -7.664062 15.105469 -7.664062 15.085938 -7.660156 C 14.960938 -7.648438 14.785156 -7.621094 14.554688 -7.578125 L 14.21875 -9.40625 L 14.613281 -7.589844 C 13.308594 -7.304688 12.011719 -7.003906 10.722656 -6.683594 L 10.277344 -8.488281 L 10.800781 -6.707031 C 9.632812 -6.363281 8.015625 -6.019531 5.949219 -5.675781 C 3.894531 -5.335938 1.707031 -5.097656 -0.605469 -4.964844 C -3.027344 -4.824219 -5.28125 -4.988281 -7.367188 -5.453125 C -9.726562 -5.976562 -11.523438 -7.050781 -12.753906 -8.667969 C -14.078125 -10.402344 -14.359375 -12.75 -13.597656 -15.71875 L -13.566406 -15.828125 C -13.023438 -17.503906 -12.300781 -19.113281 -11.390625 -20.648438 C -10.238281 -22.605469 -8.972656 -24.464844 -7.59375 -26.230469 C -6.234375 -27.964844 -4.816406 -29.648438 -3.335938 -31.277344 C 9.933594 -45.910156 24.960938 -58.449219 41.742188 -68.890625 L 42.722656 -67.3125 L 41.609375 -68.796875 C 41.746094 -68.898438 41.941406 -69.019531 42.195312 -69.160156 L 43.085938 -67.53125 L 42.09375 -69.101562 C 42.714844 -69.492188 43.664062 -70.078125 44.941406 -70.867188 C 46.257812 -71.671875 47.722656 -72.492188 49.34375 -73.328125 C 50.980469 -74.171875 52.5625 -74.890625 54.089844 -75.484375 C 55.796875 -76.152344 57.292969 -76.460938 58.585938 -76.410156 C 59.507812 -76.375 60.28125 -76.105469 60.910156 -75.601562 C 61.5625 -75.082031 61.988281 -74.371094 62.1875 -73.464844 L 62.203125 -73.386719 L 62.214844 -73.304688 C 62.453125 -71.441406 62.335938 -69.578125 61.855469 -67.71875 L 60.058594 -68.183594 L 61.871094 -67.769531 C 60.808594 -63.136719 59.300781 -58.644531 57.339844 -54.296875 C 53.164062 -44.570312 48.933594 -34.878906 44.648438 -25.21875 C 44.417969 -24.671875 44.179688 -24.125 43.929688 -23.578125 L 42.238281 -24.347656 L 43.96875 -23.667969 C 43.449219 -22.34375 42.875 -21.050781 42.246094 -19.792969 C 41.570312 -18.449219 40.742188 -17.199219 39.753906 -16.054688 L 38.347656 -17.261719 L 39.84375 -16.164062 C 39.746094 -16.03125 39.660156 -15.878906 39.585938 -15.710938 L 39.566406 -15.671875 L 39.546875 -15.636719 C 39.441406 -15.421875 39.316406 -15.222656 39.167969 -15.039062 L 37.71875 -16.199219 L 39.359375 -15.332031 C 38.898438 -14.453125 38.441406 -13.574219 37.996094 -12.699219 L 37.980469 -12.667969 L 37.960938 -12.636719 C 36.644531 -10.277344 35.355469 -7.910156 34.089844 -5.539062 C 33.035156 -3.542969 32.023438 -1.554688 31.058594 0.425781 C 30.675781 1.246094 30.132812 1.882812 29.4375 2.332031 C 28.746094 2.777344 27.945312 3.015625 27.035156 3.039062 L 26.984375 1.183594 L 27.175781 3.03125 C 23.835938 3.382812 20.480469 3.808594 17.117188 4.308594 C 14.296875 4.675781 11.527344 5.339844 8.8125 6.296875 L 8.195312 4.546875 L 9.117188 6.15625 C 9.28125 6.0625 9.402344 5.953125 9.480469 5.828125 C 9.460938 5.855469 9.449219 5.875 9.441406 5.890625 C 9.453125 5.871094 9.460938 5.84375 9.472656 5.808594 L 7.714844 5.222656 L 9.570312 5.222656 C 9.570312 5.019531 9.523438 4.824219 9.429688 4.632812 C 9.339844 4.457031 9.21875 4.308594 9.070312 4.191406 C 8.878906 4.042969 8.644531 3.96875 8.367188 3.96875 L 8.367188 5.828125 L 8.042969 4 L 9.136719 3.804688 L 9.730469 4.164062 C 9.519531 4.035156 9.273438 3.96875 8.996094 3.96875 C 8.773438 3.96875 8.558594 4.015625 8.355469 4.101562 C 8.164062 4.183594 7.996094 4.296875 7.851562 4.441406 L 8.394531 3.898438 L 9.164062 3.898438 C 9.792969 3.898438 10.40625 3.824219 11.003906 3.683594 L 11.4375 5.488281 L 10.929688 3.703125 C 11.730469 3.476562 13.359375 3.144531 15.8125 2.707031 C 18.257812 2.269531 20.644531 1.945312 22.96875 1.730469 L 23.054688 1.722656 L 23.308594 1.722656 L 23.308594 3.578125 L 23.101562 1.734375 C 24.558594 1.570312 25.699219 1.542969 26.523438 1.652344 C 26.929688 1.707031 27.289062 1.820312 27.605469 2 C 28.054688 2.25 28.386719 2.601562 28.605469 3.050781 C 28.945312 3.746094 28.933594 4.527344 28.582031 5.394531 L 28.5625 5.441406 L 25.347656 12.214844 C 22.351562 18.472656 19.589844 24.847656 17.058594 31.332031 L 17.046875 31.367188 L 17.03125 31.398438 C 16.757812 32.027344 16.546875 32.691406 16.394531 33.394531 L 14.578125 33.003906 L 16.429688 33.144531 C 16.449219 32.890625 16.378906 32.652344 16.214844 32.433594 C 16.148438 32.347656 16.082031 32.28125 16.007812 32.230469 C 15.980469 32.210938 15.960938 32.199219 15.949219 32.195312 C 16.113281 32.257812 16.351562 32.261719 16.664062 32.203125 C 16.835938 32.171875 16.972656 32.089844 17.066406 31.960938 L 18.570312 33.050781 L 17.011719 32.042969 C 17.355469 31.511719 17.667969 30.945312 17.957031 30.34375 L 17.972656 30.308594 L 19.675781 27.09375 C 21.207031 24.152344 22.710938 21.214844 24.191406 18.28125 C 26.710938 13.335938 29.136719 8.355469 31.464844 3.328125 L 33.148438 4.109375 L 31.441406 3.378906 C 31.851562 2.425781 32.4375 1.6875 33.203125 1.167969 C 33.972656 0.644531 34.875 0.367188 35.910156 0.34375 L 35.953125 2.199219 L 35.859375 0.347656 L 42.917969 -0.015625 C 47.40625 -0.308594 51.921875 -0.511719 56.457031 -0.625 L 56.601562 -0.625 L 56.742188 -0.609375 C 57.152344 -0.554688 57.515625 -0.4375 57.835938 -0.246094 C 58.273438 0.0117188 58.597656 0.371094 58.804688 0.828125 C 59.105469 1.496094 59.09375 2.25 58.769531 3.085938 L 58.722656 3.195312 C 58.433594 3.820312 58.148438 4.449219 57.859375 5.089844 L 56.167969 4.328125 L 57.890625 5.015625 C 57.757812 5.347656 57.636719 5.648438 57.519531 5.929688 L 57.511719 5.953125 L 55.0625 11.460938 L 44.773438 34.796875 C 44.40625 35.589844 44.070312 36.402344 43.765625 37.242188 L 42.023438 36.605469 L 43.8125 37.09375 C 43.8125 37.105469 43.808594 37.109375 43.808594 37.113281 C 43.8125 37.101562 43.8125 37.089844 43.8125 37.074219 C 43.816406 36.996094 43.808594 36.914062 43.785156 36.820312 C 43.710938 36.539062 43.554688 36.320312 43.316406 36.167969 C 43.300781 36.15625 43.285156 36.152344 43.269531 36.148438 C 43.28125 36.148438 43.308594 36.148438 43.347656 36.148438 C 43.40625 36.140625 43.453125 36.132812 43.480469 36.121094 C 43.472656 36.125 43.460938 36.132812 43.445312 36.148438 L 44.632812 37.574219 L 43.136719 36.476562 C 43.160156 36.441406 43.175781 36.410156 43.183594 36.371094 L 43.265625 36.003906 L 43.484375 35.695312 C 43.457031 35.734375 43.429688 35.792969 43.402344 35.875 L 43.421875 35.816406 L 43.445312 35.761719 C 43.875 34.707031 44.324219 33.652344 44.804688 32.601562 L 46.496094 33.367188 L 44.785156 32.644531 C 45.675781 30.535156 46.585938 28.449219 47.515625 26.378906 L 51.359375 17.960938 C 53.726562 12.828125 56.046875 7.675781 58.320312 2.5 C 58.863281 1.300781 59.566406 0.433594 60.4375 -0.105469 C 61.285156 -0.628906 62.328125 -0.890625 63.566406 -0.890625 L 67.863281 -0.890625 C 76.703125 -0.921875 85.476562 -0.886719 94.171875 -0.78125 C 102.886719 -0.675781 111.730469 -0.371094 120.707031 0.128906 L 120.601562 1.984375 L 120.601562 0.125 C 120.339844 0.125 120.113281 0.175781 119.917969 0.273438 L 120.398438 0.03125 L 121.414062 0.136719 L 121.230469 1.984375 L 121.230469 0.125 C 120.863281 0.125 120.550781 0.253906 120.292969 0.511719 C 120.152344 0.652344 120.050781 0.8125 119.980469 0.996094 C 119.929688 1.132812 119.90625 1.269531 119.90625 1.402344 C 119.90625 1.730469 120.007812 2.023438 120.214844 2.277344 C 120.3125 2.390625 120.445312 2.492188 120.617188 2.578125 Z M 120.617188 2.578125 "/></g></g></g><g clip-path="url(#6c771ddf3d)"><g fill="#2c2f4a" fill-opacity="1"><g transform="translate(141.104438, 161.45995)"><g><path d="M 68.523438 4.585938 C 68.859375 4.882812 69.113281 5.21875 69.289062 5.59375 C 69.496094 6.042969 69.574219 6.515625 69.519531 7.003906 C 69.460938 7.574219 69.285156 8.097656 69 8.570312 L 67.410156 7.617188 L 69.265625 7.617188 L 69.265625 8.066406 L 69.117188 8.414062 C 67.929688 11.21875 66.125 13.34375 63.710938 14.792969 C 61.304688 16.234375 58.445312 16.839844 55.140625 16.601562 L 55.113281 16.597656 L 55.089844 16.597656 C 51.828125 16.277344 49.238281 15.109375 47.324219 13.089844 C 45.429688 11.089844 44.34375 8.457031 44.066406 5.1875 C 43.9375 3.648438 43.996094 2.121094 44.238281 0.601562 C 44.460938 -0.8125 44.742188 -2.226562 45.074219 -3.640625 L 45.710938 -6.246094 L 45.71875 -6.265625 C 46.09375 -7.644531 46.421875 -9.039062 46.707031 -10.445312 C 46.875 -11.359375 46.914062 -12.105469 46.824219 -12.691406 C 46.765625 -13.074219 46.65625 -13.34375 46.5 -13.496094 C 45.941406 -14.046875 45.074219 -14.339844 43.90625 -14.378906 C 42.355469 -14.433594 40.785156 -14.351562 39.195312 -14.140625 L 39.167969 -14.136719 L 39.136719 -14.132812 C 38.132812 -14.035156 37.207031 -13.964844 36.367188 -13.933594 L 36.328125 -13.929688 L 36.292969 -13.929688 C 36.34375 -13.929688 36.40625 -13.945312 36.484375 -13.972656 C 36.621094 -14.019531 36.746094 -14.101562 36.855469 -14.210938 C 36.773438 -14.125 36.695312 -14.027344 36.621094 -13.914062 L 35.058594 -14.917969 L 36.675781 -14.007812 C 35.832031 -12.511719 35.015625 -10.992188 34.21875 -9.449219 C 26.65625 4.796875 18.46875 18.667969 9.652344 32.15625 C 8.28125 34.234375 6.863281 36.28125 5.394531 38.300781 L 3.894531 37.210938 L 5.4375 38.242188 C 5.035156 38.84375 4.582031 39.382812 4.078125 39.855469 C 3.464844 40.433594 2.730469 40.851562 1.871094 41.113281 C 0.214844 41.589844 -1.167969 41.433594 -2.277344 40.644531 C -2.898438 40.199219 -3.347656 39.601562 -3.621094 38.847656 C -3.847656 38.222656 -3.945312 37.503906 -3.910156 36.695312 C -3.839844 35.265625 -3.628906 33.832031 -3.277344 32.394531 C -1.324219 24.234375 1.203125 17.234375 4.308594 11.386719 C 7.414062 5.539062 11.167969 0.25 15.566406 -4.480469 C 19.90625 -9.148438 24.910156 -13.851562 30.578125 -18.589844 C 31.28125 -19.152344 31.835938 -19.832031 32.246094 -20.628906 L 34.476562 -24.894531 C 37.210938 -30.152344 39.90625 -35.429688 42.5625 -40.726562 C 45.207031 -46 47.707031 -51.335938 50.0625 -56.738281 C 52.304688 -61.933594 53.457031 -65.75 53.523438 -68.195312 C 53.546875 -69.054688 53.410156 -69.65625 53.105469 -70 C 52.828125 -70.320312 52.308594 -70.503906 51.546875 -70.546875 C 50.460938 -70.613281 49.003906 -70.414062 47.175781 -69.953125 C 45.242188 -69.460938 42.941406 -68.683594 40.269531 -67.617188 C 34.941406 -65.480469 29.722656 -63.097656 24.617188 -60.464844 C 19.496094 -57.824219 14.445312 -55.003906 9.46875 -52.011719 C 7.613281 -50.925781 5.328125 -49.484375 2.605469 -47.6875 C -0.101562 -45.902344 -2.773438 -43.980469 -5.410156 -41.925781 C -7.992188 -39.910156 -10.113281 -37.949219 -11.777344 -36.039062 C -12.238281 -35.488281 -12.511719 -35.078125 -12.597656 -34.800781 C -12.597656 -34.792969 -12.601562 -34.789062 -12.601562 -34.789062 C -12.597656 -34.796875 -12.597656 -34.808594 -12.597656 -34.824219 C -12.589844 -34.886719 -12.59375 -34.957031 -12.609375 -35.03125 C -12.65625 -35.25 -12.757812 -35.429688 -12.921875 -35.570312 C -12.898438 -35.550781 -12.847656 -35.523438 -12.773438 -35.488281 C -12.636719 -35.429688 -12.460938 -35.371094 -12.253906 -35.320312 C -11.734375 -35.191406 -11.058594 -35.113281 -10.222656 -35.078125 C -9.339844 -35.046875 -7.800781 -35.039062 -5.609375 -35.054688 C -3.4375 -35.070312 -1.011719 -35.179688 1.671875 -35.386719 L 6.144531 -35.726562 C 8.34375 -35.9375 10.238281 -36.078125 11.832031 -36.152344 C 12.707031 -36.191406 13.417969 -36.183594 13.972656 -36.128906 C 14.316406 -36.09375 14.617188 -36.039062 14.878906 -35.964844 C 15.300781 -35.84375 15.652344 -35.65625 15.933594 -35.40625 L 16.292969 -35.089844 L 16.453125 -34.636719 C 16.566406 -34.308594 16.59375 -33.972656 16.53125 -33.632812 C 16.480469 -33.347656 16.367188 -33.085938 16.199219 -32.847656 C 16.019531 -32.589844 15.785156 -32.378906 15.492188 -32.207031 C 15.230469 -32.054688 14.890625 -31.917969 14.464844 -31.796875 C 13.847656 -31.621094 12.933594 -31.445312 11.722656 -31.265625 C 9.417969 -30.917969 6.585938 -30.605469 3.226562 -30.320312 C -0.132812 -30.035156 -3.394531 -29.863281 -6.554688 -29.804688 C -9.796875 -29.746094 -12.277344 -29.875 -13.992188 -30.183594 L -14.019531 -30.191406 L -14.046875 -30.195312 C -15.757812 -30.558594 -17.050781 -31.113281 -17.925781 -31.863281 C -18.484375 -32.335938 -18.886719 -32.890625 -19.125 -33.515625 C -19.375 -34.160156 -19.441406 -34.84375 -19.328125 -35.566406 C -19.15625 -36.640625 -18.652344 -37.773438 -17.808594 -38.964844 C -17.054688 -40.027344 -16.019531 -41.160156 -14.695312 -42.367188 C -12.171875 -44.664062 -8.980469 -47.09375 -5.113281 -49.660156 C -1.292969 -52.199219 2.804688 -54.730469 7.183594 -57.253906 C 11.546875 -59.773438 15.769531 -62.109375 19.855469 -64.265625 C 23.9375 -66.417969 27.457031 -68.210938 30.417969 -69.636719 C 33.398438 -71.074219 35.417969 -72.007812 36.488281 -72.441406 C 40.828125 -74.199219 44.660156 -75.390625 47.988281 -76.015625 C 51.613281 -76.699219 54.519531 -76.480469 56.710938 -75.359375 C 57.984375 -74.710938 58.941406 -73.726562 59.582031 -72.414062 C 60.160156 -71.21875 60.457031 -69.773438 60.464844 -68.074219 C 60.484375 -64.984375 59.363281 -60.738281 57.105469 -55.332031 C 55.351562 -51.183594 53.480469 -47.082031 51.5 -43.019531 C 49.53125 -38.980469 47.527344 -34.960938 45.492188 -30.953125 L 43.097656 -26.21875 C 42.640625 -25.316406 42.144531 -24.363281 41.605469 -23.355469 L 39.96875 -24.226562 L 39.527344 -26.03125 C 39.929688 -26.128906 40.226562 -26.238281 40.425781 -26.367188 C 40.730469 -26.554688 40.992188 -26.746094 41.21875 -26.933594 L 41.242188 -26.953125 L 41.269531 -26.972656 C 41.492188 -27.148438 41.738281 -27.308594 42.003906 -27.453125 L 42.890625 -25.824219 L 41.796875 -27.320312 C 48.925781 -32.539062 56.707031 -37.789062 65.140625 -43.074219 C 73.59375 -48.371094 82.476562 -53.3125 91.796875 -57.894531 C 101.140625 -62.488281 110.703125 -66.308594 120.472656 -69.351562 C 130.289062 -72.40625 140.089844 -74.296875 149.878906 -75.015625 C 159.730469 -75.738281 169.351562 -74.875 178.738281 -72.421875 L 178.796875 -72.40625 L 178.855469 -72.386719 C 179.328125 -72.226562 179.734375 -71.914062 180.074219 -71.445312 C 180.414062 -70.976562 180.582031 -70.46875 180.582031 -69.921875 C 180.582031 -69.546875 180.507812 -69.191406 180.355469 -68.863281 C 180.191406 -68.511719 179.957031 -68.214844 179.648438 -67.972656 C 179.15625 -67.582031 178.566406 -67.390625 177.878906 -67.390625 L 177.878906 -69.246094 L 178.367188 -67.457031 C 177.800781 -67.300781 177.222656 -67.335938 176.632812 -67.5625 L 177.300781 -69.296875 L 176.835938 -67.496094 C 169.363281 -69.433594 161.621094 -70.175781 153.601562 -69.726562 C 145.519531 -69.273438 137.320312 -67.914062 129.007812 -65.640625 C 120.65625 -63.359375 112.386719 -60.429688 104.191406 -56.847656 C 95.972656 -53.253906 88.011719 -49.289062 80.3125 -44.960938 C 72.601562 -40.625 65.351562 -36.179688 58.566406 -31.628906 C 51.773438 -27.074219 45.625 -22.695312 40.125 -18.496094 L 39 -19.972656 L 40.3125 -18.660156 L 40.117188 -18.460938 L 39.941406 -18.351562 C 39.601562 -18.136719 39.277344 -17.890625 38.972656 -17.609375 C 38.929688 -17.574219 38.898438 -17.539062 38.875 -17.515625 L 38.871094 -17.511719 C 38.878906 -17.519531 38.886719 -17.53125 38.898438 -17.546875 C 39.023438 -17.761719 39.066406 -18.015625 39.027344 -18.3125 C 38.996094 -18.550781 38.917969 -18.769531 38.789062 -18.976562 C 38.683594 -19.140625 38.558594 -19.28125 38.40625 -19.394531 C 38.261719 -19.503906 38.121094 -19.574219 37.984375 -19.609375 C 37.976562 -19.609375 37.972656 -19.609375 37.96875 -19.613281 C 37.96875 -19.613281 37.972656 -19.609375 37.976562 -19.609375 C 38 -19.609375 38.027344 -19.605469 38.0625 -19.601562 C 38.164062 -19.597656 38.292969 -19.597656 38.445312 -19.601562 L 38.480469 -19.605469 L 39.265625 -19.605469 L 39.265625 -17.746094 L 39.09375 -19.597656 C 40.734375 -19.75 42.453125 -19.792969 44.246094 -19.734375 C 46.167969 -19.671875 47.929688 -19.339844 49.539062 -18.734375 L 49.570312 -18.726562 L 49.597656 -18.714844 C 50.972656 -18.144531 52.023438 -17.324219 52.746094 -16.253906 C 53.476562 -15.179688 53.839844 -13.902344 53.839844 -12.425781 L 53.839844 -12.371094 C 53.804688 -11.21875 53.660156 -10.089844 53.40625 -8.988281 C 53.050781 -7.347656 52.679688 -5.707031 52.289062 -4.066406 L 51.140625 1.261719 C 50.738281 3.089844 50.800781 4.914062 51.324219 6.738281 L 49.542969 7.253906 L 51.308594 6.679688 C 51.789062 8.164062 52.519531 9.296875 53.503906 10.082031 C 54.453125 10.839844 55.542969 11.238281 56.765625 11.273438 C 58.011719 11.308594 59.289062 10.902344 60.589844 10.050781 C 61.550781 9.410156 62.332031 8.578125 62.925781 7.550781 L 64.53125 8.488281 L 62.871094 7.65625 L 63.304688 6.785156 L 64.96875 7.617188 L 63.214844 7 C 63.347656 6.621094 63.515625 6.257812 63.710938 5.90625 L 63.738281 5.859375 L 63.769531 5.8125 C 64.261719 5.046875 64.867188 4.507812 65.582031 4.195312 C 66.046875 3.992188 66.511719 3.910156 66.980469 3.945312 C 67.507812 3.984375 67.988281 4.167969 68.417969 4.496094 L 68.472656 4.539062 Z M 66.054688 7.359375 L 67.289062 5.972656 L 66.160156 7.445312 C 66.316406 7.566406 66.496094 7.632812 66.703125 7.648438 C 66.847656 7.660156 66.964844 7.644531 67.0625 7.601562 C 67.070312 7.597656 67.078125 7.59375 67.082031 7.59375 C 67.074219 7.597656 67.066406 7.601562 67.058594 7.613281 C 67.007812 7.660156 66.953125 7.730469 66.890625 7.824219 L 65.328125 6.816406 L 66.949219 7.730469 C 66.855469 7.894531 66.777344 8.0625 66.71875 8.234375 L 66.679688 8.34375 L 66.167969 9.371094 L 66.136719 9.421875 C 65.25 10.941406 64.078125 12.1875 62.621094 13.160156 C 60.667969 14.4375 58.679688 15.042969 56.65625 14.984375 C 54.605469 14.925781 52.785156 14.257812 51.1875 12.984375 C 49.625 11.738281 48.488281 10.019531 47.773438 7.828125 L 47.757812 7.765625 C 47.058594 5.339844 46.976562 2.90625 47.507812 0.476562 L 48.679688 -4.925781 C 49.0625 -6.542969 49.429688 -8.171875 49.785156 -9.820312 C 49.984375 -10.6875 50.097656 -11.574219 50.128906 -12.484375 L 51.984375 -12.425781 L 50.125 -12.425781 C 50.125 -13.144531 49.976562 -13.726562 49.671875 -14.171875 C 49.363281 -14.628906 48.867188 -14.996094 48.179688 -15.28125 L 48.886719 -16.996094 L 48.238281 -15.257812 C 47.007812 -15.71875 45.636719 -15.972656 44.125 -16.023438 C 42.484375 -16.078125 40.921875 -16.035156 39.4375 -15.898438 L 39.351562 -15.890625 L 38.515625 -15.890625 L 38.515625 -17.746094 L 38.585938 -15.890625 C 37.984375 -15.867188 37.492188 -15.90625 37.101562 -16 C 36.742188 -16.089844 36.433594 -16.230469 36.167969 -16.429688 C 35.957031 -16.589844 35.785156 -16.777344 35.644531 -16.996094 C 35.484375 -17.253906 35.382812 -17.535156 35.34375 -17.835938 C 35.230469 -18.722656 35.601562 -19.558594 36.464844 -20.347656 C 36.933594 -20.777344 37.433594 -21.160156 37.960938 -21.496094 L 38.953125 -19.921875 L 37.636719 -21.234375 L 37.773438 -21.371094 L 37.871094 -21.445312 C 43.429688 -25.691406 49.640625 -30.117188 56.5 -34.714844 C 63.363281 -39.320312 70.695312 -43.8125 78.492188 -48.199219 C 86.296875 -52.589844 94.371094 -56.605469 102.703125 -60.25 C 111.0625 -63.902344 119.503906 -66.894531 128.03125 -69.226562 C 136.59375 -71.5625 145.050781 -72.96875 153.394531 -73.433594 C 161.796875 -73.902344 169.921875 -73.125 177.765625 -71.09375 L 177.867188 -71.066406 L 177.964844 -71.027344 C 177.796875 -71.09375 177.605469 -71.097656 177.390625 -71.039062 L 177.632812 -71.105469 L 177.878906 -71.105469 C 177.832031 -71.105469 177.773438 -71.09375 177.703125 -71.074219 C 177.578125 -71.035156 177.457031 -70.972656 177.347656 -70.886719 C 177.191406 -70.761719 177.070312 -70.609375 176.984375 -70.421875 C 176.90625 -70.257812 176.871094 -70.09375 176.871094 -69.921875 C 176.871094 -69.667969 176.933594 -69.453125 177.0625 -69.273438 C 177.09375 -69.230469 177.132812 -69.1875 177.1875 -69.140625 C 177.328125 -69.019531 177.488281 -68.925781 177.679688 -68.863281 L 178.265625 -70.625 L 177.796875 -68.828125 C 168.808594 -71.179688 159.59375 -72.007812 150.152344 -71.3125 C 140.644531 -70.613281 131.121094 -68.777344 121.578125 -65.804688 C 111.988281 -62.820312 102.609375 -59.070312 93.433594 -54.558594 C 84.230469 -50.035156 75.457031 -45.15625 67.113281 -39.929688 C 58.753906 -34.691406 51.046875 -29.488281 43.988281 -24.324219 L 43.890625 -24.25 L 43.78125 -24.191406 C 43.691406 -24.144531 43.613281 -24.09375 43.550781 -24.042969 L 42.410156 -25.507812 L 43.597656 -24.082031 C 43.246094 -23.789062 42.847656 -23.5 42.40625 -23.222656 C 41.867188 -22.882812 41.199219 -22.617188 40.40625 -22.421875 L 36.382812 -21.445312 L 38.328125 -25.097656 C 38.855469 -26.089844 39.339844 -27.019531 39.785156 -27.894531 L 42.179688 -32.636719 C 44.207031 -36.625 46.199219 -40.628906 48.164062 -44.648438 C 50.113281 -48.648438 51.953125 -52.6875 53.679688 -56.761719 C 55.742188 -61.703125 56.765625 -65.464844 56.75 -68.050781 C 56.746094 -69.1875 56.574219 -70.101562 56.238281 -70.789062 C 55.964844 -71.359375 55.558594 -71.78125 55.019531 -72.054688 C 53.582031 -72.789062 51.46875 -72.894531 48.675781 -72.367188 C 45.589844 -71.785156 41.992188 -70.664062 37.886719 -69 C 36.890625 -68.597656 34.9375 -67.695312 32.03125 -66.292969 C 29.113281 -64.882812 25.628906 -63.113281 21.585938 -60.980469 C 17.546875 -58.847656 13.363281 -56.53125 9.039062 -54.039062 C 4.730469 -51.550781 0.695312 -49.0625 -3.058594 -46.566406 C -6.769531 -44.105469 -9.8125 -41.789062 -12.191406 -39.621094 C -13.320312 -38.597656 -14.179688 -37.660156 -14.777344 -36.816406 C -15.285156 -36.101562 -15.578125 -35.488281 -15.660156 -34.984375 C -15.667969 -34.917969 -15.671875 -34.875 -15.660156 -34.851562 C -15.644531 -34.8125 -15.597656 -34.757812 -15.519531 -34.6875 C -15.117188 -34.347656 -14.371094 -34.0625 -13.273438 -33.828125 L -13.660156 -32.011719 L -13.328125 -33.839844 C -11.855469 -33.570312 -9.617188 -33.464844 -6.621094 -33.519531 C -3.542969 -33.574219 -0.367188 -33.742188 2.914062 -34.019531 C 6.195312 -34.296875 8.949219 -34.605469 11.175781 -34.9375 C 12.226562 -35.09375 12.988281 -35.238281 13.457031 -35.371094 C 13.539062 -35.394531 13.605469 -35.414062 13.65625 -35.433594 C 13.664062 -35.4375 13.667969 -35.441406 13.671875 -35.441406 C 13.652344 -35.433594 13.632812 -35.421875 13.609375 -35.410156 C 13.441406 -35.308594 13.292969 -35.167969 13.164062 -34.984375 C 13.019531 -34.777344 12.925781 -34.550781 12.878906 -34.300781 C 12.820312 -33.996094 12.847656 -33.695312 12.949219 -33.402344 L 14.699219 -34.019531 L 13.464844 -32.632812 C 13.605469 -32.507812 13.730469 -32.429688 13.847656 -32.398438 C 13.804688 -32.410156 13.722656 -32.421875 13.601562 -32.433594 C 13.230469 -32.472656 12.699219 -32.472656 12.007812 -32.441406 C 10.472656 -32.371094 8.613281 -32.230469 6.425781 -32.023438 L 1.957031 -31.683594 C -0.8125 -31.472656 -3.324219 -31.355469 -5.582031 -31.339844 C -7.828125 -31.324219 -9.425781 -31.332031 -10.378906 -31.367188 C -11.460938 -31.410156 -12.382812 -31.527344 -13.140625 -31.714844 C -14.066406 -31.941406 -14.800781 -32.289062 -15.34375 -32.757812 C -15.824219 -33.171875 -16.128906 -33.683594 -16.25 -34.300781 C -16.351562 -34.804688 -16.316406 -35.335938 -16.144531 -35.894531 C -15.914062 -36.652344 -15.390625 -37.511719 -14.578125 -38.476562 C -12.757812 -40.566406 -10.464844 -42.691406 -7.695312 -44.851562 C -4.980469 -46.96875 -2.226562 -48.949219 0.5625 -50.789062 C 3.335938 -52.621094 5.667969 -54.089844 7.554688 -55.195312 C 12.601562 -58.230469 17.722656 -61.085938 22.917969 -63.765625 C 28.125 -66.449219 33.453125 -68.886719 38.890625 -71.066406 C 41.714844 -72.195312 44.175781 -73.023438 46.265625 -73.550781 C 48.464844 -74.109375 50.300781 -74.34375 51.769531 -74.253906 C 53.5625 -74.148438 54.941406 -73.546875 55.902344 -72.445312 C 56.839844 -71.371094 57.285156 -69.921875 57.238281 -68.097656 C 57.15625 -65.175781 55.902344 -60.894531 53.46875 -55.253906 C 51.085938 -49.792969 48.554688 -44.394531 45.882812 -39.0625 C 43.21875 -33.75 40.515625 -28.453125 37.769531 -23.171875 L 35.546875 -18.925781 C 34.894531 -17.660156 34.035156 -16.597656 32.960938 -15.742188 C 27.410156 -11.101562 22.519531 -6.503906 18.285156 -1.949219 C 14.109375 2.539062 10.542969 7.566406 7.585938 13.128906 C 4.632812 18.695312 2.210938 25.410156 0.328125 33.273438 C 0.0351562 34.480469 -0.140625 35.675781 -0.199219 36.855469 C -0.214844 37.171875 -0.191406 37.414062 -0.132812 37.574219 C -0.121094 37.605469 -0.113281 37.625 -0.105469 37.632812 C -0.109375 37.628906 -0.113281 37.625 -0.117188 37.621094 C -0.0859375 37.644531 -0.03125 37.660156 0.0507812 37.664062 C 0.246094 37.679688 0.492188 37.648438 0.789062 37.5625 C 1.089844 37.46875 1.339844 37.332031 1.53125 37.152344 C 1.832031 36.871094 2.105469 36.546875 2.347656 36.179688 L 2.367188 36.148438 L 2.390625 36.121094 C 3.824219 34.144531 5.210938 32.144531 6.546875 30.125 C 15.300781 16.730469 23.421875 2.972656 30.917969 -11.152344 C 31.734375 -12.734375 32.574219 -14.292969 33.441406 -15.828125 L 33.496094 -15.921875 C 33.714844 -16.257812 33.957031 -16.5625 34.230469 -16.835938 C 34.769531 -17.375 35.457031 -17.644531 36.292969 -17.644531 L 36.292969 -15.789062 L 36.21875 -17.644531 C 36.988281 -17.675781 37.835938 -17.738281 38.765625 -17.828125 L 38.953125 -15.980469 L 38.707031 -17.824219 C 40.5 -18.0625 42.277344 -18.152344 44.03125 -18.089844 C 46.164062 -18.019531 47.855469 -17.371094 49.101562 -16.144531 C 50.472656 -14.796875 50.890625 -12.65625 50.347656 -9.71875 C 50.046875 -8.226562 49.699219 -6.75 49.300781 -5.289062 L 47.511719 -5.777344 L 49.3125 -5.335938 L 48.6875 -2.789062 C 48.378906 -1.464844 48.117188 -0.140625 47.90625 1.1875 C 47.710938 2.410156 47.664062 3.636719 47.765625 4.871094 C 47.96875 7.277344 48.722656 9.164062 50.019531 10.535156 C 51.296875 11.882812 53.109375 12.671875 55.453125 12.902344 L 55.273438 14.75 L 55.40625 12.898438 C 57.933594 13.078125 60.0625 12.648438 61.800781 11.609375 C 63.527344 10.574219 64.824219 9.027344 65.699219 6.964844 L 67.410156 7.6875 L 65.550781 7.6875 L 65.550781 7.101562 L 65.816406 6.660156 C 65.820312 6.652344 65.824219 6.632812 65.828125 6.605469 C 65.808594 6.800781 65.839844 6.980469 65.917969 7.15625 C 65.960938 7.25 66.007812 7.316406 66.054688 7.359375 Z M 26.433594 -9.753906 C 26.511719 -9.902344 26.617188 -10.074219 26.753906 -10.265625 L 28.265625 -9.1875 L 26.625 -10.0625 C 26.761719 -10.316406 26.9375 -10.628906 27.144531 -11 C 27.285156 -11.246094 27.386719 -11.46875 27.453125 -11.671875 C 27.460938 -11.691406 27.464844 -11.707031 27.464844 -11.710938 C 27.457031 -11.671875 27.453125 -11.621094 27.449219 -11.5625 C 27.441406 -11.40625 27.464844 -11.246094 27.511719 -11.082031 C 27.609375 -10.75 27.796875 -10.476562 28.066406 -10.253906 C 28.324219 -10.042969 28.613281 -9.917969 28.9375 -9.871094 C 29.128906 -9.84375 29.316406 -9.847656 29.5 -9.882812 C 29.640625 -9.910156 29.761719 -9.949219 29.859375 -10.003906 C 29.832031 -9.988281 29.757812 -9.929688 29.632812 -9.828125 C 22.578125 -4.285156 17.042969 1.921875 13.027344 8.792969 C 8.988281 15.707031 5.960938 23.644531 3.9375 32.613281 C 3.875 32.902344 3.84375 33.101562 3.839844 33.210938 C 3.839844 33.15625 3.828125 33.078125 3.804688 32.980469 C 3.769531 32.832031 3.714844 32.691406 3.632812 32.558594 C 3.488281 32.3125 3.292969 32.113281 3.046875 31.964844 C 2.738281 31.773438 2.402344 31.695312 2.046875 31.722656 C 1.847656 31.742188 1.671875 31.792969 1.511719 31.875 C 1.457031 31.902344 1.414062 31.929688 1.386719 31.953125 C 1.398438 31.941406 1.421875 31.917969 1.453125 31.886719 C 1.695312 31.636719 1.933594 31.335938 2.171875 30.988281 C 2.5 30.496094 2.757812 30.140625 2.9375 29.917969 L 4.375 31.09375 L 2.816406 30.085938 C 7.027344 23.574219 11.109375 17.007812 15.0625 10.375 C 19.015625 3.753906 22.8125 -2.972656 26.457031 -9.796875 L 28.09375 -8.921875 Z M 29.757812 -8.089844 L 29.746094 -8.070312 L 29.734375 -8.046875 C 26.058594 -1.171875 22.234375 5.605469 18.253906 12.277344 C 14.277344 18.945312 10.171875 25.554688 5.933594 32.101562 L 5.878906 32.1875 L 5.8125 32.269531 C 5.703125 32.402344 5.519531 32.664062 5.253906 33.0625 C 4.890625 33.597656 4.511719 34.070312 4.109375 34.480469 C 3.808594 34.789062 3.511719 35.019531 3.214844 35.171875 C 2.941406 35.316406 2.65625 35.398438 2.363281 35.425781 C 1.910156 35.464844 1.492188 35.367188 1.109375 35.132812 C 0.636719 34.84375 0.332031 34.414062 0.195312 33.847656 C 0.140625 33.617188 0.117188 33.359375 0.125 33.078125 C 0.140625 32.742188 0.203125 32.316406 0.316406 31.796875 C 2.421875 22.453125 5.589844 14.164062 9.820312 6.921875 C 14.074219 -0.359375 19.894531 -6.902344 27.285156 -12.707031 C 27.59375 -12.957031 27.867188 -13.148438 28.101562 -13.273438 C 28.332031 -13.398438 28.5625 -13.484375 28.789062 -13.527344 C 29.015625 -13.570312 29.242188 -13.578125 29.46875 -13.546875 C 29.824219 -13.492188 30.140625 -13.355469 30.417969 -13.128906 C 31.164062 -12.519531 31.351562 -11.652344 30.984375 -10.523438 C 30.84375 -10.082031 30.636719 -9.628906 30.375 -9.164062 C 30.179688 -8.824219 30.023438 -8.542969 29.902344 -8.3125 L 29.847656 -8.207031 L 29.777344 -8.109375 C 29.753906 -8.078125 29.738281 -8.054688 29.726562 -8.039062 C 29.734375 -8.050781 29.742188 -8.066406 29.757812 -8.089844 Z M 29.757812 -8.089844 "/></g></g></g></g><g clip-path="url(#5191f89074)"><g transform="matrix(1, 0, 0, 1, 0, -0.000000000000021316)"><g clip-path="url(#42934e685a)"><g clip-path="url(#3b65120154)"><g mask="url(#6264f91c78)"><g transform="matrix(1, 0, 0, 1, 0, -0.000000000000021316)"><g clip-path="url(#51bfcff14b)"><g clip-path="url(#ad32ce3d6c)"><path fill="url(#d0f763d13d)" d="M 0.367188 0.527344 L 0.367188 267.714844 L 287.632812 267.714844 L 287.632812 0.527344 Z M 0.367188 0.527344 " fill-rule="nonzero"/></g></g></g></g></g></g></g></g></g></g></g></svg>